<?xml version="1.0" encoding="utf-8"?>
<!-- Generator: Adobe Illustrator 24.0.1, SVG Export Plug-In . SVG Version: 6.00 Build 0)  -->
<svg version="1.1" xmlns="http://www.w3.org/2000/svg" xmlns:xlink="http://www.w3.org/1999/xlink" x="0px" y="0px"
	 viewBox="0 0 338 471.2" style="enable-background:new 0 0 338 471.2;" xml:space="preserve">
<style type="text/css">
	.st0{display:none;}
	.st1{display:inline;opacity:0.22;}
	.st2{fill:#D6A3AA;}
	.st3{fill:#FEFFC5;stroke:#FFFFFF;stroke-miterlimit:10;}
	.st4{fill:#DD6676;}
	.st5{fill:#FF7689;}
	.st6{fill:#603813;}
	.st7{fill:#754C24;}
	.st8{fill:#CC7177;}
	.st9{fill:#CCA4A7;}
	.st10{fill:#ED1C24;}
	.st11{fill:#CC858B;}
	.st12{fill:#A6917C;}
	.st13{fill:#740C10;}
	.st14{fill:#C1888A;}
	.st15{fill:#C1575B;}
	.st16{fill:#C7B299;}
	.st17{fill:#998675;}
	.st18{fill:#534741;stroke:#998675;stroke-miterlimit:10;}
	.st19{fill:#534741;}
	.st20{fill:#AF8C90;}
	.st21{fill:#6D5F53;}
	.st22{fill:#493F3A;}
	.st23{fill:#FF0000;}
	.st24{fill:#FFFFFF;}
</style>
<g id="Layer_1" class="st0">
	<g class="st1">
		<g>
			<path d="M103.7,142.1c0.1-1.2-0.4-1.2-0.6-2.3c-0.5-2.4-0.5-4.6-1-6.9c-0.6-2.8-0.6-5.3-0.7-8.2c-0.2-2.7-0.9-5.2-1.1-7.9
				c-0.1-1.9,0.1-3.7-0.1-5.5c-0.4-2.5-1.3-4.8-1.4-7.4c-0.3-5.3,0.5-10.7,2.2-15.7c3.2-9.2,9-17.3,15.6-24.4c1.3-1.4,2-2.8,3.1-4.3
				c1.9-2.8,4.5-4.4,7.3-6.1c4.4-2.5,8.8-4.9,13.4-7c10.2-4.7,20.7-6.7,31.9-7.1c4.8-0.2,9.7-0.1,14.5,0.3c4.7,0.4,8.1,1.6,12.4,3.2
				c4.9,1.8,9.6,2.8,14.1,5.8c4.1,2.7,8,5.7,11.3,9.3c6.3,6.8,12.3,14.4,16.7,22.6c1.1,2,2,4.1,2.6,6.3c1,3.3,0.5,6.3,0.9,9.6
				c0.2,1.9,1,3.6,1.3,5.5c0.5,2.8,0.3,5.5,0.2,8.4c-0.3,5.6-0.2,11.2-0.2,16.7c0,3.7,0.1,7.3-0.8,10.9c-0.9,3.2-2.5,6.4-3.9,9.4
				c-0.8,1.7,1.8,3.3,2.6,1.5c2.1-4.4,4.6-9.2,5-14.1c0.6-5.9,0-12,0.1-17.9c0.1-5.1,0.9-10.4,0-15.5c-0.5-2.7-1.2-5-1.3-7.8
				c-0.1-2.7-0.2-5-1-7.6c-2.4-8-7.9-15.9-13.1-22.2c-6.5-8-14.2-16-23.7-20.5c-4-1.9-8.4-2.7-12.4-4.5c-4.4-1.8-9.2-2.1-13.9-2.3
				c-11.6-0.6-23.6-0.1-34.7,3.3c-9.5,2.9-19.9,7.8-27.9,13.6c-2.2,1.6-3.1,3.1-4.6,5.3c-1.4,2.1-3.1,3.6-4.8,5.5
				c-3.3,3.7-6.6,8.3-9.2,12.6c-5.4,9.1-8.6,20.9-6.4,31.4c1.3,6.3,1.9,13.4,2,19.9c0.1,2.9,1.1,5.6,1.3,8.4
				c0.1,1.2-0.2,1.7,0.1,2.8c0.2,0.8,1.1,2,1,2.7C100.5,144,103.5,144,103.7,142.1L103.7,142.1z"/>
		</g>
	</g>
	<g class="st1">
		<g>
			<path d="M114.2,138.1c0.1-0.2,0.2-0.4,0.3-0.6c1.1-1.2-0.3-3.3-1.8-2.4c-5.3,3.5-11.3,8.2-15.3,13.2c-3.5,4.4-5,9.4-3.4,14.9
				c0.2,0.8,1,1.2,1.8,1c0.3,0,0.5-0.1,0.8-0.1c0.5-0.1,1-0.6,1-1c0-0.3,0.1-0.6,0.1-0.9c0.3-1.9-2.6-2.7-2.9-0.8c0,0,0.1,0,0.1,0
				c0.6,0.3,1.2,0.7,1.8,1c-1.7-6.1,1.4-11.4,5.9-15.3c3.7-3.2,7.4-6.7,11.5-9.4c-0.6-0.8-1.2-1.6-1.8-2.4c-0.6,0.7-0.8,1-1.1,1.9
				C110.7,139.2,113.6,140,114.2,138.1L114.2,138.1z"/>
		</g>
	</g>
	<g class="st1">
		<g>
			<path d="M245.7,155.5c1.5,2.8,3.3,8,1.3,11c0.4-0.2,0.9-0.5,1.3-0.7c-0.2,0-0.3,0-0.5,0c0.4,0.2,0.9,0.5,1.3,0.7
				c0-0.1-0.1-0.2-0.1-0.2c0-1.9-3-1.9-3,0c0,1.2,0.5,2.3,1.8,2.5c1.5,0.2,2.1-1.1,2.4-2.3c1.1-4.3,0.1-8.6-2-12.4
				C247.4,152.3,244.8,153.8,245.7,155.5L245.7,155.5z"/>
		</g>
	</g>
	<g class="st1">
		<g>
			<path d="M227.2,138.1c2.7,0.7,5,4,7,5.9c2,2,4.2,3.8,6.5,5.5c1.6,1.1,3.1-1.5,1.5-2.6c-2.9-2.1-5.4-4.5-7.9-7
				c-1.8-1.8-3.7-3.9-6.3-4.6C226.1,134.7,225.4,137.6,227.2,138.1L227.2,138.1z"/>
		</g>
	</g>
	<g class="st1">
		<g>
			<path d="M96.7,163.7c-0.2-0.1-0.5-0.1-0.7-0.2c0.3,0.6,0.7,1.2,1,1.8c1-3.3,7.3-3.5,10-3c2.4,0.5,3.3,3,5.7,3.3
				c2.8,0.4,3.6-2.1,5.7-3.3c5.2-3,7,1.4,11.1,2.7c1.9,0.6,3.4-0.2,5-1.2c1.7-1.1,2.9-2.6,5-2.8c2.4-0.2,3.9,1.3,5.9,2.2
				c1.6,0.7,2.5,0.4,4.1-0.3c2.8-1.1,5.7-2.6,8.1,0.3c0.8,1,1.4,2.3,2.2,3.4c0.7,1,1.9,1,2.6,0c1-1.3,1.5-2.6,2-4.1
				c1.1-2.8,2.7-5.3,4-8c1.7-3.6,2.5-6.9,2-10.9c-0.4,0.5-0.7,1-1.1,1.4c0.4-0.2,0.8-0.4,1.3-0.5c1.8-0.7,1-3.6-0.8-2.9
				c-0.4,0.2-0.8,0.4-1.3,0.5c-0.6,0.2-1.2,0.7-1.1,1.4c0.6,4.8-1,8.5-3.3,12.7c-1.5,2.7-2.4,6.4-4.3,8.8c0.9,0,1.7,0,2.6,0
				c-1.8-2.3-3-5.7-6-6.8c-1.4-0.5-2.9-0.3-4.3,0.1c-1.4,0.4-3.6,2.3-5.2,2.1c-1.4-0.2-2.9-1.9-4.5-2.2c-1.6-0.4-3.6-0.6-5.2,0
				c-1.6,0.6-2.7,2.1-4.2,2.9c-2.8,1.4-3.6,0-6-1.5c-3.1-1.9-6.9-1.9-10.1,0c-1.8,1-2.5,3-4.7,2.1c-1-0.4-1.8-1.6-3-2.1
				c-4.6-1.6-13.3-0.7-15,4.7c-0.2,0.8,0.3,1.6,1,1.8c0.2,0.1,0.5,0.1,0.7,0.2C97.8,167.1,98.6,164.3,96.7,163.7L96.7,163.7z"/>
		</g>
	</g>
	<g class="st1">
		<g>
			<path d="M176.9,145.4c-0.2,5.9-0.6,10,3,14.9c1.3,1.8,2.8,3.6,4.7,4.8c0.7,0.5,2,0.8,2.6,1.3c0.5,0.4,1.1,1.3,1.7,1.7
				c4.4,2.5,6-4.4,10.3-3.9c4.4,0.5,4.4,7.1,9.3,6.1c1.4-0.3,2.4-1.3,3.4-2.3c2.5-2.6,2.6-4.4,6.6-1.8c3.2,2,4.9,2.9,8-0.1
				c1.5-1.5,1.1-1.9,3.6-2c2.4-0.1,2.2,0.5,3.8,1.9c1.2,1,2.4,1.8,3.9,2c1.6,0.2,3-0.3,4.2-1.2c0.7-0.5,1.1-1.4,1.8-1.8
				c2.4-1.7,3.6-0.4,4.9,1.8c0.7-0.7,1.4-1.4,2.1-2.1c-0.8-0.6-1.7-1.2-2.5-1.8c-1.6-1.1-3.1,1.5-1.5,2.6c0.9,0.6,1.7,1.2,2.5,1.8
				c1.2,0.9,2.8-0.8,2.1-2.1c-1.7-2.7-4.2-5.8-7.7-4.1c-2.9,1.4-3.6,5.3-7.6,2.8c-1.4-0.8-2.1-2.4-3.6-3.1c-3.6-1.6-5.2,0.9-7.6,2.8
				c-3.6,2.8-6.6-3.5-10.9-1.5c-4,1.9-4.6,8.2-8.8,2.2c-1.9-2.8-5.3-3.7-8.6-2.9c-1.8,0.5-2.4,1.5-3.8,2.6c-2,1.7-2,1.2-3.7-0.1
				c-1.4-1.2-3.4-1.7-4.8-3.1c-1.3-1.3-2.4-2.8-3.3-4.4c-1.9-3.5-1.1-7.2-1-10.9C179.9,143.5,176.9,143.5,176.9,145.4L176.9,145.4z"
				/>
		</g>
	</g>
	<g class="st1">
		<g>
			<path d="M240.8,150.5c-0.2-1,1.2-0.1,1.4,0.2c0.4,0.4,0.5,0.8,0.8,1.3c0.6,1,1.1,1.6,1.9,2.5c1.9,2.1,1.2,4.8,1.1,7.4
				c0,1.9,3,1.9,3,0c0.1-2.4,0.7-5.3-0.4-7.6c-0.5-1.1-1.5-1.7-2.2-2.6c-0.7-0.9-1.1-2.1-1.8-3c-2.5-2.9-7.6-1.7-6.7,2.6
				C238.3,153.2,241.2,152.4,240.8,150.5L240.8,150.5z"/>
		</g>
	</g>
	<g class="st1">
		<g>
			<path d="M108,88.8c10.5,0,21,0,31.5,0c8.6,0,17.3,0.5,25.8-0.7c9.8-1.5,20.3-0.7,30.2-0.7c10.3,0.1,20.6,0.3,30.9,0.3
				c1.9,0,1.9-3,0-3c-10.3,0-20.6-0.2-30.9-0.3c-9.5-0.1-19.4-0.8-28.9,0.4c-19.2,2.4-39.2,1-58.6,1C106.1,85.8,106.1,88.8,108,88.8
				L108,88.8z"/>
		</g>
	</g>
	<g class="st1">
		<g>
			<path d="M108.8,86.9c-0.3,0.1-0.6,0.1-1,0.2c-0.5,0.1-0.9,0.6-1,1c-2.9,11,11,18,19.8,19c5.2,0.6,9.5-1,13.6-4.2
				c2.5-1.9,4.8-4.1,6-7.1c0.5-1.2,1.3-9.4,1-9.3c1.9-0.4,1.1-3.3-0.8-2.9c-0.3,0.1-0.6,0.1-1,0.2c-0.5,0.1-1,0.6-1,1
				c-0.9,5.3,0.4,9.7-3.9,14c-2.9,2.9-6.7,5.2-10.9,5.4c-3.8,0.2-8.6-1-12-2.7c-2-1.1-3.5-2.5-4.9-4.3c-0.4-0.5-5.2-7-3-7.4
				C111.5,89.5,110.7,86.6,108.8,86.9L108.8,86.9z"/>
		</g>
	</g>
	<g class="st1">
		<g>
			<path d="M189.3,89.5c0-0.2,0-0.5,0-0.7c-1,0-2,0-3,0c0.7,14.1,14.7,20.4,27.3,18.6c5.6-0.8,12.3-7.1,14.8-12.1
				c0.9-1.7,1.1-4,0.9-5.9c-0.3-3-2.6-4.6-3.9-7.2c-0.9-1.7-3.5-0.2-2.6,1.5c1.7,3.3,4.7,6.3,3.1,9.8c-1.8,4.2-8.5,10.2-12.9,10.8
				c-10.6,1.5-23.1-3.4-23.7-15.6c-0.1-1.9-3-1.9-3,0c0,0.2,0,0.5,0,0.7C186.3,91.4,189.3,91.4,189.3,89.5L189.3,89.5z"/>
		</g>
	</g>
	<g class="st1">
		<g>
			<path d="M101.9,146.1c-0.1,0.3-0.1,0.6-0.2,0.9c0.5-0.4,1-0.7,1.4-1.1c-0.3,0-0.5,0.1-0.8,0.1c0.5,0.6,1,1.3,1.4,1.9
				c0.6-1.8,3.8-3.8,5.2-5c1.9-1.6,3.9-3.2,5.9-4.7c5.3-4.1,10.7-5,16.9-6.7c1.9-0.5,1.1-3.4-0.8-2.9c-3.7,1-7.6,1.7-11.2,3
				c-3.1,1.1-5.3,3.1-7.9,5.1c-3.4,2.6-9.7,6.1-11,10.4c-0.3,0.9,0.5,2,1.4,1.9c0.3,0,0.5-0.1,0.8-0.1c0.6-0.1,1.3-0.4,1.4-1.1
				c0.1-0.3,0.1-0.6,0.2-0.9C105.2,145,102.3,144.2,101.9,146.1L101.9,146.1z"/>
		</g>
	</g>
	<g class="st1">
		<g>
			<path d="M126.8,132.7c3.9-0.3,8-1.3,11.9-1.1c4,0.2,8.4,1.6,12.2,2.7c6.2,1.7,14.1,6.8,15.3,13.6c0.3-0.6,0.7-1.2,1-1.8
				c-0.3,0.1-0.7,0.1-1,0.2c-1.9,0.3-1.1,3.2,0.8,2.9c0.3-0.1,0.7-0.1,1-0.2c0.8-0.2,1.2-1.1,1-1.8c-1.3-6.8-8.2-11.9-14.1-14.5
				c-4-1.8-9.1-2.8-13.4-3.6c-4.9-0.9-9.9,0.3-14.8,0.7C124.9,129.8,124.9,132.8,126.8,132.7L126.8,132.7z"/>
		</g>
	</g>
	<g class="st1">
		<g>
			<path d="M182.2,150.9c-0.1-4.9,7.5-10,11.2-11.9c5.3-2.7,11.6-4.5,17.5-4.3c9.2,0.2,25.7-4.4,25.7,9.6c0,1.9,3,1.9,3,0
				c0-6.2-2.2-9.9-8.2-12.3c-6.5-2.6-13.8-0.2-20.5-0.3c-7.3-0.1-15,2.2-21.3,6c-4.3,2.6-10.5,7.7-10.4,13.2
				C179.3,152.8,182.3,152.8,182.2,150.9L182.2,150.9z"/>
		</g>
	</g>
	<g class="st1">
		<g>
			<path d="M213.9,44.5c0-2.9,3.1-6.7,4.4-9.2c1.2-2.3,2.2-4.6,3.2-7c1.1-2.7,2.7-5.1,4.1-7.6c1.5-2.7,2.3-5.6,4.3-8
				c1.3-1.4-0.8-3.6-2.1-2.1c-2,2.2-2.9,4.8-4.2,7.4c-1.4,2.8-3.1,5.3-4.4,8.2c-1.7,3.9-3.3,7.6-5.4,11.3c-1.4,2.4-2.8,4.2-2.8,7.1
				C210.9,46.5,213.9,46.5,213.9,44.5L213.9,44.5z"/>
		</g>
	</g>
	<g class="st1">
		<g>
			<path d="M219.8,46.4c1.4,0.4,6-15.6,6.3-16.5c1.7-4.4,3.6-7.5,6.3-11.3c1.5-2.1,1.6-5,3.2-6.9c1.2-1.5-0.9-3.6-2.1-2.1
				c-1.2,1.4-1.4,2.4-2,4.1c-0.9,2.4-2.4,4-3.8,6c-2.9,4.1-4.8,9.6-6.3,14.4c-0.8,2.7-1.3,5.3-2.6,7.8c-0.6,1.1-1.4,2.1-1.7,3.3
				c-0.6,2.1-0.3,3.6,1.8,4.3C220.8,49.9,221.6,47,219.8,46.4L219.8,46.4z"/>
		</g>
	</g>
	<g class="st1">
		<g>
			<path d="M235.4,11.8c2-1.3,5-0.8,7.3-1.3c3-0.6,5.9-0.4,8.9-0.7c2.6-0.3,5-1.1,7.6-1.1c2.9-0.1,5.6,0.2,8.5-0.2
				c0.9-0.1,1.2-1.1,1-1.8c-0.3-1.9-2.1-5.1-3.8-6c-3.4-1.8-8.2,0.4-11.4,1.2c-4.7,1.2-9.3,1.5-14.1,2.2c-3.7,0.6-7.7,0.6-10.6,3.1
				c-1.5,1.3,0.7,3.4,2.1,2.1c2.3-2,6.3-1.9,9.3-2.4c3.1-0.4,6-0.6,9.1-1.2c4.8-1.1,15.3-6.1,16.5,1.7c0.3-0.6,0.7-1.2,1-1.8
				c-3.3,0.5-6.5-0.1-9.7,0.2c-3.4,0.4-6.7,1-10.2,1c-2.7,0-5.1,1-7.8,1.1c-2.2,0.1-3.5,0-5.4,1.3C232.3,10.3,233.8,12.9,235.4,11.8
				L235.4,11.8z"/>
		</g>
	</g>
	<g class="st1">
		<g>
			<path d="M128.1,52.5c-3-5.3-7.5-9.7-10.2-15.3c-2.7-5.7-5.7-12.3-7.2-18.4c-0.5-1.9-3.4-1.1-2.9,0.8c1.5,6,4.4,11.9,6.9,17.6
				c2.7,6.2,7.5,10.9,10.9,16.7C126.5,55.7,129,54.2,128.1,52.5L128.1,52.5z"/>
		</g>
	</g>
	<g class="st1">
		<g>
			<path d="M130.6,47.8c0.1-2.6-1.5-4.6-2.9-6.7c-2.7-4-4.9-8.6-6.6-13.1c-1.4-3.8-2.6-7.6-4.3-11.3c-1.1-2.4-1.8-7.4-4.1-9.2
				c-2-1.6-4.4-0.6-6.6,0c-4.4,1.1-9.7,1.7-14.3,1.7c-5.1,0-10.2-0.6-15.3,0c-4.8,0.6-9.4,1.7-14.2,2.2c-0.7,0.1-1.6,0.6-1.5,1.5
				c0.4,3,3.1,5.2,5.5,6.8c3,1.9,6.1,0.1,9.5-0.4c11.4-1.7,22.9-1.7,34.5-1.7c1.9,0,1.9-3,0-3c-4.6,0-9.2,0.1-13.8-0.1
				c-3.6-0.1-6.6,0.6-10.2,1c-4.3,0.5-8.7,0.3-13,1.1c-2.4,0.5-3.7,1.5-5.9,0c-1.1-0.7-3.4-2.4-3.6-3.8c-0.5,0.5-1,1-1.5,1.5
				c8.1-0.9,15.8-2.5,23.9-2.4c3.8,0.1,7.6,0.2,11.4-0.3c3-0.4,6.9-1.7,9.8-1.7c4.7,0.1,4.7,3.9,6.2,7.2c1.9,4,3.2,8.1,4.8,12.2
				c1.3,3.4,2.9,6.6,4.6,9.8c1.3,2.5,4.6,5.6,4.4,8.4C127.5,49.7,130.5,49.7,130.6,47.8L130.6,47.8z"/>
		</g>
	</g>
	<g class="st1">
		<g>
			<path d="M17.8,188.6c42.8,0,85.6,0,128.3,0c21.2,0,42.4-0.1,63.6,0c4.3,0,8.6,0.6,12.8,0.2c4.3-0.4,8.4-1.4,12.8-1.3
				c5,0,10.2,0.3,15.2,0c4.5-0.3,8.7-1.3,13.3-1.1c4.6,0.2,8.8-1.4,13.4-1.2c5.4,0.2,10.4,0.1,15.7-0.6c5.4-0.7,10.7-2.1,16.2-2.4
				c5.9-0.4,11.8-0.1,17.7-0.1c1.9,0,1.9-3,0-3c-0.3,0-0.5,0-0.8,0c-1.9,0-1.9,3,0,3c0.3,0,0.5,0,0.8,0c0-1,0-2,0-3
				c-9.6,0-18.9-0.1-28.3,1.6c-5,0.9-10.3,1.7-15.4,1.7c-4.2,0-8.2-0.4-12.4,0.4c-4.3,0.9-8.4,0.1-12.7,0.6
				c-4.8,0.5-9.3,1.1-14.1,1.1c-4.7,0-9.5-0.3-14.2,0.1c-4.6,0.4-8.7,1.5-13.4,1.2c-20.7-1-41.6-0.2-62.3-0.2c-21.4,0-42.8,0-64.2,0
				c-24,0-48,0-72.1,0C15.8,185.6,15.8,188.6,17.8,188.6L17.8,188.6z"/>
		</g>
	</g>
	<g class="st1">
		<g>
			<path d="M13.9,188.2c0,9.9,0.1,19.7,0,29.6c0,4.4,0.1,8.8,0.6,13.2c0.4,3.6,1.6,6.9,1.9,10.4c0.7,8.4,2.9,17.3,4.4,25.7
				c1.5,8.3,3.6,17,3.5,25.4c-0.1,3.8,1.6,7.1,1.6,11c-0.1,4-0.4,7.9-0.1,11.9c0.3,4.4,0.9,8.8,0.9,13.2c0,4.4,0.8,8.5,1.1,12.8
				c0.6,7.6,2.6,15.3,2.5,22.9c-0.1,9,0.9,17.8,1,26.8c0,1.9,3,1.9,3,0c-0.1-9-1.1-17.8-1-26.8c0.1-7.4-1.8-14.7-2.5-22
				c-0.4-4.6-1.1-9-1.2-13.7c0-4.4-0.6-8.8-0.9-13.2c-0.3-4,0-7.9,0.1-11.9c0.1-3.9-1.5-7.2-1.6-11c-0.3-16.7-5.6-33.2-7.8-49.7
				c-1.1-8.4-2.7-16.4-2.7-25c0-9.9,0-19.7,0-29.6C16.9,186.2,13.9,186.2,13.9,188.2L13.9,188.2z"/>
		</g>
	</g>
	<g class="st1">
		<g>
			<path d="M32.6,391.4c3.9,1.5,7.9,1.3,12,1.3c5,0.1,10.1,0,15.1-0.1c4.5-0.1,9-1,13.5-1.1c4.8-0.1,9.6-0.2,14.4-0.6
				c4.8-0.3,9.5-0.7,14.3-0.8c5,0,10,0.6,15,0.1c9.5-0.9,18.8-1.2,28.3-1.2c9.7,0,19.9,1.1,29.5,0.2c1.8-0.2,3.6-1.2,5.4-1.3
				c2-0.1,3.5,0.1,5.5-0.2c4.8-0.8,9.8-1.5,14.6-1.8c9-0.6,18.1,0,27.1-0.8c10.2-1,20.7-0.5,31-0.5c11.5,0,23,0,34.4,0.1
				c5.6,0,11.1,0,16.7,0c5.5,0,11.6-0.8,17,0.4c1.9,0.4,2.7-2.5,0.8-2.9c-8.4-1.9-18.1-0.5-26.6-0.6c-9.8,0-19.7-0.1-29.5-0.1
				c-10.2,0-20.3,0-30.5,0.1c-9.7,0.1-19.3,1.1-29,1.1c-8.8,0-17.3,0.7-26,1.9c-2.4,0.3-4.9-0.2-7.3,0.2c-2.3,0.4-2.9,1.1-5.8,1.3
				c-5.1,0.3-10.5-0.1-15.6-0.2c-9.8-0.1-19.5-0.1-29.3,0.1c-4.5,0.1-9,1-13.5,1.1c-4.7,0.1-9.3-0.3-14-0.2
				c-5.8,0.2-11.5,0.8-17.3,1.1c-4.8,0.3-9.8-0.2-14.6,0.4c-5.7,0.8-11.2,1-16.9,1c-5.7,0-12.6,0.8-17.9-1.3
				C31.6,387.8,30.8,390.7,32.6,391.4L32.6,391.4z"/>
		</g>
	</g>
	<g class="st1">
		<g>
			<path d="M331.1,180.5c0-0.6,0-1.1,0-1.7c-1,0-2,0-3,0c0,2.4,0.3,4.9-0.2,7.2c-0.4,1.6-1.1,2.8-1.1,4.6c-0.1,2.5-0.1,4.3-0.7,6.8
				c-0.4,2-0.4,3.8-0.4,5.8c0,2.9,0.2,5.5-0.4,8.3c-0.4,1.7-0.8,3.1-0.9,4.8c-0.2,4.7,0.6,9.2-0.3,13.9c-1.6,8-0.7,16.5-0.7,24.7
				c0,5.1,0,10.2,0,15.3c0,4.3,0.7,9.2-0.3,13.4c-1,4-0.6,7.2-0.6,11.2c0,4-1.5,7.8-1.5,11.9c0,9.7,0,19.3,0,29
				c0,9.7-0.3,19.5,0,29.3c0.1,3.9,1.6,7.4,1.5,11.4c-0.1,2.2-0.4,4.4-0.1,6.6c0.3,2.7,1.4,4.9,0.8,7.7c0.6-0.3,1.2-0.7,1.8-1
				c0,0,0.1,0,0.1,0c-0.3-1.9-3.2-1.1-2.9,0.8c0,0.3,0.1,0.6,0.1,0.9c0.1,0.5,0.6,1,1,1c0.3,0,0.5,0.1,0.8,0.1
				c0.7,0.1,1.7-0.2,1.8-1c0.8-4-0.8-7.7-0.8-11.7c0-4,0.2-7.3-0.8-11.1c-1.1-4.2-0.4-9.1-0.4-13.5c0-5.1,0-10.3,0-15.4
				c0-10.5,0.1-21,0-31.5c0-4.1,1.1-7.8,1.4-11.8c0.2-2.1-0.3-4.3-0.3-6.4c0-2.6,0.8-4.6,1.3-7.1c0.6-3.5,0-7.5,0-11
				c0-5,0-10.1,0-15.1c0-5,0.1-9.9-0.1-14.9c-0.2-4.9,0.7-9.1,1.2-13.8c0.4-3.9-0.4-7.9-0.2-11.8c0.1-2.1,0.9-3.8,1.2-5.8
				c0.4-2.4,0.1-4.8,0.1-7.3c0-2.9,0.8-5.2,1.2-8c0.3-1.6-0.2-3-0.2-4.6c0.1-2,1.1-3.7,1.4-5.7c0.3-2,0-4.1,0-6.1c0-1.9-3-1.9-3,0
				c0,0.6,0,1.1,0,1.7C328.1,182.4,331.1,182.4,331.1,180.5L331.1,180.5z"/>
		</g>
	</g>
	<g class="st1">
		<g>
			<path d="M14.3,214.1c-5.9,0.1-16.1,3.1-14,11.2c1.3,4.8,4.2,9.9,7,14c2.6,3.8,5.2,7.8,7.9,11.5c2.3,3.1,4.3,5.4,7.1,8.3
				c3.3,3.3,6.8,5.4,10.7,8c3,2,5.8,3.7,7.7,6.8c0.9,1.4,1.8,2.9,2.8,4.2c2.8,3.5,6.3,6.5,10.1,8.7c0.8,0.4,1.6,0.1,2.1-0.5
				c4-5.2,4.7-11.9,3.2-18.1c-0.1-0.5-0.6-0.9-1-1c-2.6-0.6-7.1-0.3-9.1-2c-1.8-1.5-3-5.7-2.6-8.1c0.3-1.8,1.3-3.5,2.2-5.1
				c0.7-1.2-0.4-2.5-1.7-2.2c-7.1,1.6-15.9-4-18.3-10.6c-0.8-2.1-0.9-2.8-3.5-3.1c-2.3-0.2-4.8,0.3-6.9-1c-2.7-1.7-3.3-5-3.4-7.9
				c-0.1-1.7-0.1-3-0.6-4.5c-0.3-0.8-3.6-3,0-3.5c0.7-0.1,1.3-0.4,1.4-1.1c0.1-0.3,0.2-0.6,0.2-0.9c0.5-1.9-2.4-2.7-2.9-0.8
				c-0.1,0.3-0.2,0.6-0.2,0.9c0.5-0.4,1-0.7,1.4-1.1c-2.1,0.2-4,1.4-4.5,3.7c-0.6,2.2,0.9,2.9,1.6,4.6c1,2.3,0.4,5.8,1.5,8.6
				c0.9,2.1,2.2,3.8,4.2,4.9c1,0.5,2.1,0.8,3.3,1c1.3,0.2,3.8-0.4,4.8,0.2c0.8,0.5,1.5,4.2,2.8,5.6c4.8,5.4,12.5,9.5,19.8,7.9
				c-0.6-0.7-1.1-1.5-1.7-2.2c-0.8,1.4-2,2.3-2.4,3.9c-0.4,1.6-0.1,3.3-0.1,5c0.1,3.3,0.6,5.9,3.5,7.9c2.4,1.7,8.1,1,9.6,2.9
				c1,1.3,0.3,6.1,0,7.5c-0.5,2.6-1.6,4.9-3.2,7c0.7-0.2,1.4-0.4,2.1-0.5c-3.3-1.8-6.2-4.3-8.6-7.1c-2.1-2.4-3.3-5.5-5.5-7.8
				c-2.4-2.4-5.7-4.3-8.5-6.1c-3.7-2.3-6.7-4.7-9.6-7.9c-4.5-4.7-8.1-10.7-12-16.1c-2.5-3.4-4.4-7-6.1-10.9
				c-1.7-3.8-2.1-7.2,2.1-9.7c2.3-1.4,4.9-1.3,7.4-1.4C16.2,217.1,16.2,214.1,14.3,214.1L14.3,214.1z"/>
		</g>
	</g>
	<g class="st1">
		<g>
			<path d="M23.2,310.6c-3.8,0.9-8,4.1-9.2,8c-1.4,4.6,2.2,8.6,4.8,12c3.7,4.8,8,8.3,13.1,11.6c5.8,3.7,10,8.1,15,12.8
				c3.8,3.6,8.4,6.1,13.6,7.3c2.5,0.6,8.2,1.9,10.5,0.2c2.3-1.8,0.9-4.3-0.8-5.9c-1.3-1.3-3-2.1-4.7-2.9c-4.1-1.9-5.8-3.8-6.4-8.5
				c-0.1-0.6-0.4-1.3-1.1-1.4c-1.2-0.3-2.5-0.3-3.7-0.6c-3.6-0.9-5.1-2.9-4.2-6.5c0.4-1.8,1.7-3.5,0.3-5.2c-1-1.3-2.5-1.1-4-1.2
				c-2.8-0.3-12-4.2-10.2-8.6c-1-0.1-2-0.3-2.9-0.4c0.2,1.8-5.5-2.6-5.8-2.9c-2.2-2.1-3.4-4.1-3.3-7.3c0.1-1.9-2.9-1.9-3,0
				c-0.2,5.2,2.9,10.1,7.6,12.7c2.6,1.4,7.9,1.7,7.5-2.4c-0.2-1.7-2.3-2-2.9-0.4c-1.4,3.5,0.1,5.9,3,7.9c1.9,1.3,4.1,3,6.1,3.9
				c1.2,0.5,3,0.1,4,0.6c2.2,1.2-0.5,7.7,1.6,10.4c2.2,2.7,6.2,2.3,9.3,3c-0.4-0.5-0.7-1-1.1-1.4c0.4,2.7,0.6,5.7,2.4,8
				c1.9,2.3,4.8,2.6,7.3,4c0.8,0.5,1.6,1,2.3,1.6c0.6,1.3,0.3,1.7-0.9,1.4c-0.6,0.3-4.4-0.4-4.3-0.4c-4.9-0.8-9.5-2.9-13.2-6.2
				c-3.2-2.8-5.7-6.3-9.1-8.9c-2.7-2.1-5.6-3.9-8.4-5.7c-4.6-3.1-8.3-6.6-11.6-11c-1.9-2.6-4.8-5.8-2.8-9.5c1.2-2.3,4-4.1,6.5-4.7
				C25.9,313.1,25.1,310.2,23.2,310.6L23.2,310.6z"/>
		</g>
	</g>
	<g class="st1">
		<g>
			<path d="M334.4,228.4c0.4-0.5,0.7-1,1.1-1.4c-0.7-0.7-1.4-1.4-2.1-2.1c-3.7,3.3-5.9,8.8-8.9,12.8c-3.8,5-8.8,9-13.5,13.1
				c-2.4,2-4.8,4-7.6,5.4c-2.8,1.4-5.8,2.1-8.6,3.6c-6.1,3.4-12.2,5-19.1,4.8c-1.9,0-1.9,3,0,3c6.2,0.1,12.5-0.8,18.2-3.6
				c3.1-1.6,6-3,9.2-4.4c2.6-1.1,5-2.7,7.3-4.4c4.7-3.6,9.5-7.7,13.5-12c2-2.2,3.7-4.6,5.4-7.1c1.9-2.8,3.6-6.7,6.2-9
				c1.5-1.3-0.7-3.4-2.1-2.1c-1,0.9-1,0.8-1.5,2.1C331.1,228.6,333.6,230.2,334.4,228.4L334.4,228.4z"/>
		</g>
	</g>
	<g class="st1">
		<g>
			<path d="M275.7,265.6c-2.4,0.1-6.3-1.9-3.3-3.8c1-0.6,2.3-0.8,3.3-1.5c2.4-1.7,3.2-3.1,6.5-3.7c2.2-0.4,4.4-0.9,6.7-1.3
				c0.5-0.1,1-0.6,1-1c0.6-3,0-5.9,0.3-8.9c-0.4,0.5-0.7,1-1.1,1.4c3.4-0.8,6.9,1.5,10.3,2c2.7,0.4,5.9,0.3,8.5-0.7
				c2.1-0.8,3.6-2.1,4.5-4.1c0.7-1.5,0.5-3.4,1.2-4.9c2.3-4.9,7.2-3.3,10.7-2.3c0.6,0.2,1.4-0.1,1.7-0.7c0.8-1.8,1-3.4,1.2-5.3
				c0.2-1.7,0.2-3.2,1.6-4.3c2.4-1.9,4.5,0.1,3,2.7c-1,1.7,1.6,3.2,2.6,1.5c2.4-4.3,1.6-8.7-4.4-7.9c-6.6,0.9-4.7,7.3-6.7,11.8
				c0.6-0.2,1.1-0.5,1.7-0.7c-3.3-0.9-6.7-1.7-10-0.3c-3.5,1.5-3.9,3.9-4.9,7.2c-3.5,10.8-14.6,1.5-21.8,3.2c-0.7,0.2-1,0.8-1.1,1.4
				c-0.3,2.5,0.8,6.2-1.6,7.7c-2.1,1.2-4.7,0-6.8,0.8c-1,0.4-1.7,1.1-2.5,1.8c-2.2,2-3.8,3.2-6.7,3.7c-0.5,0.1-1,0.6-1,1
				c-1.2,6.3,1.1,8.5,7.2,8.3C277.6,268.6,277.6,265.6,275.7,265.6L275.7,265.6z"/>
		</g>
	</g>
	<g class="st1">
		<g>
			<path d="M330.7,348.2c0.3-0.3,0.5-0.6,0.8-1c0.9-1.2,0.1-2.8-1.5-2.5c-4.8,1-8.6,5.8-12.6,8.3c-6.2,4-13.6,6.5-20.4,9.4
				c-6.6,2.8-12.3,3.5-19.4,2.5c-2.9-0.4-4.3-3-2.7-5.8c1.4-2.3,4.4-3,6.9-3.1c3.2-0.1,6.1,0.5,9.3,0.1c0.5-0.1,0.9-0.6,1-1
				c0.8-3,0.1-5.2,3.9-5.4c3.6-0.2,6.8,1.7,10.5,1.1c2.4-0.4,3.8-1.3,5.3-3.1c0.8-0.9,1.3-2,2.2-2.8c2.5-2.3,4.9-1.7,7.7-1.5
				c1.7,0.1,3.5,0.3,4.9-0.9c1.8-1.5,2.2-7.6,6.7-4.2c4.3,3.3-2.9,6.3-4.7,7.9c-1.3,1.1-2.3,2.2-2.8,3.9c-0.6,1.8,2.3,2.6,2.9,0.8
				c1.5-4.4,8.9-4.8,9.3-10.1c0.3-3.8-4.2-6.7-7.7-6.2c-2,0.3-3,1.4-4.1,2.8c-1.1,1.4-0.2,1.4-2.2,2.4c-2.1,1-4.2,0.2-6.4,0.4
				c-2.5,0.2-4.3,1.2-5.9,3c-0.9,1-1.5,2.2-2.4,3.1c-2.7,2.4-6.2,1.4-9.3,0.9c-3.7-0.6-8.5-1.5-9.8,2.9c-0.2,0.7,0,2.7-0.5,3.1
				c-1.1,1-4.7,0-6.1-0.1c-3.1-0.2-5.9,0.1-8.5,1.9c-3.1,2.1-6.2,7.1-3.4,10.6c2.5,3.1,9.6,3,13.2,3c8.6,0.1,16.9-5.1,24.6-8.3
				c4-1.7,7.8-3.5,11.4-6c3-2.1,6.5-6,10-6.8c-0.5-0.8-1-1.7-1.5-2.5c-0.3,0.3-0.5,0.6-0.8,1C327.3,347.6,329.5,349.7,330.7,348.2
				L330.7,348.2z"/>
		</g>
	</g>
	<g class="st1">
		<g>
			<path d="M96.3,114.3c-2.6-0.1-4.1,1.3-5.8,3.1c-2.9,3.2-5.9,6.4-8.7,9.6c-5.6,6.4-11.2,13.1-15.9,20.1c-4.3,6.3-9.7,13-12.4,20.2
				c-1.5,4.1-0.6,7.7-0.6,11.9c0,2.8-1.2,8.5-4.1,9.8c-1.7,0.8-0.2,3.4,1.5,2.6c3.3-1.6,5.3-7.4,5.6-10.7c0.4-4.9-1.2-9.1,1-13.9
				c1.5-3.3,3.7-6.5,5.6-9.5c4.9-7.4,10.1-14.5,15.7-21.4c2.6-3.3,5.3-6.5,8.2-9.6c1.9-2.1,6.7-9.3,10-9.2
				C98.2,117.3,98.2,114.3,96.3,114.3L96.3,114.3z"/>
		</g>
	</g>
	<g class="st1">
		<g>
			<path d="M245.1,101.2c1.2,2.6,4.3,4.8,6.3,6.9c3.1,3.2,6.6,5.8,10.1,8.7c7.3,6,12.7,13.6,17.9,21.5c2.7,4,4.8,7.8,6,12.5
				c1.1,4.3,1.7,8.8,2.7,13.1c2.2,9.6,6.6,18.8,7.3,28.7c0.1,1.9,3.1,1.9,3,0c-0.7-9.6-4.7-18.5-7-27.8c-2.2-8.7-2.6-17.7-7.6-25.3
				c-4.8-7.2-9.6-14.7-15.7-20.8c-3.4-3.4-7.4-6.1-11-9.3c-1.8-1.6-3.4-3.3-5-5c-1.3-1.4-3.4-2.9-4.2-4.6
				C246.8,97.9,244.3,99.5,245.1,101.2L245.1,101.2z"/>
		</g>
	</g>
	<g class="st1">
		<g>
			<path d="M55,392.1c0,3.2,2.3,4.8,4.3,7.1c2.7,3.2,4.6,6.7,7.9,9.3c6.8,5.5,15.2,8.8,23.3,11.7c9.4,3.3,19.2,5.4,28.5,8.9
				c4.6,1.7,9.1,2,13.9,2.7c4.7,0.7,9,1.7,13.8,1.6c10.4-0.4,20.8-0.3,31.2-0.3c4.7,0,9.5,0.2,14.1-0.3c5-0.6,9.6-0.5,14.6-0.7
				c2.1-0.1,3.8-0.6,5.9-1c2.1-0.3,4.1,0.1,6.3-0.1c4.7-0.4,9.6-1.9,14.2-2.7c8.9-1.6,17.6-5.3,25.8-9.2c4.4-2.1,8.7-3.7,12.6-6.8
				c3.9-3.2,7.3-7,10.5-10.9c3.1-3.7,5.3-7.4,7.6-11.6c1.8-3.3,5.2-5.6,5.3-9.6c0-0.9-0.7-1.4-1.5-1.5c-0.4,0-0.7-0.1-1.1-0.1
				c-1.9-0.2-1.9,2.8,0,3c0.4,0,0.7,0.1,1.1,0.1c-0.5-0.5-1-1-1.5-1.5c-0.1,3-4.1,6.6-5.5,9.4c-2.1,4.3-5,8-8.2,11.7
				c-2.4,2.8-4.8,5.5-7.6,7.9c-3.6,3-7.3,4.6-11.5,6.5c-8,3.7-16.3,7.5-25,9.3c-4.1,0.9-8.2,1.5-12.2,2.4c-3.7,0.8-7.4,0.3-11.1,1
				c-4.4,0.8-8.6,0.1-13.1,0.4c-4.2,0.3-8.2,1.2-12.4,1.2c-9.4,0.1-18.7,0-28.1,0c-4,0-8.1,0.3-12.1,0.3c-4.4,0-8.5-1.2-12.8-1.7
				c-9.1-1.2-17.5-4.3-26.3-6.6c-9.8-2.5-20-6-28.8-10.9c-3.8-2.2-7.8-4.2-10.7-7.6c-1.5-1.7-2.5-3.6-3.9-5.4
				c-1.3-1.7-4.3-3.8-4.4-6.1C57.9,390.2,54.9,390.2,55,392.1L55,392.1z"/>
		</g>
	</g>
	<g class="st1">
		<g>
			<path d="M67.8,408.2c-9.5,1.7-10.4,13.1-9.3,20.9c0.8,5.7,2.9,11.5,6.3,16.2c1.7,2.2,3.6,5,6.1,6.3c1.4,0.8,5.9,0.7,6.4,2.3
				c0.6,1.8,3.5,1,2.9-0.8c-1-3.1-3.9-2.8-6.6-3.7c-5.5-1.8-9.2-9.7-10.8-14.7c-2.2-7-4.2-21.8,5.8-23.6
				C70.5,410.8,69.7,407.9,67.8,408.2L67.8,408.2z"/>
		</g>
	</g>
	<g class="st1">
		<g>
			<path d="M87.7,418.1c-3.7,0.8-5.9,3.7-8,6.7c-2.5,3.5-1.9,6.5-2.7,10.6c-0.7,3.5,0.3,6.2,0.2,9.8c-0.1,4,0.6,6.7,3.6,9.5
				c0.4-0.9,0.7-1.7,1.1-2.6c-2.4-0.2-3.7,1.1-5.8,1.3c-1.4,0.1-3.6-1-5-1.4c-2.2-0.7-4.5-1.3-6.7-1.9c-5.9-1.5-12.7-2.7-18.6-0.8
				c-9.9,3.1-15.9,12.5-8.2,21.4c0.7,0.9,2.2,0.4,2.5-0.7c1.2-4.5,5.2-7.1,9.6-8.1c2.5-0.5,4.9-0.5,7.3,0.4c1.4,0.6,2.6,1.7,4,2
				c2,0.5,3.3,0,4.8-1.5c1.9-1.9,3.1-3.9,6.3-3.9c3.1,0,3.8,1.6,6,3c3.6,2.3,6.8,1.4,9.5-2c2.2-3,2.6-6.6-1.3-8.1
				c-1.8-0.7-2.6,2.2-0.8,2.9c2.3,0.9-0.7,4-1.4,4.6c-2.4,2-3.7,0-6-1.3c-1.5-0.9-2.6-1.7-4.5-2c-2.5-0.3-5.1,0.2-7.1,1.7
				c-0.8,0.6-1.2,1.6-2,2.1c-2,1.5-3.1,0.9-5.3,0.1c-8.1-3.3-19.4-0.1-21.8,9.2c0.8-0.2,1.7-0.4,2.5-0.7
				c-8.2-9.5,3.6-16.9,12.3-17.2c8.5-0.2,16.8,3.2,24.9,5.3c0.5,0.1,1.1,0,1.5-0.4c1.2-0.4,2.3-0.9,3.5-1.3c1.3,0.1,2-1.7,1.1-2.6
				c-3.2-3-2.5-5.6-2.6-9.4c-0.1-2.5-0.7-4.5-0.4-6.9c0.8-5.6,1.7-13.6,8.6-15.2C90.4,420.6,89.6,417.7,87.7,418.1L87.7,418.1z"/>
		</g>
	</g>
	<g class="st1">
		<g>
			<path d="M247.4,423.6c2.5,4.8,8,8,10.1,13.1c1.4,3.3,2.1,6.9,2.8,10.4c0.7,3.8,0.6,7.4,1.3,11.2c0.1,0.9,1.1,1.2,1.8,1
				c0.3,0,0.5-0.1,0.8-0.1c0.5-0.1,1-0.6,1-1c0-0.3,0.1-0.6,0.1-0.9c0.3-1.9-2.6-2.7-2.9-0.8c0,0,0.1,0,0.1,0c0.6,0.3,1.2,0.7,1.8,1
				c-0.7-4-0.7-8-1.4-12c-0.7-3.7-1.6-7.6-3.2-11.1c-2.1-4.8-7.5-7.7-9.8-12.3C249.1,420.4,246.5,421.9,247.4,423.6L247.4,423.6z"/>
		</g>
	</g>
	<g class="st1">
		<g>
			<path d="M267.6,415.1c5.3,5.8,6.7,15.2,6.6,22.7c-0.1,4.5-0.3,9.1-1.8,13.4c-0.9,2.7-3.4,7.4-6.4,8.5c0.6,0.6,1.2,1.2,1.8,1.8
				c1-3,7.4-5.3,10.1-6.8c5.8-3.2,12.3-3.9,18.8-4c5.5-0.1,10.9,0.2,16.2,2c3.2,1.1,6.9,2.8,8.6,5.9c1.2,2.2,1.5,4.8,2.8,7
				c0.3-0.7,0.6-1.5,0.9-2.2c-3,0.6-7.4-3.2-10.6-3.7c-1.5-0.2-3.2-0.5-4.7-0.1c-2,0.4-2,1.7-3.6,2.6c-1.5,0.9-3.5-0.3-5.2-0.9
				c-5.2-2-13.5-5.7-14.3,2.8c0.6-0.5,1.3-1,1.9-1.4c-2.7-0.8-6.6-3.6-9.5-2.7c-1,0.3-1.5,1.4-2.4,1.8c-1.4,0.7-6.4,0.3-6.9-2.1
				c-0.4-1.9-3.3-1.1-2.9,0.8c0.6,3.1,5.3,5.1,8.3,5.1c1.5,0,1.9-0.5,3.2-1.3c2-1.3,2.3-1.4,4.4-0.6c1.7,0.7,3.3,1.3,5,1.8
				c1,0.3,1.8-0.5,1.9-1.4c0.6-6.3,12.6,2,16.2,1.5c1-0.1,1.3-0.5,2.1-1c0.6-0.4,0.6-1.1,1.2-1.5c1.1-0.7,2.3-0.7,3.5-0.7
				c5,0.1,8.1,4.8,13.1,3.8c1-0.2,1.4-1.4,0.9-2.2c-1.6-2.7-1.8-5.9-3.8-8.5c-1.9-2.5-4.7-3.9-7.6-5.1c-6.7-2.8-13.6-3.1-20.7-2.8
				c-7.6,0.3-13.9,2-20.5,5.6c-3.3,1.8-8.1,3.5-9.4,7.4c-0.3,1,0.8,2.2,1.8,1.8c7.8-2.8,9.9-14.2,10.3-21.2c0.5-9.5-0.7-21-7.4-28.4
				C268.4,411.6,266.3,413.7,267.6,415.1L267.6,415.1z"/>
		</g>
	</g>
	<g class="st1">
		<g>
			<path d="M98.3,103.4c-4.7,1.3-8.9,5.3-12.9,8c-4.3,2.9-9.1,4.9-13.2,8.3c-4.7,3.8-9.6,7.8-14,11.9c-4,3.7-6.8,8.6-9.8,13
				c-3.4,4.9-6.3,10.1-9.4,15.2c-2.9,4.7-4.3,9-6,14.2c-1.7,5.1-2.5,10.5-3.6,15.7c-0.7,3.2-1.1,6.5,1.4,8.9c0.6,0.6,1.5,0.6,2.1,0
				c0.9-0.9,1.1-1.2,1.6-2.4c0.7-1.8-2.2-2.6-2.9-0.8c-0.3,0.4-0.5,0.7-0.8,1.1c0.7,0,1.4,0,2.1,0c-2.7-2.6,0.3-9.5,0.8-12.7
				c0.8-5.1,2.1-10.2,3.9-15c1.6-4.4,4.5-8.4,6.9-12.5c2.5-4.4,5.4-8.6,8.2-12.8c5.7-8.5,13.1-14.7,20.9-21.2
				c4.1-3.4,8.8-5.4,13.2-8.4c1.8-1.2,3.4-2.5,5.2-3.6c1.9-1.2,4.9-3.6,7-4.2C100.9,105.8,100.1,102.9,98.3,103.4L98.3,103.4z"/>
		</g>
	</g>
	<g class="st1">
		<g>
			<path d="M247.5,100.9c6,0.2,9.3,2.7,13.9,6.3c3.7,2.9,7.7,5.6,11,9c3.3,3.4,6.3,7.2,9.5,10.8c3.1,3.5,7,6.9,9,11.2
				c3.2,7.1,4.3,14.9,7.2,22.1c3.9,9.5,6.3,18.2,6.5,28.7c0,1.9,3,1.9,3,0c0-0.2,0-0.5,0-0.7c0-1.9-3-1.9-3,0c0,0.2,0,0.5,0,0.7
				c1,0,2,0,3,0c-0.2-10.6-2.6-19.9-6.6-29.6c-3.3-8.1-4-18.2-9.2-25.5c-2.8-4-6.5-7.5-9.7-11.1c-3.7-4.2-7.1-8.7-11.4-12.2
				c-7.1-5.7-13.7-12.4-23.2-12.6C245.6,97.8,245.6,100.8,247.5,100.9L247.5,100.9z"/>
		</g>
	</g>
	<g class="st1">
		<g>
			<path d="M47.2,391c8.4,6.7,13.9,18.6,25.3,21.2c1.9,0.4,2.7-2.5,0.8-2.9c-10.8-2.5-16-14.1-24-20.4
				C47.8,387.7,45.7,389.8,47.2,391L47.2,391z"/>
		</g>
	</g>
	<g class="st1">
		<g>
			<path d="M297.6,384.1c-6.3,2.4-9.7,8-13.7,13.2c-5.7,7.3-11.8,13.8-18.6,20.1c-1.4,1.3,0.7,3.4,2.1,2.1
				c6.2-5.7,11.3-11.6,16.8-17.9c4.4-5,7.6-12.2,14.2-14.6C300.1,386.3,299.4,383.4,297.6,384.1L297.6,384.1z"/>
		</g>
	</g>
	<g class="st1">
		<g>
			<path d="M201.2,201.7c14.1,0,28.1,0,42.2,0c0.5,0,0.5-0.8,0-0.8c-14.1,0-28.1,0-42.2,0C200.8,201,200.8,201.7,201.2,201.7
				L201.2,201.7z"/>
		</g>
	</g>
	<g class="st1">
		<g>
			<path d="M150,234.9c9,3.5,19.1,3.8,28.2,0.7c0.5-0.2,0.3-0.9-0.2-0.7c-9,3-18.9,2.7-27.8-0.7C149.8,234,149.6,234.7,150,234.9
				L150,234.9z"/>
		</g>
	</g>
	<g class="st1">
		<g>
			<path d="M108.2,218.1c5.2-2.9,11.4-4,17.3-3.2c0.5,0.1,0.7-0.7,0.2-0.7c-6.1-0.9-12.4,0.2-17.9,3.2
				C107.4,217.7,107.8,218.3,108.2,218.1L108.2,218.1z"/>
		</g>
	</g>
	<g class="st1">
		<g>
			<path d="M106.3,297.3c4.7,0.6,9.4,1.2,14.1,1.7c0.5,0.1,0.5-0.7,0-0.8c-4.7-0.6-9.4-1.2-14.1-1.7
				C105.8,296.4,105.8,297.2,106.3,297.3L106.3,297.3z"/>
		</g>
	</g>
	<g class="st1">
		<g>
			<path d="M167.7,359.7c6.9,1.7,14.1,2.2,21.2,1.6c0.5,0,0.5-0.8,0-0.8c-7,0.6-14.1,0.1-21-1.5
				C167.4,358.8,167.2,359.5,167.7,359.7L167.7,359.7z"/>
		</g>
	</g>
	<g class="st1">
		<g>
			<path d="M280.4,287.2c4.7,0,9.4,0,14.1,0c0.5,0,0.5-0.8,0-0.8c-4.7,0-9.4,0-14.1,0C279.9,286.5,279.9,287.2,280.4,287.2
				L280.4,287.2z"/>
		</g>
	</g>
	<g class="st1">
		<g>
			<path d="M234.6,347.9c4.8,0.9,9.8,0.6,14.4-1.1c0.5-0.2,0.3-0.9-0.2-0.7c-4.5,1.6-9.3,2-14,1.1
				C234.3,347.1,234.1,347.8,234.6,347.9L234.6,347.9z"/>
		</g>
	</g>
	<g class="st1">
		<g>
			<path d="M81.7,307c7,0,14.1,0,21.1,0c0.5,0,0.5-0.8,0-0.8c-7,0-14.1,0-21.1,0C81.2,306.2,81.2,307,81.7,307L81.7,307z"/>
		</g>
	</g>
	<g class="st1">
		<g>
			<path d="M113.3,382.6c6.5,0.4,13.1-0.2,19.4-1.9c0.5-0.1,0.3-0.8-0.2-0.7c-6.2,1.7-12.7,2.3-19.2,1.9
				C112.8,381.9,112.8,382.6,113.3,382.6L113.3,382.6z"/>
		</g>
	</g>
	<g class="st1">
		<g>
			<path class="st2" d="M186.3,62.7c3.2,0,6.4,0,9.7,0c0.5,0,0.5-0.8,0-0.8c-3.2,0-6.4,0-9.7,0C185.8,62,185.8,62.7,186.3,62.7
				L186.3,62.7z"/>
		</g>
	</g>
	<g class="st1">
		<g>
			<path class="st2" d="M215.3,72.6c2.3,0,4.7,0,7,0c0.5,0,0.5-0.8,0-0.8c-2.3,0-4.7,0-7,0C214.8,71.8,214.8,72.6,215.3,72.6
				L215.3,72.6z"/>
		</g>
	</g>
	<g class="st1">
		<g>
			<path d="M192.2,70.2c3.7,2.5,8.5,3.1,12.7,1.7c0.5-0.2,0.3-0.9-0.2-0.7c-4,1.4-8.6,0.8-12.2-1.6
				C192.1,69.3,191.8,69.9,192.2,70.2L192.2,70.2z"/>
		</g>
	</g>
	<g class="st1">
		<g>
			<path d="M164.3,55.3c2.1,0,4.1,0,6.2,0c0.5,0,0.5-0.8,0-0.8c-2.1,0-4.1,0-6.2,0C163.8,54.6,163.8,55.3,164.3,55.3L164.3,55.3z"/>
		</g>
	</g>
	<g class="st1">
		<g>
			<path d="M129,72.9c3.5,0.6,7.1,0.8,10.7,0.4c0.5,0,0.5-0.8,0-0.8c-3.5,0.4-7,0.2-10.5-0.4C128.7,72.1,128.5,72.8,129,72.9
				L129,72.9z"/>
		</g>
	</g>
	<g class="st1">
		<g>
			<path d="M166.1,126.7c2.2-0.8,4.6-1,6.9-0.6c0.5,0.1,0.7-0.6,0.2-0.7c-2.4-0.4-5-0.2-7.3,0.6
				C165.5,126.2,165.7,126.9,166.1,126.7L166.1,126.7z"/>
		</g>
	</g>
	<g class="st1">
		<g>
			<path d="M224.1,119.5c2.1,0,4.1,0,6.2,0c0.5,0,0.5-0.8,0-0.8c-2.1,0-4.1,0-6.2,0C223.6,118.7,223.6,119.5,224.1,119.5
				L224.1,119.5z"/>
		</g>
	</g>
</g>
<g id="tab_colour">
	<g>
		<path class="st3" d="M174.9,300.3c-0.1,0.1-0.1,0.1-0.2,0.2C174.7,300.4,174.8,300.3,174.9,300.3L174.9,300.3z"/>
		<path class="st3" d="M322.2,179.8c-0.8-0.2-1.6-0.2-2.4-0.1c-8.9,1.4-18.2,1.3-27.1,2.1c-4.3,0.4-8.5,0.8-12.8,1.3
			c-3.7,0.4-7.9,0.5-11.6,1.5c-10.6-0.1-21.3,0.8-31.8,1.1c-17,0.5-33.9,0.9-50.9,1.3c-29.2,0.6-58.4,0.9-87.6,1.1
			c-6.8-2.5-15.1-1.3-22.1-1.3c-6.5,0-13.1-0.4-19.7-0.1c-0.1-0.1-0.2-0.2-0.3-0.3c-2.3-2.4-5.4-2.1-8.4-1.8
			c-3.9,0.4-7.8,0.7-11.7,0.9c-2,0.1-3.9,0.2-5.9,0.3c-1,0-2,0.1-2.9,0.1c-0.5-0.1-0.9-0.1-1.3-0.1c-3.9-3.6-10.8,0.5-9.7,6.3
			c2.3,11.8,4,23.6,5.2,35.6c0.3,3.2,2.7,5.1,5.2,5.6c0.6,2.5,1.2,5.1,1.8,7.6c-0.9,0.6-1.6,1.5-2,2.5c-1,1.3-1.6,3.1-1.3,5
			c0.1,0.6,0.2,1.2,0.3,1.8c-0.2,0.6-0.3,1.3-0.3,2c0.4,20.6,2.3,41.1,5.6,61.4c-1.7,1.3-2.7,3.4-1.8,6c1.7,4.8,1.2,9.9,1,14.9
			c-0.2,5.8-0.3,11.7-0.5,17.5l-0.9,34c-0.1,5.4,5.7,7,9.3,4.8c33.9-0.3,67.8-2.1,101.6-5.3c0.6-0.1,1.1-0.2,1.6-0.4
			c21.3,0.1,42.5,0.4,63.8,0.9c10.3,1.4,20.4,1,30.7,0.8c22.6-0.6,45.3-0.3,67.9,0.8c2.5,0.1,5.1-0.5,7.4-1.6
			c2.1,0.8,4.6,0.9,6.8,0.2c1.1,0.1,2.3,0,3.4,0.2c2.6,0.4,4.5-1.9,3.3-4.3c-0.3-0.6-0.5-1.1-0.8-1.7c0.1-0.4,0.2-0.8,0.2-1.3
			c0-1.8-0.5-3.3-0.3-5.1c0.1-1.1-0.7-2.4-1.7-2.9c-0.1-0.1-0.2-0.1-0.3-0.1c0-0.5,0-0.9,0-1.4c0-0.5-0.1-1.1-0.1-1.6
			c0.5-1.6,0.7-3.3,0.7-5.1c-0.4-30.6,0.4-61.1,2.2-91.6c0.2-2.6-0.4-5.1-1.6-7.5c0.7-3.5,1.1-7.1,1.4-10.4
			c0.5-5.1,0.6-10.2,0.2-15.3c0,0,0,0,0,0c-0.1-2.6-0.5-5.3-1.5-7.7c-0.1-1.6-0.2-3.2-0.3-4.8c-0.1-1-0.1-2.1-0.2-3.1
			c0.2-0.4,0.3-0.8,0.4-1.4c0.7-4.3,1.7-8.2,1.8-12.3c0.7-3.2,1.3-6.3,1-9.5c-0.1-1.4-0.9-2.4-1.1-3.7c-0.2-1.1,0-2.1,0.3-3.3
			c0.3-1.4,0.7-2.8,1-4.2c0.8-1.2,1.1-2.4,1-3.6c0.1-0.4,0.2-0.8,0.4-1.2C327.9,180.6,324.4,178.4,322.2,179.8z M63.3,332.8
			c-2.3-2.6-4.6-5.2-6.7-7.8c-0.2-0.3-0.5-0.5-0.7-0.7c2.5-0.1,5-0.2,7.5-0.3c0.5,0.5,1.1,0.8,1.7,1.1c-1.5,2.2-1.4,5.6,0.4,7.7
			C64.7,332.8,64,332.8,63.3,332.8z"/>
	</g>
</g>
<g id="colour">
	<path class="st2" d="M201,96.2c4.3-1.8,4.3-7.9,0.9-10.4c0.9-1.4,1.3-3,0.7-4.7c-0.9-2.3-2.4-3.8-4.4-4.9c1.1-2,1.1-4.5,0-6.3
		c3.7-3.4,2.6-10.7-3.6-10.4c-4.6,0.2-9.2,0.5-13.8,0.7c-1-1.3-2.5-2.1-4.6-2c-12,0.7-23.9,1.7-35.9,2.9c-6.1,0.6-8.9,10.8-1.6,11.8
		c0.4,0.1,0.8,0.1,1.2,0.1c-0.2,1.2,0,2.4,0.5,3.5c-6.7,1.9-4.2,10.9,1.9,11.7c3.1,0.4,6.2,0.6,9.3,0.6c-1.2,3.5,1.5,8.3,5.7,8.2
		c1.5,0,2.9,0,4.4-0.1c-1.7,3.6,0,7.2,3.7,8.6c1.4,0.5,2.9,0.9,4.4,1.3c-2.4,2.2-2.8,6-0.3,8.7c2.7,3,6.3,4.4,10.3,4.3
		c3.8-0.2,5.7-3.1,5.8-6.1c3-1,5.9-2,8.8-3c4.7-1.7,9.1-4.4,8.9-10C203.2,99.1,202.4,97.3,201,96.2z"/>
	<path class="st4" d="M195.1,98.7c1.3-1.9,1.6-4.8,0.3-6.6c-1.3-1.7-2.7-2.9-4.2-3.7c0.4-1.8-0.1-3.8-1.1-5.3c3-1.7,3.3-6.2,1.5-9
		c0.5-0.7,0.9-1.6,1-2.5c4.6-3.4,2.5-10.6-3.3-10.9c-14.6-0.8-29.2,0.7-43.4,4.4c-4.1,1.1-5.1,5.4-3.6,8.8c0.7,1.5,1.6,2.5,2.8,3.3
		c0,1.1,0.2,2.1,0.8,3.2c0.2,0.3,0.4,0.6,0.6,0.9c-0.5,0.4-0.9,0.8-1.3,1.3c-2.7,3.3-2.1,8.9,2.6,10c2.8,0.7,5.7,1.1,8.6,1.3
		c0.7,1.6,1.9,3,3.8,3.5c1,0.3,1.9,0.5,2.9,0.7c-0.3,0.1-0.6,0.1-0.8,0.2c-4.1,0.9-5.1,5.3-3.6,8.6c-1.4,2.6-0.6,6.4,1.8,8.2
		c1.3,1.5,3.3,2.5,5.8,2.1c4.5-0.8,9-1.2,13.6-1.3c3.1,0,4.9-2,5.6-4.3c2.7-0.6,5.4-1.2,8.1-1.7C199,108.6,199,101.1,195.1,98.7z"/>
	<path class="st5" d="M210.7,99.7c-2.4-2-5.5-3.4-8.8-4.3c0.2-0.6,0.3-1.1,0.3-1.8c0-3.1-1.2-4.8-2.9-5.8c0.6-2.3-0.3-4.9-2.3-6.3
		c3.9-2.5,6.8-5.7,5.2-10.7c-0.7-2.3-3.1-4.7-5.8-4.4c-1.1,0.1-2.2,0.3-3.3,0.4c-1.1-1.2-2.6-2.1-4.3-2.3c-1.6-0.2-3.2-0.2-4.7-0.2
		c-1-1.1-2.4-1.7-4.3-1.5c-7.9,0.9-15.4,2.8-22.6,6c-1.3,0.4-2.5,0.7-3.8,1.1c-1.8,0.5-3,1.6-3.6,2.9c-2.8,2.4-2.6,7.3,0,9.5
		c-1.2,0.5-2.4,1-3.7,1.5c-7,2.7-4.4,13.7,3.2,11.6l2.2-0.6c-1.9,3.2-1.1,7.9,3.3,9c4.5,1.1,9,1.5,13.5,1.6
		c-0.1,0.3-0.1,0.6-0.2,0.9c-0.1,0.9,0,1.7,0.1,2.5c-4.6,2.2-5.5,10.1,0.6,11.3c10.7,2,21.5,1.8,32.3,1.3c4.2-0.2,6.1-3.5,5.7-6.6
		c2.2-0.9,4.2-2.2,5.5-4.1C214.8,107,213.9,102.5,210.7,99.7z"/>
	<path class="st2" d="M222.9,83.4c-0.3-6.6-3.1-11.8-7.6-15.7c-4-4.6-9-8.1-14.5-10.8c-2.2-1.2-4.5-2.3-6.7-3.1
		c-10.6-4-22.2-5.1-33.3-3.7c-19.6,2.5-41.6,15.4-38.8,37.4c-4,5.2-6.5,11.3-5.1,17.6c2.7,12.7,16.9,14.2,27.6,13.3c0,0,0.1,0,0.1,0
		c2.7,1.6,5.9,2.5,9.1,2.8c1.9,0.6,3.8,1,5.7,1.3c10,4.9,22.4,5.5,33.2,1.4C208.5,117.9,225.2,101,222.9,83.4z"/>
	<path class="st6" d="M147.7,142.2c-0.5-0.2-1-0.5-1.5-0.7c-0.1-0.3-0.2-0.6-0.4-0.9c-5.4-12-24.7-3.7-28.6,5.4
		c-0.7,1.6-0.8,3.6,0.6,4.9c0.9,0.8,1.6,1.3,2.5,1.7c0.6,0.7,1.4,1.3,2.3,1.6c5.4,1.8,11.6,1.7,16.8-0.9c0.7-0.3,1.3-0.7,1.9-1.1
		c2.2-0.7,4.3-1.7,6.3-3.1C150,147.4,150.6,143.6,147.7,142.2z"/>
	<path class="st7" d="M170,153.4c0.2-2.3,0.8-4.5,0.8-6.9c0-4.2-1.9-7.8-5.4-10.3c-7.7-5.3-18.9-6.1-27.9-6.1
		c-8.9,0-18.1,1.6-25.8,6.2c-5.7,3.4-11.3,9.2-14.2,15.5c-2.1,2-3.1,5.3-4,7.8c-1.3,3.6,3.9,5.2,5.8,2.4c0.7-0.9,1.4-1.4,2.2-1.6
		c0,0,0.1,0,0.1,0c0,0,0.1,0,0.1,0c2.7-0.5,5.8,1.9,7.8,3.4c2.2,1.7,4.8-0.7,4.9-2.8c0.2-2.5,5.9-1.6,7.2-1.1c0,0,0,0,0,0
		c0.8,0.5,1.5,0.9,2.4,1.3c1.2,0.9,2.2,1.9,3.4,2.9c1.4,1.6,3.3,0.2,3.5-1.4c3,0,6-0.7,8.6-2.4c0,0,0.1,0,0.1,0
		c3,0.6,5.5,1.2,8.2,2.7c0,0,0,0,0,0c1.4,0.7,3.1-0.1,3.7-1.3c0.8-0.1,1.5-0.2,2.3-0.5c1.4,0,2.8-0.4,4.1-0.9c1.6,0,3.2,0.1,4.7,0.2
		c0.2,0,0.4,0,0.6-0.1c0.6,0.8,1.2,1.7,1.7,2.6c1.5,2.4,6.2,1.7,5.8-1.6C170.4,158.9,169.8,156.1,170,153.4z"/>
	<path class="st7" d="M257.4,158.9c-1.2-4.8-1.5-9.5-4.8-13.4c-3.2-3.8-7.2-6.8-11.7-8.9c-9.5-4.3-21.4-6.5-31.8-4.9
		c-0.2-0.1-0.3-0.1-0.5-0.1c-4.7-0.7-18.9-0.9-20.6,5.8c-3.3,2.8-6.4,6.9-7,11c-0.1,0.9,0,1.7,0.2,2.4c-0.6,1-1.1,2-1.5,3.1
		c-0.6,1.5,0,3,1,4c-0.5,1.1-0.9,2.3-1.2,3.6c-0.4,2.3,1.9,4.6,4.2,3.2c2.8-1.7,10.8-5.5,14.6-3.3c0.9,3.1,5.4,4,7.2,0.9
		c0.4-0.8,1-1.5,1.5-2.1c2.1,0.8,4.5,1.1,6.9,0.8c0.6-0.1,1.2-0.3,1.8-0.4c1.2,1.2,2.3,2.5,3.7,3.6c2,1.5,4.7-0.2,5.4-2.2
		c1.3-4.1,11.1-2.6,13,0.1c1.6,2.2,4.8,2.5,6.3,0c0.3-0.4,2.9-2,4.5-2.4c0.5,0.5,1,1.1,1.6,2.3C252.5,165.8,258.4,163,257.4,158.9z"
		/>
	<path class="st8" d="M207.5,72.1c-1.8-11.5-14.7-16.8-25.3-17.3c-4.1-0.9-8.5-0.9-12.4-0.1c-9-0.7-18.2,2.2-25,8.3
		c-9,8.1-15,24.9-2.9,32.9c0.5,0.3,1.1,0.4,1.7,0.4c3.7,10,14.2,16,24.8,15.9c4.1-0.1,8.3-0.8,12.3-2.3c1.6-0.2,3.1-0.4,4.7-0.8
		c11.5-2.7,23.2-11.8,24.8-24.1C210.9,80.2,209.8,75.8,207.5,72.1z M171.5,74.3c-2,0.8-4.2,1.4-6.3,1.7c-0.1,0-0.2,0-0.4,0
		C166.6,75,169.3,73.9,171.5,74.3z"/>
	<path class="st8" d="M186.6,40.7c-4.4-4.4-11.5-4.5-17.2-3c-5.9,1.5-11.8,3.1-17.8,4.5c-11.6,2.6-22,5.8-31.2,13.6
		c-17.8,15.1-24.6,39.3-21.9,61.9c0,0.1,0,0.1,0,0.2h0c0,0.4,0.1,0.8,0.1,1.2c0.1,0.8,0.4,1.4,0.9,1.9c0.3,2.2,0.6,4.4,0.6,6.6
		c-0.2,1.4-0.2,2.8-0.1,4.2c-0.2,2.1,0.8,3.4,2.1,4.1c-0.1,0.2-0.1,0.4-0.2,0.6c-0.8,2.3,2.7,4.5,4.3,2.5c6.2-7.5,13-14.1,13.7-24.3
		c0.3-4.6-5.4-7.7-9.2-5.3c-1.5,0.9-2.8,2-4,3.3c-1-18.5,5.5-37.3,19.7-49.7c7.6-6.6,17-9.8,26.8-11.5c4.8-0.8,10.2-1.7,15.1-1.9
		c5.3-0.1,10.9,0.5,16.1-0.6C188.2,48.2,189.1,43.3,186.6,40.7z"/>
	<path class="st9" d="M249.2,118.1c0.1-3.1,0.2-6.1-1.2-8.7c1.6-4.7,0.3-11.1-0.9-15.4c-0.6-2.2-1.4-4.3-2.3-6.5c0-0.2,0-0.4,0-0.6
		c-0.5-5.8-2.4-10.6-6.5-14.9c-0.3-0.3-0.6-0.5-1-0.6c-5.2-10-11.8-19.8-21.9-25.3c-1.5-0.8-2.9-0.6-3.9,0.1
		c-2.6-2.1-6.1-2.8-9.2-3.8c-4-1.2-8.1-2.4-12.2-3.1c-3-0.5-6.5-0.9-9.9-0.7c-1.1-0.2-2.1-0.4-3.2-0.5c-2.9-0.7-5.7-1.2-8.6-0.7
		c-4.7-0.1-9.4,0.5-13.9,1.8c-5.2,1.6-11.1,4-16,7.5c-9,3.4-17.4,8.2-24.1,15.2c-8.6,8.9-13.8,21.4-15.9,33.5
		c-2.3,13.6,0.6,28.6,2.3,42.2c0.5,3.5,5.7,3.9,6,0.4c0.1,0,0.2-0.1,0.3-0.1c10.1-4.6,19.6-7.9,30.9-7.6c2.3,0.1,4.7,0.3,7,0.5
		c0.3,0,0.6,0.1,0.8,0.1c2.3,0.2,4.6,0.4,6.9,0.4c1.2,0,2.3,0,3.4-0.2c1.1,1.5,2.8,2.4,4.5,2.5c0.4,0.8,0.8,1.5,1,1.7
		c1,1.1,2.1,1.5,3.4,2.2c2.4,1.5,3.3,4,5,6c0,0.1,0,0.2,0.1,0.3c0.3,1,0.6,2,1,3c0.1,0.1,0.1,0.3,0.2,0.4c-0.1,0.7-0.3,1.5-0.4,2.3
		c-0.3,2-0.8,4.6,0,6.5c0.1,0.2,0.2,0.3,0.3,0.5c-0.5,2.7,0.1,6.1,0.4,7.7c0.9,5.3,9.5,2.6,7.8-2.2c-0.1-1.4-0.4-3.4-0.9-5.1
		c1.5-2.1,1.3-4.5,0.9-7.5c0-0.2,0-0.3,0-0.5c0.1-0.1,0.2-0.2,0.3-0.4c1.3-0.5,2.5-1.7,2.4-3.3c0-0.3,0-0.6-0.1-0.9
		c0-0.3-0.1-0.6-0.2-0.9c1-2.1,2-4.1,3.2-6.1c0.2-0.4,0.4-0.7,0.4-1.1c1.9-1.2,4.1-1.9,6.2-2.7c2.7-1.1,5.5-2.1,8.2-3.2
		c0.5,0.2,1,0.3,1.6,0.3c6.3,0.1,12.4-1.3,18.6-1.3c7.2,0,12.4,2.4,18.6,5.7c0.7,0.4,1.4,0.6,2,0.6c0,0.1,0.1,0.3,0.1,0.4
		c1.5,4.1,8,2.5,6.7-1.8c-0.3-1.1-0.6-2.2-1-3.3c0.2-0.2,0.4-0.4,0.6-0.7C249.5,127.2,249,122,249.2,118.1z M124,111.8
		c0.4-2,0.8-4,1.1-6c1.2,1.6,2.6,2.9,4.3,3.7C127.6,110.2,125.8,111,124,111.8z M148.9,107c-2.5-0.1-4.9-0.3-7.1-0.2
		c1.2-1.4,2-3.1,2.6-4.9c0.7,0.8,1.4,1.5,2.3,2.2c0.9,0.8,1.9,1.4,2.9,1.9C149.4,106.3,149.1,106.7,148.9,107z M163.4,123.1
		c-0.4-0.2-0.8-0.4-1.3-0.5c0.6-0.1,1.1-0.2,1.7-0.4C163.7,122.5,163.6,122.8,163.4,123.1z M193.9,118.8c-7.8,2.2-15.8,2.6-23.8,1.1
		c1.7-0.9,3.4-2,5-3.4c1.9-1.7,2.7-3.8,2.6-5.9c1.9,0,3.8-0.3,5.6-0.8c-0.2,0.5-0.3,1.1-0.3,1.7c-0.1,1.3,0.8,2.6,1.8,3.2
		c4.7,2.9,9.5,0.6,13.5-2.7c0.1,1.7,1,3.4,2.5,4.2C198.6,117.2,196.3,118.1,193.9,118.8z M211,109.6c-0.2-0.1-0.3-0.2-0.5-0.2
		c-2.7-1.3-4.2-2.9-7.3-2.7c0.1-0.1,0.2-0.2,0.3-0.4c0.3-0.4,0.6-0.7,0.9-1.1c0.5,0.2,1,0.3,1.5,0.3c1.8,0.1,3.5-0.3,5.1-0.9
		c-0.6,1.6-0.6,3.4,0.2,4.8C211.1,109.4,211.1,109.5,211,109.6z M217.7,88.9c-0.6,0.4-1.3,1-2.2,1.7c-0.9,0-1.9,0-2.8,0.1
		c0.4-1.5,0.5-2.9,0.4-4.3c-0.1-0.7-0.3-1.4-0.7-1.8c0.1-0.1,0.2-0.2,0.3-0.3c1.3-1.2,2.6-2.9,3.7-4.7
		C216.7,82.7,217.1,85.8,217.7,88.9C217.8,88.9,217.8,88.9,217.7,88.9z"/>
	<path class="st10" d="M225.7,83.8c-1,0.3-1.9,0.6-2.9,0.7c-0.4-0.4-0.9-0.8-1.6-1.2c-2.5-1.2-6.5-0.7-9.2-0.7
		c-3.9,0-7.8,0-11.7,0.7c-0.6,0.1-1.1,0.3-1.5,0.6c-2.4-0.1-4.7-0.3-7.1-0.4c-2.5-0.1-3,2.7-1.6,4.2c-0.1,0.6-0.1,1.2,0.1,1.8
		c1.6,4.1,4.5,5.9,8.2,6.8c1.2,1.1,2.5,2.1,4.1,2.7c3.2,1.2,6.5,1.5,9.9,1.2c2.9-0.2,6.2-0.5,8.7-2.2c1.6-1.1,2.8-2.8,3.9-4.5
		c0,0,0.1,0,0.1,0c0.9-0.5,1.4-1.4,1.7-2.4c0-0.2,0.1-0.4,0.1-0.5c0.5-0.8,1-1.5,1.6-2.2C230,86.4,228.5,82.9,225.7,83.8z"/>
	<path class="st10" d="M145.8,82.9c-5,0.4-10.1,0.6-15.1,1.3c-3.5,0.5-7.9,0.8-10.9,3c-2.6-0.1-5.1-0.2-7.7-0.5
		c-2.8-0.3-3.3,3.6-1.3,4.9c0.2,0.1,0.5,0.3,0.8,0.4c-0.2,1.3,0.1,2.6,1.1,3.6c3,2.8,6.4,5.8,10.5,6.9c4.5,1.2,9.3-0.1,13.6-1.5
		c3.4-1.1,7.5-1.7,9.7-4.9c1.3-1.9,1.8-4.1,1.8-6.4C151.1,87.9,149.3,82.7,145.8,82.9z"/>
	<path class="st11" d="M221,23.2c-2.1,2.5-2.4,5.8-4.1,8.6c-1.8,2.9-3.1,6.2-4.9,9.1c-2.1,3.9,3.7,7.3,5.9,3.4
		c0.9-1.6,1.6-3.2,2.4-4.8c0.3-0.6,0.4-1.2,0.4-1.7c0.4-1.1,0.9-2.1,1.5-3.1c1.6-2.9,2.7-5.8,3.3-9.1C225.8,23.4,222.8,21,221,23.2z
		"/>
	<path class="st12" d="M262.8,3c-7-0.2-14.3,1.1-21.3,1.8c-4.5,0.5-11-0.1-14.5,3.3c-3.8,3.6-5,10.3-6.9,14.9
		c-1,2.6-2.1,5.1-3.1,7.7c-0.8,0.2-1.6,0.7-2,1.5c-1.8,3.6-2.2,7.1-2.6,11c-0.3,2.9,4.5,4.2,5.6,1.5c0.9-2,2.1-4.3,2.7-6.7
		c1.1-2.7,2.1-5.4,3.1-8.2c1.7-5,3.2-11.6,6.1-16.1c2.7-4.1,11.9-3.2,16.4-3.6c5.7-0.6,11.6-0.7,17.1-2C266.5,7.6,265.7,3.1,262.8,3
		z"/>
	<path class="st12" d="M132.2,46.4c-2.2-5.8-4.4-11.3-7.6-16.6c-1.5-2.5-2.8-5.1-4.3-7.6c-0.3-0.5-0.6-1-1-1.5
		c0.1-0.8-0.1-1.6-0.7-2.3c-0.5-0.6-0.8-1.3-1.1-1.9c0.4-0.7,0.5-1.5,0-2.2c-0.3-0.5-0.6-0.9-1-1.4c-0.4-0.5-0.8-0.9-1.4-1.1
		c0.2-1-0.3-2-1.5-2.3c-10.5-2.6-22.3-2-33-1.4c0,0-0.1,0-0.1,0c-0.5-0.3-1.2-0.4-1.8-0.1c-0.1,0.1-0.3,0.1-0.4,0.2
		c-0.9,0.1-1.7,0.7-1.7,2c0,0.3,0,0.6,0,0.9c-0.1,2,2.4,2.7,3.7,1.7c1.5,0.2,3,0,4.4,0.1c4.5,0.3,8.9,1.2,13.4,1.8
		c1.9,0.2,8.1,1.9,11.8,1.2c-0.1,0.7,0.3,1.4,0.9,1.9c1.9,1.3,2.3,5,3.1,7c0.6,1.7,1.4,3.3,2.1,5c2,4.7,4,9.4,5.8,14.2
		c0.4,1.1,1.3,2,2.4,2.3c0,0,0,0.1,0,0.1l0.2,1.5c0.3,2,1.8,3.6,4,3.1c0.5-0.1,1-0.3,1.5-0.4C131.5,50.1,132.8,48.1,132.2,46.4z"/>
	<path class="st13" d="M96.9,115c-0.2-0.8-1-1.3-1.8-1c-4.7,1.3-9.1,3.2-13.2,5.9c0,0-0.1,0-0.1,0.1c-3.5,1.8-6.8,4-10,6.5
		c-3.4,2.1-6.5,4.7-9.4,7.5c-5.8,5.4-10.8,11.5-15.1,18.1c-0.8,0.2-1.6,0.5-2.3,1c-2.2,1.4-3,3.6-2.7,5.7c-1,1.7-2.4,3.2-3.2,5.1
		c-1.3,3-1.9,6.3-2.7,9.5c-0.1,0.4-0.2,0.9-0.2,1.3c-1,0.5-1.9,1.4-2.5,2.6c-2,2.1-2.6,5.5,0,8.2c1.9,1.9,4.7,2.5,7.2,1.4
		c0.6-0.3,1.1-0.6,1.5-0.9c0.1,0,0.2,0,0.2,0.1c2.1,0.5,3.7,0.1,5.5-0.8c1.7-0.9,3.2-3.2,3-5.2c-0.1-0.6-0.3-2.7-0.8-3.9
		c0.1-0.4,0.2-0.7,0.3-1.1c0.4-1.1,0.7-2.1,1.1-3.2c0.2-0.5,0.4-1.1,0.5-1.6c1.9-1.6,2.3-4.7,1.4-7c0.6-1.2,1-2.5,1.3-3.8
		c0.3-1.4,0.2-2.7-0.3-3.9c4.4-10.4,12.8-18.3,21.6-25.3c0.5,0.1,1,0.1,1.5-0.3c3.3-2.8,7-5.3,10.8-7.4c1.9-1.1,3.9-2,5.8-2.9
		c0.9-0.4,1.8-0.6,2.3-1.5C97.2,117,97.2,116,96.9,115z"/>
	<path class="st13" d="M314.8,173.6c-2.6-2.1-3.9-7.7-5.1-10.8c-0.1-0.3-0.3-0.7-0.6-0.9c0.5-1.2,0.2-2.6-0.3-3.7
		c-0.7-1.6-1.7-2.6-3.1-3.7c-0.4-0.3-0.8-0.7-1.1-1c0.1-0.1,0.1-0.2,0.2-0.3c0.3-0.5,0.3-1,0.4-1.5c0.2-0.7,0-1.6-0.3-2.2
		c-0.4-0.6-1-1.1-1.8-1.3c-0.6-0.2-1.3-0.1-1.8,0.1c-1.3-2.8-2.7-6.3-5.2-8.1c0-0.1,0-0.2-0.1-0.3c-0.5-1.2-0.9-2.1-1.8-3
		c-0.3-0.3-1.2-0.7-1.8-1.1c-0.2-0.9-0.6-1.7-1.3-2.2c-0.1-1.4-1.1-2.6-2.3-3.1c-0.1-0.8-0.4-1.6-1.1-2.3c-0.6-0.5-1.2-0.9-2-1
		c-0.2-1.3-1.4-2.5-2.7-2.4c-0.4,0-0.8,0-1.2,0c0.3-0.8,0-1.7-0.9-2.4c-1.2-0.9-2.3-1.2-3.8-1.3c-0.1,0-0.2,0-0.2,0
		c-0.1-0.2-0.3-0.4-0.5-0.7c0,0-0.1-0.1-0.1-0.1c-0.1-0.1-0.1-0.2-0.2-0.3l0,0c-0.5-0.5-1.1-0.6-1.6-0.4c-1.7-3.1-5.4-3.5-8.1-5.4
		c-0.3-0.2-0.5-0.3-0.7-0.3c-0.1-0.1-0.2-0.2-0.3-0.2c-0.1-0.4-0.3-0.7-0.7-0.9c-0.9-0.5-1.8-0.9-2.8-1.3c-0.3-0.2-0.6-0.4-0.8-0.5
		c-0.4-0.3-0.8-0.3-1.2-0.2c-0.3-0.1-0.6-0.2-0.8-0.3c-1-0.3-2-0.6-3.1-0.8c0,0-0.1,0-0.1,0c0-0.2,0-0.3-0.1-0.5
		c-0.3-0.7-0.7-1.2-1.3-1.4c-0.3-0.9-1.4-1-2.1-0.7c-0.1,0-0.2,0.1-0.3,0.1c-1.3,0.2-2.2,1.6-2.2,3c-0.1,0.2-0.1,0.4-0.1,0.7
		c-0.1,0.6,0.5,1.3,1.1,1.4c3.5,0.9,6.9,2.2,10.1,4c1.6,0.9,3.2,2,4.6,3.2c1.4,1.1,2.6,2.4,4,3.5c0.9,0.7,2.1,1.7,3.3,1.8
		c0.1,0.4,0.3,0.7,0.7,0.9c0.6,0.4,1.1,0.7,1.7,0.9c0,0.2,0.1,0.4,0.1,0.6c0.1,1.3,0.9,2.3,2.2,2.5c-0.7,2.1,0.7,4.7,3.3,4.7
		c0.3,0,0.6,0,0.9-0.1c0.2,0.8,0.7,1.4,1.3,1.8c0.2,1.4,1.4,2.8,2.7,3.1c0.1,0,0.2,0,0.3,0.1c1,1.5,2.8,2.6,4.5,3.7
		c-0.2,2.6,1.2,4.5,2.1,7c0.6,1.7,0.6,2.9,0.5,4.6c0,2,0.4,3.8,1,5.7c0.4,1.3,1.1,2.2,1.9,2.7c-0.3,2.3-0.3,4.6,0,7
		c0.1,1,0.7,1.8,1.4,2.4c-0.3,2.1-0.3,4.2,0,5.9c0.3,1.6,2.3,2.6,3.8,2.1c3.7-1.2,7.4-1.9,11.4-1.4
		C315.2,179.7,317,175.4,314.8,173.6z"/>
	<path class="st14" d="M185.8,169.4c-7.1-1.1-14.4-1.3-21.7-1c-4.9-0.6-10.3,0.1-15,1.3c-7.7,1.8-6.3,15.1,1.9,14.1
		c10.8-1.3,21.6-1.3,32.3-2.3C190.2,183.2,193.4,170.6,185.8,169.4z"/>
	<path class="st15" d="M194.3,172.6c-8.4-2.2-16.4-1.3-25.1-0.2c-3.3,0.4-6.6,0.8-9.9,1.3c-1.5,0.1-3,0.2-4.5,0.3
		c-2-0.2-4-0.3-5.9-0.5c-1.3-0.1-2.2,0.6-2.6,1.6c-1.5,0.2-3.1,0.5-4.6,0.8c-3.8,0.7-3,7.1,0.9,6.7c8.3-0.8,16.7-1.2,25-1.9
		c6.6,0.1,13.2-0.1,19.8-0.6c1.9-0.2,2.9-1.6,3-3c1.4-0.5,2.8-1.1,4.2-1.7C195.8,174.7,195.5,172.9,194.3,172.6z"/>
	<path class="st16" d="M83.2,144.1c-3.3-1.9-7.5-0.7-9.5,2.5c-2.1,3.3-4.4,6.9-5,10.8c0,0.2,0,0.3-0.1,0.5c-0.7,1.7-1.5,3.5-2.7,4.7
		c-2.8,2.7-2.7,7.5,0,10.2c3,3,7.2,2.5,10.2,0c5.5-4.4,6.8-13,9.5-19.2C87.2,150.1,86.7,146.1,83.2,144.1z"/>
	<path class="st16" d="M256.5,168.2c-0.9-3-3.2-4.8-5.9-5.4c-1.2-1-2.7-1.6-4.4-1.5c-1.8,0-3.2,0.8-4.5,1.9
		c-0.2,0.1-0.3,0.3-0.5,0.4c0.1-0.1,0.1-0.1,0.2-0.2c-1,0.5-1.7,1.2-2.2,2.2c-0.3,0.2-0.5,0.4-0.8,0.6c0-0.1-0.1-0.1-0.1-0.2
		c0-0.1,0-0.3-0.1-0.4c0-0.1,0-0.1,0,0c-0.2-0.8-0.4-1.6-0.8-2.4c-1.1-2.3-4.4-3.5-6.8-2.8c-0.7,0.2-1.3,0.6-1.9,1
		c-1.6,0.2-3.1,0.7-4.4,1.6c-1.3,0.9-2.3,2-3,3.4c-0.5,0.5-0.9,1.1-1.2,1.7c-0.3-0.7-0.6-1.4-1.1-2c0,0,0,0,0,0
		c-0.4-0.8-1-1.6-1.7-2.3c-3.2-2.9-7.8-3-11.2-0.4c-0.2,0.1-0.3,0.2-0.4,0.4c-1,0.5-1.9,1.2-2.7,1.9c-0.7,0.6-1.2,1.3-1.7,2
		c-1.4-4-5.9-5.8-9.8-5.3c-2.9,0.4-5.5,2-7.5,4.2c0,0,0,0-0.1,0c-0.3,0-0.6,0-0.9-0.1c-0.8-0.5-1.7-0.8-2.7-0.9
		c-4.1-0.5-8-0.2-12,0.4c-0.6-0.4-1.2-0.8-1.9-1.1c0.8,0.3,0.2,0-0.2-0.3c-0.4-0.3-0.7-0.5-1.2-0.7c-1.4-0.7-2.8-0.8-4.3-1
		c-0.2,0-0.5-0.1-0.7-0.1c-1.4-1-3.2-1.4-5.2-0.9c-2.8,0.6-5.5,2.8-6.2,5.7c-0.5,1.7-0.3,3.6,0.5,5.2c-0.4,0.1-0.9,0.3-1.3,0.4
		c-0.3,0.1-0.5,0.2-0.7,0.3c-0.3,0-0.5,0-0.8,0c-1.1,0-2.2,0.6-2.9,1.5c0,0,0,0-0.1,0c-5.1,1-4,9.6,1.2,9.2
		c8.3-0.7,16.7-1.1,25.1-1.5c6,0.1,11.9,0.1,17.9,0.2c0.9,0.3,1.8,0.4,2.7,0.3c0.7,0,1.3-0.1,1.9-0.3c1.3,0,2.7,0,4,0
		c3.8,0,5.2-5,3-7.2c0.1-0.3,0.2-0.6,0.3-0.9c0.2-0.2,0.4-0.4,0.6-0.6c0.1,0.8,0.4,1.6,0.8,2.3c0.9,1.7,2.2,2.9,3.8,3.6
		c0.9,1.6,2.6,2.8,5,2.8c2,0,3.5-0.8,4.5-2.1c2.3-0.8,4.3-2.5,5.4-4.9c0.1-0.2,0.2-0.4,0.2-0.7c0.7,1.7,2,3.2,3.6,4.2
		c3.2,1.9,7.3,1.4,10.5-0.1c1.4-0.6,2.5-1.6,3.4-2.8c0.6,0.9,1.3,1.7,2.2,2.4c2.5,1.9,5.8,2.2,8.8,1.4
		C253.2,178.5,258.3,174,256.5,168.2z"/>
	<path class="st17" d="M297.4,172.7c-0.4-1-0.8-1.9-1.4-2.7c0-0.6,0-1.1-0.1-1.7c-1.9-9.1-3.2-20.6-9.8-27.6
		c-0.7-0.7-1.6-1.2-2.4-1.5c-2.2-3.1-4.8-5.5-7.9-7.8c-0.2-0.1-0.4-0.3-0.6-0.4c-5.1-4.5-10.6-8.5-15.6-13.3
		c-1.6-1.6-3.6-1.9-5.4-1.5c-0.2-0.1-0.5-0.2-0.7-0.2c0-0.6-0.4-1.1-0.9-1.3c-0.1-0.1-0.3-0.1-0.4-0.1c-0.1-0.1-0.1-0.1-0.2-0.2
		c-0.6-0.5-1.3-0.6-2-0.1c-0.6,0.5-0.7,1.3-0.4,1.9c0.1,0.1,0.1,0.2,0.2,0.3c0,0,0,0,0,0c0,0,0,0,0,0.1c0,0.1,0,0.1,0,0.2
		c-0.1,0.3-0.1,0.6-0.1,0.9c0,0.3,0.1,0.6,0.3,0.9c0,0.1,0,0.2-0.1,0.3c0,0.1-0.1,0.2-0.1,0.4c-0.3,0.4-0.5,0.9-0.8,1.3
		c-0.3,0.6-0.2,1.3,0.3,1.8c0,0.1,0,0.3,0,0.4c-0.1,0.2-0.2,0.4-0.2,0.7c-0.9,3.6-1.4,7.2-1.9,10.9c0,0.3,0,0.5,0,0.8
		c-0.1,0.4-0.1,0.8,0,1.2c0.1,0.4,0.1,0.8,0.2,1.2c-0.2,0.1-0.4,0.2-0.5,0.3c0,0-0.1,0.1-0.1,0.1c-0.1,0.1-0.2,0.3-0.3,0.4
		c-0.1,0.1-0.1,0.2-0.2,0.3c-0.1,0.2-0.2,0.4-0.3,0.7c0,0.1,0,0.1,0,0.2c0,0.2-0.1,0.4-0.1,0.6c0,0.2,0,0.4,0.1,0.6
		c0.1,0.2,0.2,0.3,0.3,0.5c0.1,0.1,0.3,0.2,0.5,0.3c0.2,0.1,0.4,0.1,0.6,0.1c0.1,0,0.3,0,0.4-0.1c0.3-0.1,0.5-0.2,0.7-0.4
		c0,0,0-0.1,0.1-0.1c0.6,1.3,1.4,2.6,2.5,3.9c2.5,3,3.2,4.8,3.9,8.5c0.3,1.5,0.5,2.9,1.4,4.2c0.3,0.4,0.6,0.8,0.9,1.2
		c-0.9,1.8-0.3,5.1-0.7,7.5c-1.1-1.6-2.7-2.8-4.8-3.3c-0.1,0-0.2,0-0.3,0c-0.7-0.4-1.5-0.7-2.3-0.9c-3.8-0.9-7.8,0.5-10.5,3.2
		c-0.3-0.6-0.7-1.1-1.1-1.6c-2.9-3-7.3-3-10.6-0.8c-0.4,0.2-0.8,0.5-1.2,0.8c-1.8,1.3-3.5,2.8-4.6,4.6c-0.9-4.1-4.5-7.3-8.7-7.4
		c-2-0.1-3.9,0.5-5.5,1.6c-2.5,0.2-4.9,1.4-6.5,3.6c-0.5-0.7-1.2-1.3-2-1.8c-2.5-2.8-6.9-3.5-10.5-1.4c-1.2,0.7-2.2,1.7-3,2.7
		c-1.3,0-2.7-0.1-4-0.1c-4.8-0.3-9.6-0.1-14.5,0.3c-0.7-1.2-1.6-2.3-2.9-3c-2.7-1.6-6.2-1.5-9.1-0.4c-1.9,0.7-3.6,1.8-4.9,3.3
		c0,0,0,0,0,0c-0.9-0.4-0.6-0.3-1.6-0.4c-0.4-0.1-0.6-0.1-1-0.1c-0.1,0-0.2,0-0.3,0c-0.3-0.4-0.5-0.7-0.8-1c-3-3.1-8-4-11.8-1.8
		c-2,1.2-3.5,3.1-4.3,5.3c-0.4-1.2-1.1-2.4-2.1-3.4c-2.9-2.9-7.7-4.1-11.7-3c-2.2,0.6-4.1,2-5.3,3.8c-0.2-0.2-0.3-0.4-0.5-0.6
		c-1.7-3.2-5.5-4.3-9.3-3c-1.3,0.4-2.5,1.1-3.6,2c-1.5,1-2.6,2.2-3.3,3.6c-0.2-0.1-0.4-0.2-0.6-0.3c0-0.8-0.1-1.6-0.2-2.3
		c-0.4-3.3-0.6-5.1,0.7-8.3c1.1-2.8,2.3-5.7,3.4-8.5c0.2-0.4,0.3-0.9,0.3-1.3c0.1-0.1,0.2-0.1,0.3-0.2c2.3-1.3,3.4-4.2,2.8-6.8
		c-0.4-1.6-0.8-3.2-1-4.9c-0.1-0.8-0.5-1.5-1-2.1c0.2-0.5,0.4-0.9,0.6-1.5c1-2.7,1.1-6.9-1.3-8.9c-1.2-1-2.6-1.8-4.2-1.8
		c-1.5,0.1-3.2,0.6-4.2,1.8c0,0-0.1,0.1-0.1,0.1c-0.8,0.9-1.3,2-1.6,3.2c-5.2,0.7-9.4,3.9-13,7.8c-1.8,2-3.6,4.2-5.4,6.3
		c-6.2,2.2-9.9,7.4-11.9,13.6c-2.6,7.8-4,16.2-6,24.2c-0.3,1.1-0.2,2.2,0,3.1c-0.4,0.2-0.7,0.5-0.8,1c-0.2,1.3-0.3,2.7-0.2,4
		c0.1,0.8,0.6,1.5,1.5,1.5c8.1,0,16.2,0,24.3,0c0.6,0.1,1.1,0.1,1.7,0.2c5.2,0.7,10.1,2.5,15.3,1.9c1.8-0.2,3.2-1.1,4.2-2.3
		c12,2.1,24.5,1.5,36.6,1.4c14.3-0.1,28.5-0.4,42.8-0.8c27.5-0.9,55-2.5,82.4-4.7c0.9,0.6,2,1,3.4,0.9l24.7-0.8c1.2,0,2.2-0.3,3-0.8
		c2.7,0.3,5.2-1,6.3-3.6c0.3-0.8,0.5-1.6,0.4-2.5C297.7,174.7,297.8,173.6,297.4,172.7z"/>
	<path class="st18" d="M72,264.5c-0.2-0.7-0.8-1-1.4-1.1c-0.3-1.1-0.9-2.1-1.6-3.1c-0.2-0.3-0.4-0.5-0.7-0.8
		c-0.4-1.2-1.1-2.3-2.2-3.2c-0.3-0.5-0.6-0.9-0.9-1.4c-1.2-1.6-2.8-2.8-4.6-3.7c-1.4-0.8-2.9-1.5-4.3-2.2c0-0.1-0.1-0.2-0.2-0.3
		c-1.9-2.9-5.1-4.3-8.1-5.9c-3.6-1.9-7.1-3.8-10.7-5.8c-0.6-0.3-1.2-0.2-1.6,0.2c-4.5-2.8-9.3-5.2-14.7-6.6c-4.8-1.2-8.1,3-7.4,7.4
		c0.6,3.6,1.3,7.2,2.1,10.7c0.1,0.5,0.3,1,0.5,1.4c-0.2,0.2-0.3,0.5-0.4,0.8c-0.1,0.7,0,1.3,0.5,1.8c0.3,0.3,0.6,0.4,1,0.5
		c0.3,0,0.5,0,0.7-0.1c0,0,0.1,0.1,0.1,0.1c0,0,0.1,0,0.1,0.1c0.1,0.2,0.3,0.3,0.4,0.5c0,0,0,0,0,0c0,0.1,0,0.2,0,0.2
		c0.2,0.9,0.4,1.8,0.7,2.7c0.1,0.5,0.6,0.9,1,1c0,0.1,0.1,0.1,0.1,0.2c0.4,0.7,1.4,1,2.1,0.5c0.3-0.2,0.6-0.5,0.7-0.9
		c0.1-0.4,0-0.8-0.2-1.2c-0.1-0.2-0.2-0.4-0.3-0.6c0.3-0.5,0.4-1,0.2-1.5c0,0,0,0,0,0c0.1-0.6,0-1.1-0.2-1.6c0,0,0,0,0,0
		c0,0,0,0,0-0.1c0.3-0.1,0.7-0.2,1-0.4c-0.2-0.4-0.4-0.8-0.4-1.3c-1-1.2-0.9-2.9,0.1-4.1c0.5-0.6,1.4-0.9,2.1-0.9
		c0.8,0,1.6,0.3,2.1,0.9c1,1,1.5,2.3,1.6,3.7c0.8,0.9,2.3,0.6,2.6-0.6c0.3,0.2,0.5,0.5,0.8,0.8c0,0,0.1,0.1,0.1,0.1
		c0.1,0.1,0.1,0.2,0.2,0.3c0.5,0.6,1.2,1.1,2,1.2c0.1,0,0.3,0,0.4,0c0.1,0.1,0.3,0.1,0.4,0.2c-0.2,0.3-0.3,0.7-0.2,1.1
		c0,0.1,0.1,0.2,0.1,0.4c-0.1,0.4,0,0.8,0.4,1.3c0.3,0.4,0.6,0.6,1,0.6c0,0,0,0,0,0.1c0.1,0.4,0.4,0.7,0.7,0.9
		c0.1,0.2,0.3,0.4,0.5,0.6c0.6-0.2,1.2-0.3,1.9-0.1c0.3,0.1,0.6,0.2,0.9,0.4c0.3-0.2,0.5-0.4,0.7-0.7c0.1,0.3,0.2,0.6,0.4,0.8
		l0.3,0.2c0.2,0.1,0.4,0.2,0.6,0.2c0.1,0,0.3,0,0.4,0c0,0,0,0,0,0c0.1,0.1,0.1,0.2,0.2,0.2c0.1,0.1,0.2,0.2,0.3,0.2
		c0.9,0.6,1.5,1.4,2,2.3c0.3,0.6,1.1,0.9,1.7,0.7c2.9-1,6.6,0.8,7,4.1c0.1,0.9,0.9,1.9,1.9,1.4c2.1-0.8,4.6-0.4,6.3,1
		c0,0,0,0.1-0.1,0.1c0,0-0.1,0.1-0.1,0.2c-0.1,0.2-0.1,0.3-0.2,0.5c0,0.1-0.1,0.2-0.1,0.3c0,0.2-0.1,0.4-0.1,0.5c0,0.1,0,0.1,0,0.2
		c0,0.1,0,0.3,0.1,0.4c0,0.2,0.1,0.4,0.3,0.5c0.1,0.1,0.2,0.2,0.3,0.3c0.1,0.1,0.3,0.2,0.5,0.3c0.2,0.1,0.4,0.1,0.7,0.1
		c0.1,0,0.2,0,0.3,0c0.2,0,0.4,0,0.7-0.1c0.1,0,0.1,0,0.2-0.1c0.1,0,0.2,0,0.3,0.1c0.4,0.1,0.8,0,1.2-0.2c0.5,1.7,1.5,3.2,2.9,4.3
		c0.9,0.7,2.2,0.5,2.5-0.7C73.2,271.5,73.1,267.9,72,264.5z"/>
	<path class="st18" d="M327.2,220.8c-5.4,1.3-10.2,3.7-14.7,6.5c-0.4-0.3-1.1-0.5-1.6-0.2c-3.6,1.9-7.1,3.8-10.7,5.7
		c-3,1.6-6.2,3-8.1,5.9c-0.1,0.1-0.1,0.2-0.2,0.3c-1.5,0.7-2.9,1.4-4.4,2.2c-1.7,0.9-3.4,2.1-4.6,3.7c-0.3,0.4-0.6,0.9-0.9,1.4
		c-1.1,0.8-1.9,1.9-2.2,3.1c-0.2,0.3-0.5,0.5-0.7,0.8c-0.7,0.9-1.4,2-1.7,3.1c-0.6,0-1.2,0.4-1.5,1.1c-1.1,3.4-1.2,7-0.3,10.5
		c0.3,1.2,1.6,1.3,2.5,0.7c1.4-1.1,2.4-2.6,2.9-4.3c0.4,0.2,0.8,0.3,1.2,0.2c0.1,0,0.2,0,0.3-0.1c0.1,0,0.1,0.1,0.2,0.1
		c0.2,0.1,0.4,0.1,0.7,0.1c0.1,0,0.2,0,0.3,0c0.2,0,0.5,0,0.7-0.1c0.2,0,0.4-0.1,0.5-0.3c0.1-0.1,0.2-0.2,0.3-0.3
		c0.1-0.1,0.2-0.3,0.3-0.5c0-0.1,0-0.3,0.1-0.4c0-0.1,0-0.1,0-0.2c0-0.2,0-0.4-0.1-0.5c0-0.1,0-0.2-0.1-0.3
		c-0.1-0.2-0.1-0.3-0.2-0.5c0-0.1,0-0.1-0.1-0.2c0,0,0-0.1-0.1-0.1c1.7-1.4,4.3-1.8,6.3-0.9c1,0.4,1.8-0.6,1.9-1.4
		c0.4-3.2,4.2-5.1,7-4c0.6,0.2,1.4-0.1,1.7-0.7c0.5-1,1.1-1.7,2-2.3c0.1-0.1,0.2-0.2,0.3-0.2c0.1-0.1,0.2-0.2,0.2-0.2c0,0,0,0,0,0
		c0.1,0,0.3,0,0.4,0c0,0,0.1,0,0.1,0c0.3-0.3,0.6-0.5,0.9-0.6c0.1-0.2,0.2-0.4,0.2-0.6c0.1,0.1,0.2,0.3,0.3,0.4
		c1-0.2,1.9-0.1,2.8,0.3c0.3-0.2,0.6-0.5,0.8-0.8c0.3-0.2,0.5-0.5,0.7-0.9c0,0,0,0,0-0.1c0.4-0.1,0.7-0.3,1-0.6
		c0.3-0.4,0.4-0.9,0.4-1.3c0-0.1,0.1-0.2,0.1-0.4c0.1-0.4,0-0.8-0.2-1.1c0.1-0.1,0.3-0.1,0.4-0.2c0.1,0,0.3,0,0.4,0
		c0.8-0.1,1.4-0.6,2-1.2c0.1-0.1,0.2-0.2,0.2-0.3c0,0,0.1-0.1,0.1-0.1c0.2-0.3,0.5-0.5,0.8-0.8c0.3,1.2,1.8,1.5,2.6,0.6
		c0.1-1.4,0.6-2.7,1.6-3.7c0.5-0.5,1.4-0.9,2.1-0.9c0.6,0,1.3,0.2,1.8,0.6c-1,2-1.2,4.5-0.4,6.7c0.1,0.4,0.3,0.7,0.7,0.9
		c0.1,0.1,0.3,0.1,0.4,0.2c-0.2,0.5-0.1,1,0.2,1.4c-0.1,0.2-0.2,0.4-0.3,0.6c-0.2,0.4-0.3,0.7-0.2,1.2c0.1,0.4,0.4,0.7,0.7,0.9
		c0.7,0.4,1.7,0.2,2.1-0.5c0-0.1,0.1-0.1,0.1-0.2c0.5-0.1,0.9-0.5,1-1c0.2-0.9,0.5-1.8,0.7-2.7c0-0.1,0-0.2,0-0.2c0,0,0,0,0,0
		c0.1-0.2,0.3-0.3,0.4-0.5c0,0,0.1,0,0.1-0.1c0.1,0,0.1-0.1,0.1-0.1c0.2,0.1,0.5,0.1,0.7,0.1c0.4,0,0.7-0.2,1-0.5
		c0.5-0.5,0.6-1.2,0.5-1.8c-0.1-0.3-0.2-0.6-0.4-0.8c0.2-0.4,0.4-0.9,0.5-1.4c0.8-3.5,1.6-7.1,2.1-10.7
		C335.2,223.8,332,219.6,327.2,220.8z"/>
	<path class="st18" d="M327.2,296.8c-5.4,1.3-10.2,3.7-14.7,6.5c-0.4-0.3-1.1-0.5-1.6-0.2c-3.6,1.9-7.1,3.8-10.7,5.7
		c-3,1.6-6.2,3-8.1,5.9c-0.1,0.1-0.1,0.2-0.2,0.3c-1.5,0.7-2.9,1.4-4.4,2.2c-1.7,0.9-3.4,2.1-4.6,3.7c-0.3,0.4-0.6,0.9-0.9,1.4
		c-1.1,0.8-1.9,1.9-2.2,3.1c-0.2,0.3-0.5,0.5-0.7,0.8c-0.7,0.9-1.4,2-1.7,3.1c-0.6,0-1.2,0.4-1.5,1.1c-0.4,1.2-0.7,2.5-0.8,3.7
		c-0.3,0.3-0.4,0.6-0.4,1v6c0,0.8,0.7,1.5,1.5,1.5c0.5,0,1-0.3,1.3-0.7c0.2-0.1,0.5-0.2,0.7-0.3c1.4-1.1,2.4-2.6,2.9-4.3
		c0.4,0.2,0.8,0.3,1.2,0.2c0.1,0,0.2,0,0.3-0.1c0.1,0,0.1,0.1,0.2,0.1c0.2,0.1,0.4,0.1,0.7,0.1c0.1,0,0.2,0,0.3,0
		c0.2,0,0.5,0,0.7-0.1c0.2,0,0.4-0.1,0.5-0.3c0.1-0.1,0.2-0.2,0.3-0.3c0.1-0.1,0.2-0.3,0.3-0.5c0-0.1,0-0.3,0.1-0.4
		c0-0.1,0-0.1,0-0.2c0-0.2,0-0.4-0.1-0.5c0-0.1,0-0.2-0.1-0.3c-0.1-0.2-0.1-0.3-0.2-0.5c0-0.1,0-0.1-0.1-0.2c0,0,0-0.1-0.1-0.1
		c1.7-1.4,4.3-1.8,6.3-0.9c1,0.4,1.8-0.6,1.9-1.4c0.4-3.2,4.2-5.1,7-4c0.6,0.2,1.4-0.1,1.7-0.7c0.5-1,1.1-1.7,2-2.3
		c0.1-0.1,0.2-0.2,0.3-0.2c0.1-0.1,0.2-0.2,0.2-0.2c0,0,0,0,0,0c0.1,0,0.3,0,0.4,0c0.2,0,0.3-0.1,0.4-0.1c0.2-0.3,0.4-0.6,0.7-0.8
		c0-0.1,0.1-0.2,0.1-0.3c0,0.1,0.1,0.1,0.1,0.1c0.4-0.3,0.9-0.4,1.5-0.5c0.7,0,1.3,0.2,1.8,0.6c0.1-0.2,0.3-0.3,0.4-0.5
		c0.3-0.2,0.5-0.5,0.7-0.9c0,0,0,0,0-0.1c0.4-0.1,0.7-0.3,1-0.6c0.3-0.4,0.4-0.9,0.4-1.3c0-0.1,0.1-0.2,0.1-0.4
		c0.1-0.4,0-0.8-0.2-1.1c0.1-0.1,0.3-0.1,0.4-0.2c0.1,0,0.3,0,0.4,0c0.8-0.1,1.4-0.6,2-1.2c0.1-0.1,0.2-0.2,0.2-0.3
		c0,0,0.1-0.1,0.1-0.1c0.2-0.3,0.5-0.5,0.8-0.8c0.3,1.2,1.8,1.5,2.6,0.6c0.1-1.4,0.6-2.7,1.6-3.7c0.5-0.5,1.4-0.9,2.1-0.9
		c0.6,0,1.3,0.2,1.8,0.6c-0.8,1.5-1,3.2-0.8,4.9c-0.2,0.2-0.3,0.4-0.4,0.6c-0.6,2.1-0.6,4.3-0.1,6.4c0.2,0.9,1.4,1.4,2.2,0.9
		c0.3-0.2,0.6-0.4,0.9-0.5c0.1-0.1,0.2-0.1,0.3-0.2c0.5,0,0.9-0.3,1.2-0.7c0-0.1,0.1-0.1,0.1-0.2c0.5-0.1,0.9-0.5,1-1
		c0.2-0.9,0.5-1.8,0.7-2.7c0-0.1,0-0.2,0-0.2c0,0,0,0,0,0c0.1-0.2,0.3-0.3,0.4-0.5c0,0,0.1,0,0.1-0.1c0.1,0,0.1-0.1,0.1-0.1
		c0.2,0.1,0.5,0.1,0.7,0.1c0.4,0,0.7-0.2,1-0.5c0.5-0.5,0.6-1.2,0.5-1.8c-0.1-0.3-0.2-0.6-0.4-0.8c0.2-0.4,0.4-0.9,0.5-1.4
		c0.8-3.5,1.6-7.1,2.1-10.7C335.2,299.8,332,295.6,327.2,296.8z"/>
	<path class="st18" d="M76.6,336.5c-0.2-0.7-0.8-1-1.4-1.1c-0.3-1.1-0.9-2.1-1.6-3.1c-0.2-0.3-0.4-0.5-0.7-0.8
		c-0.4-1.2-1.1-2.3-2.2-3.2c-0.3-0.5-0.6-0.9-0.9-1.4c-1.2-1.6-2.8-2.8-4.6-3.7c-1.4-0.8-2.9-1.5-4.3-2.2c0-0.1-0.1-0.2-0.2-0.3
		c-1.9-2.9-5.1-4.3-8.1-5.9c-3.6-1.9-7.1-3.8-10.7-5.8c-0.6-0.3-1.2-0.2-1.6,0.2c-4.5-2.8-9.3-5.2-14.7-6.6c-4.8-1.2-8.1,3-7.4,7.4
		c0.6,3.6,1.3,7.2,2.1,10.7c0.1,0.5,0.3,1,0.5,1.4c-0.2,0.2-0.3,0.5-0.4,0.8c-0.1,0.7,0,1.3,0.5,1.8c0.3,0.3,0.6,0.4,1,0.5
		c0.3,0,0.5,0,0.7-0.1c0,0,0.1,0.1,0.1,0.1c0,0,0.1,0,0.1,0.1c0.1,0.2,0.3,0.3,0.4,0.5c0,0,0,0,0,0c0,0.1,0,0.2,0,0.2
		c0.2,0.9,0.4,1.8,0.7,2.7c0.1,0.5,0.6,0.9,1,1c0,0.1,0.1,0.1,0.1,0.2c0.4,0.7,1.4,1,2.1,0.5c0.3-0.2,0.6-0.5,0.7-0.9
		c0.1-0.4,0-0.8-0.2-1.2c-0.1-0.2-0.2-0.4-0.3-0.6c0.3-0.5,0.4-1,0.2-1.5c0,0,0,0,0,0c0.1-0.6,0-1.1-0.2-1.6c0,0,0,0,0,0
		c0,0,0,0,0-0.1c0.3-0.1,0.7-0.2,1-0.4c0,0,0-0.1,0-0.1c0-0.1,0-0.1,0-0.2c0,0,0,0,0,0c0-0.1-0.1-0.2-0.1-0.3c0,0,0,0,0,0
		c-0.1-0.1-0.1-0.2-0.2-0.3c-0.1-0.2-0.3-0.5-0.5-0.7c-1-1.4-0.2-3.3,1.1-4.1c0.6-0.4,1.6-0.5,2.3-0.3c0.8,0.2,1.3,0.7,1.8,1.4
		c0.7,1,1.2,2.1,1.5,3.3c0.8,0.6,2.1,0.2,2.3-0.9c0.3,0.2,0.5,0.5,0.8,0.8c0,0,0.1,0.1,0.1,0.1c0.1,0.1,0.1,0.2,0.2,0.3
		c0.5,0.6,1.2,1.1,2,1.2c0.1,0,0.3,0,0.4,0c0.1,0.1,0.3,0.1,0.4,0.2c-0.2,0.3-0.3,0.7-0.2,1.1c0,0.1,0.1,0.2,0.1,0.4
		c-0.1,0.4,0,0.8,0.4,1.3c0.3,0.4,0.6,0.6,1,0.6c0,0,0,0,0,0.1c0.1,0.4,0.4,0.7,0.7,0.9c0,0,0.1,0.1,0.1,0.1
		c1.2-0.2,2.4-0.2,3.6,0.4c0.1-0.1,0.2-0.2,0.2-0.3c0,0.2,0.1,0.4,0.2,0.5c0,0,0.1,0,0.1,0.1c0.3,0.2,0.5,0.4,0.7,0.6
		c0.1,0,0.2,0,0.3,0.1c0.1,0,0.3,0,0.4,0c0,0,0,0,0,0c0.1,0.1,0.1,0.2,0.2,0.2c0.1,0.1,0.2,0.2,0.3,0.2c0.9,0.6,1.5,1.4,2,2.3
		c0.3,0.6,1.1,0.9,1.7,0.7c2.9-1,6.6,0.8,7,4.1c0.1,0.9,0.9,1.9,1.9,1.4c2.1-0.8,4.6-0.4,6.3,1c0,0,0,0.1-0.1,0.1
		c0,0-0.1,0.1-0.1,0.2c-0.1,0.2-0.1,0.3-0.2,0.5c0,0.1-0.1,0.2-0.1,0.3c0,0.2-0.1,0.4-0.1,0.5c0,0.1,0,0.1,0,0.2
		c0,0.1,0,0.3,0.1,0.4c0,0.2,0.1,0.4,0.3,0.5c0.1,0.1,0.2,0.2,0.3,0.3c0.1,0.1,0.3,0.2,0.5,0.3c0.2,0.1,0.4,0.1,0.7,0.1
		c0.1,0,0.2,0,0.3,0c0.2,0,0.4,0,0.7-0.1c0.1,0,0.1,0,0.2-0.1c0.1,0,0.2,0,0.3,0.1c0.4,0.1,0.8,0,1.2-0.2c0.5,1.7,1.5,3.2,2.9,4.3
		c0.9,0.7,2.2,0.5,2.5-0.7C77.8,343.5,77.7,339.9,76.6,336.5z"/>
	<path class="st17" d="M82.5,416.5c-0.2-0.4-0.4-0.7-0.8-1c-0.6-0.5-1.4-0.6-2.2-0.8c-0.9-0.2-1.8-0.5-2.7-0.7
		c-0.1-0.2-0.3-0.4-0.5-0.5c-0.5-0.2-1-0.3-1.5-0.2c-0.5,0.1-0.9,0.5-1.2,0.9c-0.5,0.8-0.1,2,0.9,2.2c0.3,0.1,0.6,0.2,1,0.2
		c-0.1,0.1-0.1,0.2-0.1,0.3c-0.2,1.6-0.2,3.2,0.1,4.9c0.2,0.8,1.1,1.3,1.8,1c0.8-0.3,1.2-1,1-1.8c0-0.2-0.1-0.3-0.1-0.5
		c0-0.1,0-0.1,0-0.2c0,0,0,0,0,0c0-0.3-0.1-0.6-0.1-0.9c0-0.2,0-0.4,0-0.5c1,0,2,0,2.9,0c0.5,0,1.1-0.3,1.3-0.7
		C82.7,417.6,82.8,417.1,82.5,416.5z"/>
	<path class="st19" d="M85.8,457.4c-1.4-1.5-2.4-3.3-3.3-5.2c-0.9-1.8-1.4-3.5-1.5-5.5c-0.1-2.2-0.2-4.3-0.7-6.4
		c-0.4-1.5-0.6-3.6-2-4.5c0.3-1.3,0.5-2.7,0.9-4.1c0.7-3,1.7-5.6,1.6-8.7c0-0.1,0-0.2,0-0.3c0.3-0.2,0.5-0.3,0.8-0.5
		c4.4-3.3,3.4-11.3-3-11.2c-1.1,0-2,0-2.8-0.4c-3.2-2.9-9.2-3.2-10,2.2c0,0,0,0.1,0,0.1c-0.7,0.7-1.2,1.6-1.5,2.7
		c-2,7.1-2.4,13.7,1.4,20.3c0.2,0.3,0.3,0.5,0.5,0.7c0,1.5,0.5,2.8,1.3,3.9c0,0.3,0,0.6,0.2,1c0.8,1.7,1.7,3.5,2.5,5.2
		c0.4,0.9,0.8,1.7,1.3,2.6c0.2,0.4,0.4,0.7,0.5,1.1c0,0.1,0.1,0.2,0.1,0.2c-1.8-0.7-3.8-1.1-5.8-1.2c0,0-0.1,0-0.1-0.1
		c-4.2-1.2-8.5-0.7-12.7,0.1c-1.5-0.2-3.1,0.1-4.4,1c-2.9,0.6-5.6,1.9-7.1,4.4c-0.4-0.1-0.8-0.1-1.2,0.1c-1.2,0.7-1.9,1.6-2.2,2.8
		c-0.1,0.2-0.2,0.5-0.3,0.7c-0.1,0.2-0.1,0.5,0,0.7c-0.5,0.4-0.9,0.8-1.4,1.2c-1.4,1.2,0.4,3,1.8,2.4c1.2-0.5,2.4-1.1,3.7-1.3
		c1.3-0.3,2.7-0.1,4,0.1c1.3,0.3,2.6,0.5,3.9,0.8c0.7,0.1,1.4,0.3,2.1,0.4c0.2,0.1,0.5,0.1,0.7,0.2c0.2,0.1,0.2,0.2,0.2,0
		c0,0.8,0.7,1.5,1.5,1.5c1.4-0.1,1.8-1,2.8-1.8c0.9-0.8,2.2-1.1,3.4-1.3c2.8-0.5,5.8-0.1,8.4,0.9c1.1,0.4,2.3,1.1,3.5,0.8
		c1.2-0.3,1.6-1.6,2.8-1.8c1.4-0.2,3-0.1,4.5,0c1.5,0.1,3,0.2,4.6,0.3c0.6,0.5,1.5,0.6,2.1,0C87.9,460.3,86.9,458.8,85.8,457.4z"/>
	<path class="st19" d="M296.7,462.9c-0.4-1-0.8-2.2-1.2-3.2c-1-1.1-1.8-2.5-2.3-3.9c-2.9-0.9-5.4-2.9-8.3-3.8
		c-2.9-0.9-6.1-1.2-9.2-1.5c-3.3-0.3-6.7-0.5-10.1-0.5c-1.3,0-3,0.2-4.7,0.4c0,0,0,0,0,0c0.3-0.2,0.5-0.4,0.7-0.6
		c0.4-0.4,0.8-1,1.1-1.4c0.1-0.1,0.1-0.2,0.2-0.3c0.2-0.4,0.4-0.8,0.5-1.2c0.7-0.3,1.3-0.7,1.9-1.3c0.4-0.5,0.8-1,1.1-1.4
		c0.1-0.1,0.2-0.2,0.2-0.3c0.3-0.5,0.5-1.1,0.7-1.7c0.1-0.1,0.1-0.3,0.1-0.4c0.3-0.8,0.3-1.6,0.1-2.4c0-0.3-0.1-0.6-0.1-0.8
		c0.2-0.3,0.4-0.6,0.6-1c3.2-7.4,5.5-15.3-0.3-22.1c-0.2-0.3-0.5-0.5-0.8-0.8c-0.6-3.3-4.4-5.3-7.5-4.5c-0.8,0.2-1.7,0.6-2.4,1
		c-0.9,0.5-1.7,1.4-2.2,2.3c-2.3,0.8-4.6,1.6-7,2.3c-1.3,0.4-1.4,2-0.4,2.7c0.3,0.2,0.5,0.4,0.7,0.7c0.3,0.4,0.8,0.5,1.2,0.4
		c-0.1,1.2,0.1,2.4,0.8,3.4c1.4,1.8,2,3.9,2.8,6c-0.7,1-1.1,2.1-1,3.3c0.2,1.8,0.3,3.6,0.7,5.3c0.2,0.9,0.5,1.8,0.9,2.6
		c0,0.1,0.1,0.1,0.1,0.2c-0.1,0.1-0.1,0.1-0.2,0.2c-0.2,0.2-0.4,0.4-0.6,0.7c0,0-0.1,0-0.1,0.1c-0.1,0-0.1,0.1-0.1,0.1
		c0.3,2.8-0.7,5.7-2,8.1c0.1,0.1,0.1,0.1,0.2,0.2c-0.1,0-0.3,0.1-0.4,0.2c-0.4,0.7-1,1.1-1.7,1.2c-0.1,0.1-0.2,0.3-0.4,0.4
		c0.1,0.4,0,0.9-0.1,1.5c-0.4,1.1-0.9,2-1.5,2.9c-0.9,1.8-1.6,3.8-2.5,5.6c-0.2,0.3-0.3,0.5-0.5,0.8c0.4,1.4,1.2,2.8,2.3,3.6
		c2.6-2,5.7-3.2,9.2-1.9c0.5,0.2,0.9,0.5,1.2,0.8c0.3,0,0.7-0.1,1-0.1c1.8,1.9,4.7,2.5,7.2,1c1.5-0.9,2.9-1.3,4.7-1.5
		c0.1,0,0.1,0,0.2,0c0.3,0.1,0.5,0.3,0.7,0.4c1.5,1.3,3.2,1.7,4.8,1.4c1.9,1,4.3,0.6,6.1-0.8c1.2,0.3,2.3,0.5,3.5,0.8
		c0.3-0.4,0.8-0.6,1.5-0.8c2.9-0.5,6.4-0.3,9,1.2c0.9-0.7,1.6-1.7,2-2.7C297.1,463.6,296.9,463.3,296.7,462.9z"/>
	<path class="st19" d="M293,313.7c-0.7,0.4-1.4,0.7-2.2,1.1c-0.3,0.2-0.5,0.4-0.6,0.6c-0.9,0.6-1.8,1.2-2.7,1.8
		c-1.7,1.3-3.4,2.7-5.1,4.1c-1.5,1.2-3.1,2.4-4.2,4.1c-0.5,0.7-0.8,1.5-1.2,2.3c-0.7,0.9-1.3,1.9-1.6,3c-0.2,0.6,0.1,1.4,0.7,1.7
		c0.2,0.1,0.4,0.2,0.6,0.2c0.5,0.3,1.1,0.3,1.5,0c0.3-0.1,0.5-0.2,0.7-0.4c0.6-0.7,1.1-1.4,1.7-2c0.3,0.1,0.6,0.1,1,0.1
		c0.8-0.1,1.5-0.7,1.9-1.4c0.3-0.6,0.4-1.2,0.3-1.8c0.1-0.1,0.3-0.2,0.4-0.4c0.9-0.7,0.4-2.2-0.7-2.5c0.4-0.3,0.8-0.6,1.2-1
		c1.5-1.2,2.9-2.5,4.5-3.6c1.7-1.2,3.4-2.3,5.2-3.3C296.2,315.3,294.7,312.8,293,313.7z"/>
	<path class="st19" d="M320.3,311.1c-0.1-0.4-0.4-0.7-0.7-0.9c-0.3-0.2-0.8-0.3-1.2-0.2c-0.4,0.1-0.7,0.3-0.9,0.7
		c-0.2,0.3-0.2,0.6-0.2,1c0,0.4,0,0.7,0,1.1c-0.1,0.3-0.1,0.6-0.2,0.9c0,0,0,0,0,0.1c-0.2-0.5-0.4-1-0.6-1.5
		c-0.1-0.2-0.2-0.3-0.4-0.4c-0.1-0.1-0.3-0.2-0.5-0.3c-0.2-0.1-0.4-0.1-0.6,0c-0.2,0-0.4,0.1-0.6,0.2c-0.3,0.2-0.6,0.5-0.7,0.9
		c0,0.1,0,0.3-0.1,0.4c0,0.3,0.1,0.5,0.2,0.8c0.3,0.6,0.5,1.2,0.8,1.8c0.1,0.2,0.2,0.3,0.4,0.4c0.1,0.1,0.3,0.2,0.5,0.3
		c0.2,0.1,0.4,0.1,0.6,0c0.1,0,0.3-0.1,0.4-0.1c0.1,0.1,0.1,0.2,0.2,0.3c0.3,0.3,0.7,0.5,1.1,0.4c0.4,0,0.8-0.1,1.1-0.4
		c0.6-0.8,1.1-1.6,1.3-2.5C320.5,313,320.5,312.1,320.3,311.1z"/>
	<path class="st19" d="M42.1,309.6c-1.7-1-3.3-1.9-5-2.9c-2.5-1.5-5.1-3.1-8-3.8c-0.1-0.2-0.3-0.5-0.5-0.7c-0.6-0.6-1.3-0.9-2.1-0.9
		c-0.7,0-1.5,0.2-2,0.6c-0.6,0.4-1.1,0.9-1.6,1.6c-0.2,0.3-0.2,0.8-0.2,1.2c0.1,0.3,0.4,0.7,0.7,0.9c0.3,0.2,0.8,0.3,1.2,0.2
		l0.4-0.2c0.2-0.1,0.3-0.2,0.4-0.3c0.2-0.2,0.3-0.4,0.5-0.5c0.1,0.3,0.3,0.6,0.7,0.8c4.5,2.2,9,4.6,13.6,6.5c0,0,0.1,0,0.1,0
		c0.3,0.2,0.7,0.4,1,0.6c0.1,0,0.2,0.1,0.2,0.2c-0.2,1.5,2,2.5,2.8,1C45.2,311.8,43.6,310.5,42.1,309.6z"/>
	<path class="st19" d="M43.3,322.7c-0.6-1-1.5-1.5-2.5-1.8c-1-0.3-1.9-0.6-2.9-0.9c0.2-0.6,0.2-1.3,0-1.9c-0.3-0.7-1-1.3-1.8-1
		c-0.6,0.2-1.2,0.9-1.1,1.6c-0.9-0.2-1.7,0.5-1.8,1.5c0,0.3,0,0.5-0.1,0.8c0,0.6,0.5,1.4,1.1,1.4c1.7,0.3,3.4,0.7,5.1,1.2
		c0.3,0.1,0.7,0.2,1,0.3c0,0,0,0,0,0c0.1,0,0.1,0.1,0.2,0.1c0,0,0,0,0.1,0.1c0,0,0.1,0.1,0.1,0.1c0,0,0,0,0.1,0.1
		c0,0,0.1,0.1,0.1,0.1c0,0,0,0,0,0c-0.1-0.2-0.1-0.1,0,0.1c0,0,0,0,0,0c0,0.1,0,0.3,0,0.4c0,0.1-0.1,0.2-0.1,0.2c0,0.2,0,0.4,0,0.6
		c0,0.7,0.6,1.4,1.3,1.5c0.7,0.1,1.5-0.3,1.6-1.1C43.8,324.9,44,323.7,43.3,322.7z"/>
	<path class="st19" d="M29.1,322c-0.6-2.2-1.3-4.4-2-6.6c-0.6-1.8-3.5-1.1-2.9,0.8c0.6,2,1.3,4,1.8,6c0.4,1.5,1,3.4,0.3,4.9
		c-0.3,0.7-0.2,1.6,0.5,2.1c0.6,0.4,1.7,0.2,2.1-0.5C29.9,326.5,29.7,324.2,29.1,322z"/>
	<path class="st19" d="M64.1,322.7c-0.7-1.3-2-2.3-3.4-2.7c-0.1,0-0.3,0-0.4-0.1c-0.2,0-0.4,0-0.6,0.1c-0.3,0.1-0.6,0.3-0.7,0.6
		c-0.1,0.2-0.2,0.5-0.2,0.8c0,0.4,0.2,0.8,0.4,1.1c0.4,0.4,0.7,0.8,1.1,1.2c0.2,0.3,0.7,0.4,1.1,0.4c0,0,0.1,0,0.1,0
		c0,0,0,0,0.1,0.1c0.2,0.3,0.5,0.6,0.9,0.7c0.4,0.1,0.8,0.1,1.2-0.2c0.3-0.2,0.6-0.5,0.7-0.9C64.4,323.4,64.3,323,64.1,322.7z"/>
	<path class="st19" d="M77.7,341.1c-0.4-2.3-1-4.6-1.6-6.9c-0.2-0.8-1-1.2-1.7-1c0-0.1-0.1-0.2-0.1-0.4c-0.2-1.2-0.8-2.4-1.7-3.2
		c-0.3-0.3-0.7-0.6-1.1-0.8c-1.7-0.9-3.2,1.6-1.5,2.6c0.2,0.1,0.3,0.2,0.5,0.4c0.4,0.4,0.7,1,0.9,1.6c0,0.2,0.1,0.5,0,0.7
		c0,0.6,0.2,1,0.6,1.2c0.4,1.3,0.9,2.6,1.3,3.9c0.2,0.6,0.6,0.9,1.1,1c0.1,0.3,0.2,0.7,0.2,1c-0.2-0.3-0.5-0.5-0.7-0.6
		c-0.2-0.5-0.6-1-1.4-1.1c-0.6,0-1.1,0-1.7,0c-0.1-1.5-2.6-2.1-2.9-0.3c-0.1,0.4-0.2,0.8-0.4,1.2c-0.6,1.3,0.4,2.4,1.7,2.2
		c0.2,0,0.4,0,0.6,0c0.6,0.1,1.1,0.2,1.7,0.1c0.5,0.1,0.9,0.4,1.2,1c0.6,1.2,1,2.5,1.1,3.8c0.1,1.7,2.4,2.1,2.9,0.4
		C77.5,345.7,78.1,343.5,77.7,341.1z"/>
	<path class="st19" d="M328.2,297.3c-3.9-1.6-7.3,0.3-10.4,2.6c-0.4,0.1-0.8,0.3-1.2,0.4c-3,1.2-5.7,3.1-6.9,6.2
		c-0.3,0.8,0.3,1.6,1,1.8c0.9,0.2,1.5-0.3,1.8-1c1-2.4,3.6-3.8,5.9-4.5c0,0,0,0,0,0c0.2,0,0.4-0.1,0.5-0.2c3.1-0.9,6.2-1.4,9.1-2.8
		C329.1,299.4,329.2,297.8,328.2,297.3z"/>
	<path class="st19" d="M327.6,311.3c0-0.2-0.1-0.4-0.2-0.6c-0.2-0.3-0.5-0.6-0.9-0.7c-0.4-0.1-0.8-0.1-1.2,0.2l-0.3,0.2
		c-0.2,0.2-0.3,0.4-0.4,0.7c0,0,0,0.1,0,0.1l-0.1,0c-0.2,0-0.4,0-0.6,0.1c-0.1,0-0.2,0.1-0.3,0.2c-0.1,0.1-0.2,0.2-0.3,0.3
		c-0.1,0.1-0.2,0.2-0.2,0.3c0,0.1-0.1,0.2-0.1,0.3c-0.1,0.1-0.2,0.1-0.2,0.2c-0.3,0.3-0.5,0.7-0.4,1.1c0,0.4,0.1,0.8,0.4,1.1
		c0.1,0.1,0.2,0.2,0.3,0.2c0.2,0.1,0.5,0.2,0.8,0.2c0.3,0,0.7-0.1,1-0.3c0,0,0,0,0.1-0.1c0.2,0.1,0.3,0.1,0.5,0.1
		c0.3,0.1,0.5,0.1,0.8,0c0.2,0,0.4-0.1,0.5-0.3c0.2-0.1,0.3-0.2,0.4-0.4c0.1-0.2,0.2-0.5,0.2-0.8c0-0.3,0-0.6,0-0.8
		c0-0.2,0.1-0.5,0.2-0.7C327.7,311.7,327.7,311.5,327.6,311.3z"/>
	<path class="st19" d="M313.7,316.6c0-0.2-0.1-0.4-0.2-0.6c-0.2-0.3-0.5-0.6-0.9-0.7c-0.4-0.1-0.8-0.1-1.2,0.2
		c-0.3,0.2-0.5,0.4-0.8,0.6c-0.2,0.2-0.4,0.5-0.6,0.7c0,0,0,0,0,0.1l-0.1,0c-0.2,0.2-0.3,0.4-0.4,0.7c-0.1,0.2-0.2,0.4-0.2,0.6
		c-0.1,0.2-0.1,0.4,0,0.6c0,0.2,0.1,0.4,0.2,0.6c0.1,0.2,0.2,0.3,0.4,0.4c0.1,0.1,0.3,0.2,0.5,0.3c0.4,0.1,0.8,0.1,1.2-0.2
		c0.1-0.1,0.2-0.2,0.3-0.2c0.2-0.2,0.3-0.4,0.4-0.6c0.1-0.2,0.2-0.4,0.3-0.6c0.2-0.2,0.4-0.4,0.6-0.6c0,0-0.1,0.1-0.1,0.1
		c0.2-0.1,0.3-0.2,0.4-0.4c0.1-0.1,0.2-0.3,0.3-0.5C313.7,317,313.8,316.8,313.7,316.6z"/>
	<g>
		<path class="st19" d="M286.7,331c-0.4-0.6-1.4-1-2.1-0.5c-0.7,0.5-1.2,1.1-1.5,1.9c-0.2,0.4-0.3,0.8-0.5,1.2c0,0,0,0,0,0.1
			c0,0,0,0.1,0,0.1c-0.1,0.1-0.1,0.3-0.2,0.4c0,0,0,0,0,0.1c0,0,0,0,0,0c0,0,0,0-0.1,0.1c0,0,0,0,0,0c0,0-0.1,0.1-0.1,0.1
			c0,0,0,0,0,0c-0.1,0-0.2,0.1-0.2,0.1c-0.2,0.1-0.5,0.1-0.7,0.2c-0.6,0.2-1.3,0.3-1.9,0.5c-0.1,0-0.3,0-0.4,0.1l-0.5,0.2
			c-0.7,0.3-1.3,1-1,1.8c0.3,0.8,1,1.3,1.8,1c1-0.3,1.9-0.5,2.9-0.8c1-0.3,1.9-0.6,2.6-1.4c0.6-0.7,0.9-1.4,1.2-2.2
			c0-0.1,0.1-0.2,0.1-0.2c0,0,0,0,0,0c0.1-0.1,0.1-0.3,0.2-0.4c0-0.1,0.1-0.1,0.1-0.2c0,0,0,0,0,0c0,0,0.1-0.1,0.1-0.1
			c0,0,0,0,0.1-0.1c0,0-0.1,0-0.1,0.1C286.8,332.6,287.2,331.7,286.7,331z"/>
		<path class="st19" d="M285.8,333.8C285.8,333.8,285.8,333.8,285.8,333.8C286,333.5,285.8,333.6,285.8,333.8z"/>
		<path class="st19" d="M286.3,333C286.4,332.9,286.4,332.9,286.3,333L286.3,333z"/>
	</g>
	<path class="st19" d="M327.4,220.4c-16.5,6-32.1,14.9-45.4,26.4c-3.4,2.9-6.4,6.6-5.8,11.3c0.1,0.9,1.5,1.4,2.2,0.9
		c2.2-1.5,4.3-3.3,6.2-5.3c1.3-1.4-0.8-3.5-2.1-2.1c-0.9,1-1.9,1.9-3,2.8c1-2.4,3.4-4.5,5.2-6c3.1-2.6,6.3-5.1,9.6-7.4
		c6.7-4.7,13.8-8.8,21.1-12.4c4.2-2,8.4-3.8,12.8-5.3C330,222.6,329.2,219.7,327.4,220.4z"/>
	<path class="st19" d="M321,233.8c-0.7-0.4-1.6-0.1-2.1,0.5c-0.4,0.6-0.6,1.2-0.7,1.9c-0.1,0.3-0.1,0.6-0.2,1c0,0.1-0.1,0.2-0.1,0.3
		c0,0.1,0,0.1-0.1,0.2c-0.1,0.1-0.1,0.2-0.2,0.3c0,0,0,0,0,0c0,0,0,0-0.1,0.1c0,0,0,0,0,0c-0.7-0.1-1.4-0.2-2.1-0.1
		c-1.4,0.1-2.8,0.7-4.1,1.3c-0.6,0.3-1.1,0.7-1.5,1.2c-0.2,0.3-0.4,0.6-0.5,1c0,0.1,0,0.1,0,0.2c-0.1,0.1-0.3,0.1-0.4,0.2
		c-0.6,0.6-0.6,1.6,0,2.1c0.9,0.8,2.3,0.7,2.9-0.4c0.3-0.4,0.3-0.8,0.4-1.3c0,0,0,0,0,0c0,0,0.1-0.1,0.1-0.1c0.1,0,0.1-0.1,0.2-0.1
		c0.1-0.1,0.3-0.1,0.4-0.2c0.3-0.1,0.6-0.3,0.9-0.4c0.5-0.2,1.4-0.5,1.8-0.5c0.9,0,1.7,0.2,2.5,0c0.8-0.2,1.5-0.7,1.9-1.4
		c0.4-0.6,0.6-1.3,0.8-2c0.1-0.3,0.1-0.6,0.2-1c0-0.2,0.1-0.3,0.1-0.5c-0.1,0.1,0.2-0.3,0.2-0.4C322,235.2,321.7,234.2,321,233.8z"
		/>
	<path class="st19" d="M328.1,242.9c-0.2-0.3-0.5-0.6-0.9-0.7c-0.4-0.1-0.8-0.1-1.2,0.2c-0.7,0.4-1.1,1.1-1.3,1.8
		c-0.1,0.4-0.1,0.9-0.2,1.3c-0.1,0-0.1,0.1-0.2,0.1c-0.3,0.3-0.4,0.6-0.4,1.1c0,0.2,0,0.4,0,0.6c0,0.2,0.1,0.6,0.2,0.8
		c0.2,0.3,0.4,0.5,0.7,0.6c0.6,0.2,1.2,0.1,1.6-0.3c0.9-0.8,1-1.9,1.1-3c0-0.2,0.1-0.3,0.1-0.5c0,0,0,0,0,0c0,0,0,0,0,0
		c0.3-0.2,0.5-0.5,0.5-0.8C328.4,243.7,328.3,243.2,328.1,242.9z"/>
	<path class="st19" d="M285.5,253.6c-0.8,0-1.5,0.7-1.5,1.5c0,0.1,0,0.2,0,0.4c0,0,0,0.3,0,0.3c0,0.1-0.1,0.2-0.1,0.4
		c0,0.1-0.1,0.4-0.1,0.3c-0.1,0.3-0.5,0.9-0.7,1.1c-0.2,0.2-0.4,0.4-0.6,0.5c0,0-0.2,0.1-0.2,0.1c-0.1,0.1-0.3,0.2-0.4,0.2
		c-0.5,0.3-1.2,0.5-1.8,0.8c-2.2,1.1-3.9,3.4-4.3,5.9c-0.1,0.8,0.2,1.6,1,1.8c0.7,0.2,1.7-0.2,1.8-1c0-0.3,0.1-0.6,0.2-0.9
		c0-0.1,0.1-0.3,0.1-0.4l0-0.1c0,0,0,0,0,0c0.1-0.3,0.2-0.5,0.4-0.7c0.1-0.1,0.2-0.3,0.3-0.4c-0.1,0.2,0.1-0.2,0.1-0.2
		c0.8-0.9,1.5-1.2,2.7-1.7c2.6-1.1,4.4-3.4,4.5-6.3C287,254.3,286.3,253.6,285.5,253.6z"/>
	<path class="st17" d="M286.7,386.1c-20.7-0.5-41.9-1.1-62.5,0.6c-0.3,0-0.6,0.1-0.8,0.3c-6.5-0.3-13.1-0.6-19.7-0.6
		c-8.5,0-16.9,0.2-25.3,0.8c-0.9,0-1.7-0.1-2.6-0.1c-3.7-0.5-7.5-0.9-11.2-1.2c-5-0.4-10.5-1.5-15.3,0.2c0,0,0,0,0,0
		c-8.5-1.2-17.5-0.5-25.7-0.1c-7.2,0.3-14.4,0.6-21.6,0.8c-7.2,0.3-14.8-0.2-21.7,2.3c-1.2,0.1-2.5,0.3-3.7,0.6
		c-0.5,0.1-0.9,0.3-1.2,0.5c-0.5,0-0.9,0-1.4,0.1c-5.8,0.2-11.4-0.2-17.2-0.3c-2.2,0-2.6,2.7-1,3.8c0.4,0.3,0.7,0.5,1.1,0.8
		c0,0.2,0,0.5,0,0.8c1.1,8.3,10.2,12.9,17.1,15.8c8.1,3.4,17.3,6.4,26.2,6.6c0.2,0.1,0.4,0.3,0.5,0.4c1.9,1.3,4.9,1.6,7.2,0.8
		c0.1,0.1,0.2,0.1,0.4,0.1c13.1,4.1,26.6,4.5,40.3,5.7c7.3,0.6,14.7,1.2,22,1.5c0.7,0,1.5,0.1,2.3,0.2c0.5-0.3,1-0.5,1.8-0.5h14.6
		c0.5-0.3,1.1-0.6,1.5-0.9c0.1-0.1,0.2-0.2,0.3-0.3c1.9,0.5,4,0,6.2-0.2c4-0.3,8-0.6,12-1.1c1-0.1,1.7-0.7,2.1-1.4
		c9-0.6,17.8-2.1,26.3-5.2c3.4-0.1,6.7-1,10-1.8c5-1.3,10.1-2.7,14.6-5.2c4.2-2.2,8.2-5,12-7.9c4.5-3.4,8.6-8,13.8-10.3
		C291,390.2,289.4,386.2,286.7,386.1z"/>
	<path class="st17" d="M35.7,246.1c-0.7-1-1.4-1.8-2.7-2.2c0,0,0,0-0.1,0c-0.7-0.6-1.8-0.9-2.6-0.8c-1.3,0.2-2.2,1.1-2.7,2.3
		c-0.1,0.4-0.3,0.7-0.4,1.1c-0.4,1.1,0,2.3,0.7,3.2c0.8,1,1.7,1.3,2.9,1.4c0.4,0.1,0.9,0,1.3,0c0.4,0,0.9-0.1,1.3-0.2
		c0.2-0.1,1.7-0.7,0.6-0.3c0.9-0.4,1.6-0.8,2-1.8C36.2,248,36.3,246.9,35.7,246.1z"/>
	<path class="st19" d="M41.8,250.9c-0.2-0.4-0.4-0.7-0.7-1c-0.6-0.9-1.1-1.7-1.9-2.3c0.2-1.1,0-2.3-0.9-3.3c0,0-0.1-0.1-0.1-0.1
		c0.2-0.3,0.3-0.6,0.4-0.9c0-0.1,0-0.3,0-0.4c0.6-0.8,0.9-1.8,0.6-2.9c-1-3.2-4.3-4.6-7.2-5.6c-0.3-0.1-0.6-0.1-0.9-0.1
		c-2.7-1.2-5.4-2.4-8.1-3.7c-3.2-1.5-6.2,1.5-4.7,4.7c0.9,2.1,2.7,3.1,4.8,3.3c0.4,0,0.7,0,1-0.1c1.4,0.6,2.8,1.2,4.2,1.9
		c0.8,0.3,1.5,0.5,2.2,0.4c0,0,0,0,0,0c-2.6,0.2-4.6,2.9-3.9,5.8c0.7,2.8,2.9,3.9,5.4,4.8c0.8,0.3,1.9,0.6,2.7,1.1
		c0,0.1,0.1,0.2,0.2,0.5c0.2,0.8,0.7,1.4,1.2,2c1,0.9,3,1.5,4.3,0.5c0.1-0.1,0.1-0.1,0.2-0.2C42.1,254.2,42.7,252.6,41.8,250.9z"/>
	<path class="st19" d="M70.7,262.8c0.2-0.5,0.1-1.1-0.3-1.6c-3.7-6.4-10-10.8-16.7-13.4c-0.8-0.3-1.8,0.1-2.3,0.6
		c-0.5,0.5-0.8,0.9-0.7,1.7c0.1,1.2,0.7,1.9,1.8,2.3c5,1.9,9,5.1,12.5,8.9c0,0.2,0,0.5,0,0.7c0.2,0.8,0.2,1.5,0.5,2.2
		c-0.8-0.1-1.7,0.3-2.3,1.1l0.1-0.3c-1.5,0.7-1.8,3.1-0.5,4.1c0.5,0.4,1,0.8,1.4,1.2c0.5,0.4,1.1,0.6,1.7,0.9c1.2,0.7,2.8,0,3.2-1.2
		c0.2-0.1,0.4-0.2,0.5-0.3c0.4-0.3,0.7-0.6,1-1.1c0.6-1.1,0.7-2.5,0.7-3.7C71.3,264.2,71.2,263.5,70.7,262.8z"/>
	<path class="st19" d="M23.6,253.8c-1.6-1.7-9.2-11-5.2-13c0.7-0.3,0.7-1.2,0.5-1.8c-0.1-0.2-0.2-0.4-0.2-0.5
		c-0.3-0.8-1.4-1-2.1-0.9c-3.7,0.9-3.4,6-2.9,9c0.7,4.4,3.2,7.9,6.2,11.1C22.2,260.2,26.1,256.3,23.6,253.8z"/>
	<path class="st19" d="M58.2,261.5C58.3,261.7,58.3,261.7,58.2,261.5c-0.1-0.2-0.2-0.3-0.4-0.5c-0.3-0.3-0.6-0.5-1-0.6
		c-0.3-0.1-0.7-0.1-1,0c-0.1-0.2-0.2-0.3-0.4-0.4c-0.8-0.6-1.8-0.5-2.6,0.2c-0.3,0.2-0.5,0.5-0.7,0.8c-0.6,1.2-0.1,2.7,1.2,3.1
		c0,0,0,0,0.1,0c0.3,1.4,1.7,2.1,3,1.4c0.4-0.2,0.8-0.6,1-1.1C58.6,264.1,59.3,262.5,58.2,261.5z"/>
	<path class="st19" d="M72.8,271c0-0.9-1.2-1.7-2-1.1c-0.9,0.7-1.3,1.4-1.6,2.5c-0.3,0.9-0.4,2-0.4,3c0,1.1,1,1.9,2.1,1.8
		c1.2-0.2,1.7-1.2,1.5-2.3C72.2,273.5,72.7,272.3,72.8,271z"/>
</g>
<g id="shade">
	<path class="st20" d="M249.7,102.1c-1.4-4.7-3-13.9-6.9-18.8c-1.9-6.2-4.6-12.2-8.3-17.8c-10.5-15.9-28.5-28.3-48.3-25.4
		c-1.8,0.3-1.9,3-0.5,3.7c14.1,7.6,29.5,16.3,38.6,30.2c4.9,7.6,8,16.7,9.5,25.6c0.8,5,1,10,1.2,15c0.1,2.2,0.3,4.3,0.6,6.4
		c-0.2,1.4-0.2,2.9-0.1,4.3c-1,3-1.5,6,0.5,8.9c1.6,2.3,4,3.4,6.8,2.8c0.3-0.1,0.7-0.1,1-0.2c2.5-0.6,4.4-2.8,5.2-5.2
		C251.6,122.2,252.5,111.8,249.7,102.1z"/>
	<path class="st13" d="M252.5,106.8c-0.8-0.2-1.5,0.2-1.9,0.8c-0.8,1.1-0.5,2.7,0,3.9c0.3,0.8,1.5,0.7,1.9,0
		c0.2-0.4,0.4-0.8,0.7-1.2c0.1-0.2,0.2-0.3,0.3-0.5c0.2-0.4,0.2-0.9,0.3-1.3C253.8,107.8,253.2,107,252.5,106.8z"/>
	<path class="st21" d="M296.8,168.6c-0.4-5.4-1.7-10.9-3.5-16.1c-3.3-9.6-9.3-21.2-19.8-24.4c-0.1,0-0.1,0-0.1,0
		c-1.4-1.2-2.8-2.3-4.2-3.4c-5.2-4-12-9.9-18.7-10.5c-2-0.2-3.2,2.7-1.7,4.1c3.6,4.8,10.3,7.4,15.1,10.9c5.5,4,10.8,8.7,14.8,14.3
		c3.9,5.4,6.1,11.3,6.8,17.9c0.7,6.3,0.9,12.6,4.3,18.2c1.9,3,6.2,1.6,6.4-1.7c0-0.1,0-0.2,0-0.3C297.9,175.3,297,171.1,296.8,168.6
		z"/>
	<path class="st6" d="M253.2,149.9c-2.3-4-5.3-7.7-8.9-10.7c-6.9-5.7-17.8-12-26.8-8.8c-0.4,0.1-0.7,0.4-0.8,0.8
		c-4.9-0.8-9.8-0.7-13.7,1.1c-0.8,0.4-0.6,1.7,0.3,1.9c5.1,1.4,10.7,0.7,15.9,1.9c5.3,1.3,10.4,3.5,14.9,6.7
		c4.4,3.1,9.3,7.2,11.7,12.1c1.8,3.6,1.7,7.9,6.6,8c1.7,0.1,2.9-1.2,3.5-2.7C257.2,157.1,254.7,152.6,253.2,149.9z"/>
	<path class="st6" d="M169.4,146.3c-1.6-5.2-5-9.2-10.1-11.4c-6-2.5-12.8-3.5-19.3-3.5c-6.3,0-14.1,0.3-19.8,3.2
		c-0.5,0.3-0.2,1,0.3,1c5.4,0.1,10.5-0.9,16-0.3c5.7,0.6,11.4,1.9,16.8,3.9c5,1.9,8.5,4.8,9.6,10.3c0.7,3.5-0.4,8.8,2.6,11.3
		c1,0.8,2.1,0.8,3.1,0C172.1,158,170.6,150.2,169.4,146.3z"/>
	<path class="st20" d="M148.6,91.5c-0.4-0.4-1.2-0.3-1.4,0.4c-0.3,1.8,0,3.6-0.5,5.4c-0.3,1-0.7,1.9-1.1,2.8
		c-0.2-0.2-0.4-0.3-0.6-0.3c-3.4-0.7-6,0.5-9,2.1c-3,1.6-7.1,3.4-9.5,5.8c-1.7,1.6-2.4,4.4-1.2,6.6c1.5,2.8,4.3,2.8,6.9,1.8
		c5.7-2.1,11.7-5.6,15.1-10.8C149.7,101.8,152.2,95,148.6,91.5z"/>
	<path class="st20" d="M219.7,105.8c-4.5-2.6-9.2-3.9-14.2-5.2c-2.5-0.7-5-1.5-7.1-3c-2.1-1.6-2.9-4-5-5.6c-2.1-1.7-4.7-0.5-5,2.1
		c-0.6,4.3,3.5,8.2,7.3,10.4c1.5,1.6,3.1,3.1,5.1,4.2c5.2,3.1,11.2,3.8,17.1,3.9C221.4,112.6,222.7,107.6,219.7,105.8z"/>
	<path class="st22" d="M328,221.3c-3.5-0.6-6.9,1.7-9.9,3.2c-4.4,2.2-8.7,4.6-12.9,7.1c-7.4,4.5-15.6,9.2-21.9,15.2
		c-3.3,3.1-9.7,9.3-7,14.3c0.2,0.3,0.7,0.4,1,0.1c1.1-1.3,1.4-2.7,2.2-4.2c1.2-2.4,3.1-4.5,5.3-6.1c3.8-2.9,8.2-5.3,12.2-7.9
		c4.4-2.8,8.9-5.6,13.4-8.2c2.4-1.4,4.8-2.7,7.3-4c2-1,5.3-3.1,8-3.7c1.4,3,0.8,6.4,2,9.6c1.2,3.1,5.1,3.8,7,0.9
		C337.9,232.5,334.5,222.4,328,221.3z"/>
	<path class="st22" d="M328.5,299.3c-3.3-1.3-7.1-0.1-10.2,1.3c-4.8,2.2-9.4,5-14,7.6c-7.6,4.4-16.7,8.8-22.6,15.5
		c-2.1,2.4-8.9,12.7-4.4,15.2c1,0.6,2.6-0.1,2.5-1.4c-0.5-4.5,4.2-9.7,7.4-12.3c4.1-3.4,8.7-6.2,13.2-9c4.5-2.8,9-5.6,13.7-8.2
		c2.1-1.2,4.3-2.8,6.5-3.6c5.8-2,6.9-0.1,7.9,3.9c0.2,0.7,0.9,1,1.6,0.9C335.8,307.8,332.4,300.9,328.5,299.3z"/>
	<path class="st22" d="M69.9,263.2c-2.4-7.1-10-12.4-15.7-16.8c-5.7-4.4-12-9.3-19-11.5c-4.7-1.5-13.8-3.8-18.2-0.8
		c-4.3,2.8-1.9,11.2,0.6,14.3c0.2,0.3,0.8,0.1,0.9-0.2c0.6-2.3-0.1-4.4,0.2-6.8c0.2-2.2,0.3-3.8,2.9-4c1.5-0.1,3.8,1.1,5,1.6
		c4.6,2.2,8.8,5.8,12.9,8.8c4.3,3.1,8.6,6.2,12.8,9.5c4.1,3.2,7.3,7.5,11.5,10.4C66.8,269.9,71.1,266.5,69.9,263.2z"/>
	<path class="st22" d="M71.7,330.4c-2.2-6.1-9.4-10.9-14.6-14.6c-5.8-4.1-12.9-7.6-19.9-9.1c-4.5-1-12.2-3.1-15.9,0.8
		c-3.4,3.5-1.1,10.8,1.8,13.8c0.5,0.5,1.1,0.2,1.4-0.4c0.8-2.2,0.3-3.8,0.4-6c0-1.2,0-3.8,1.5-4.3c0.7-0.2,2.3,0.5,3,0.8
		c4.9,1.7,9.8,4.5,14.3,7c4.2,2.3,8.3,5,12.2,7.8c3.9,2.8,7,6.9,11.5,8.8C69.7,336.1,72.6,332.9,71.7,330.4z"/>
	<path class="st23" d="M272.7,208.7c-0.4-0.4-0.8-0.7-1.2-1c-0.5-1.2-1.6-2-3-1.7c-4.3-1.6-9.1-0.4-12.8,2.7
		c-53,45.5-108.9,87.6-167.2,126.1c-5.4,3.6-7.7,10.6-4.3,16.4c3.1,5.4,11,7.9,16.4,4.3c60-39.6,117.5-83,172-129.8
		C277.6,221.4,277,213,272.7,208.7z"/>
	<path class="st21" d="M285.9,387.4c-0.5-0.1-1-0.1-1.5,0c-1.4-2.3-4.5-3.9-7.3-2.2c-8,4.6-15.7,9.4-24.3,13c-9,3.7-18.5,6.1-28,8.2
		c-9.6,2.1-18.9,4.9-28.4,7.6c-4.6,1.3-9.5,2.3-14,3.8c-4.7,1.6-9.1,3.1-14.1,4c-0.8,0.1-0.9,1.4-0.2,1.7c9.1,4.5,18.1,4.8,27.8,2.5
		c2.6-0.6,5.3-1.3,7.9-2c2.6,0.9,5.7,0.4,8.5-0.1c5.3-0.9,10.6-1.8,15.9-3c9.4-2,18.8-4.2,27.7-7.7c7.8-3,15.2-7.1,21.7-12.5
		C278.6,399.7,290.1,388.2,285.9,387.4z"/>
	<path class="st22" d="M263.3,410.1c-2.3-1.4-5.3,1.4-3.8,3.8c2.5,3.8,4.5,7.1,3.9,11.9c-0.6,5.3-3.3,10.7-5.7,15.4
		c-1.4,2.9-4.4,7-3,10.4c0.8,2,2.3,2.3,4.3,1.4c3.8-1.6,5.6-6.7,7.1-10.1c1.9-4,3.8-8.3,4.9-12.6
		C272.8,422.9,270.1,414.2,263.3,410.1z"/>
	<path class="st22" d="M294.9,456.9c-7.8-9.4-25.1-7.6-34-1.2c-0.6,0.4-0.6,1.4,0.2,1.5c4.9,1.2,9.4,0.9,14.3,1.3
		c5.4,0.4,9.5,2.6,13.9,5.6C293.9,467.2,298,460.6,294.9,456.9z"/>
	<path class="st22" d="M81.7,414.6c-0.1-0.4-0.5-0.7-0.9-0.7c-4.4,0.2-6.6,7.9-7.5,11.4c-0.8,3.5,4.7,4.9,5.3,1.4
		c0.4-2.3,0.9-4.6,1.8-6.8C81,418.3,82.2,416.4,81.7,414.6z"/>
	<path class="st22" d="M81.6,444.9c-2.4-6.9-7.7-12.5-9.6-19.6c-0.5-1.8-0.3-13.3-3.5-13.4c-5.1-0.1-4.9,9.4-4.5,13.3
		c-0.3-0.1-0.7,0.2-0.6,0.5c0.4,0.9,0.7,1.9,1.1,2.8c1.6,6.6,5.5,12.2,7.7,18.7c-7-0.9-14.1-0.7-20.8,1.8c-5.4,2-13.4,6.1-15.2,12
		c-0.4,1.5,1,2.8,2.4,2.4c5.3-1.4,9.1-6.5,14.4-8.3c6.1-2.1,12.9-0.8,19.1,0.6c3.5,0.8,5.6-2.4,5.3-5.1
		C80.3,450.5,82.8,448.2,81.6,444.9z"/>
	<path class="st24" d="M187.9,41.4c-22,1.5-45.3,3.2-64,16.1c-4.7,3.2-8.9,7-12.4,11.5c-1.2,1.5,0.9,3.6,2.1,2.1
		c13.1-16.7,34.6-22.8,54.8-25.1c6.5-0.7,12.9-1.2,19.4-1.6C189.8,44.3,189.9,41.3,187.9,41.4z"/>
	<path class="st24" d="M83.1,130.4c-13.6,9.3-23.9,23-29,38.7c-0.6,1.8,2.3,2.6,2.9,0.8c4.8-14.9,14.7-28.1,27.6-36.9
		C86.2,132,84.7,129.4,83.1,130.4z"/>
	<g>
		<g>
			<path class="st23" d="M86,227.1c44.8,38.9,91.2,76,137.3,113.3c6.9,5.6,13.8,11.2,20.7,16.7c5.1,4,12,5,17,0
				c4.2-4.2,5.1-12.9,0-17C219,307,177.8,272.9,136.8,238.7c-11.3-9.4-22.6-18.9-33.8-28.5c-4.9-4.2-12.2-4.8-17,0
				C81.7,214.5,81.1,222.9,86,227.1L86,227.1z"/>
		</g>
	</g>
	<g>
		<g>
			<path class="st23" d="M185.3,273.1c11.1-8.7,21.6-18,31.7-27.8c1.4-1.4-0.7-3.5-2.1-2.1c-10,9.9-20.6,19.2-31.7,27.8
				C181.7,272.2,183.8,274.3,185.3,273.1L185.3,273.1z"/>
		</g>
	</g>
	<g>
		<g>
			<path class="st23" d="M199.4,268c7.9-5.5,15.2-11.6,22-18.4c1.4-1.4-0.8-3.5-2.1-2.1c-6.6,6.6-13.7,12.6-21.4,17.9
				C196.3,266.5,197.8,269.1,199.4,268L199.4,268z"/>
		</g>
	</g>
	<g>
		<g>
			<path class="st23" d="M184.9,275.2c7-7.5,14.9-14.1,23.7-19.4c1.6-1,0.1-3.6-1.5-2.6c-9,5.4-17.2,12.1-24.3,19.9
				C181.5,274.4,183.6,276.6,184.9,275.2L184.9,275.2z"/>
		</g>
	</g>
</g>
<g id="shape">
	<g>
		<g>
			<g>
				<path d="M95.4,166.2c-1.2-6.9,1.1-13.7,5.1-19.3c4.3-5.9,10.5-10.1,17.4-12.4c7.7-2.6,15.9-3.1,23.9-2.8
					c7.4,0.3,16.3,0.5,21.6,6.5c6.4,7.1,5.9,17.4,5.5,26.3c-0.1,1.9,2.9,1.9,3,0c0.4-8.8,0.7-18.4-4.5-26c-2.3-3.4-5.3-5.9-9.1-7.3
					c-4-1.5-8.5-1.9-12.8-2.2c-16.4-1.3-35,0.9-46,14.5c-5.4,6.6-8.4,15-6.9,23.5C92.8,168.9,95.7,168.1,95.4,166.2L95.4,166.2z"/>
			</g>
		</g>
		<g>
			<g>
				<path d="M95.1,167.2c3.3-5.6,11.5-5.8,14.9-0.2c0.8,1.3,2.7,0.7,2.8-0.8c0.3-3.1,3.8-4.9,6.6-4.6c3.6,0.3,6.5,3.2,8.5,6
					c0.6,0.8,2.1,1.1,2.6,0c1.5-3.2,4.7-5.5,8.2-5.7c3.7-0.2,7.2,1.8,9.1,4.9c0.6,1,2.5,1,2.7-0.4c0.5-3.1,3.9-4.2,6.7-4.2
					c3.9,0,7.7,1.9,10.5,4.6c1.4,1.3,3.5-0.8,2.1-2.1c-3.4-3.3-8.4-5.7-13.3-5.5c-3.8,0.2-8.3,2.2-8.9,6.4c0.9-0.1,1.8-0.2,2.7-0.4
					c-2.4-4-6.9-6.7-11.7-6.4c-4.6,0.3-8.8,3.1-10.8,7.2c0.9,0,1.7,0,2.6,0c-2.7-3.8-6.8-7.6-11.8-7.5c-4.4,0.1-8.5,3.1-8.9,7.6
					c0.9-0.3,1.9-0.5,2.8-0.8c-2.2-3.5-6.1-5.8-10.3-5.7c-4,0.1-7.8,2.4-9.8,5.9C91.6,167.3,94.2,168.8,95.1,167.2L95.1,167.2z"/>
			</g>
		</g>
	</g>
	<g>
		<g>
			<g>
				<path d="M257.8,166.5c1.3-7.5-1-15.1-5.4-21.2c-4.7-6.5-11.3-11-18.8-13.6c-8.3-2.9-17.3-3.3-26.1-2.8
					c-8.1,0.5-17.5,1.1-23.2,7.8c-6.7,7.9-6.4,18.6-5.9,28.3c0.1,1.9,3.1,1.9,3,0c-0.5-8.1-1-16.9,3.4-24c2-3.2,4.8-5.6,8.4-6.8
					c3.7-1.3,7.7-1.7,11.6-2c15.2-1.3,32.4,0.3,43.1,12.5c5,5.7,8.2,13.4,6.9,21.1C254.6,167.6,257.5,168.4,257.8,166.5L257.8,166.5
					z"/>
			</g>
		</g>
		<g>
			<g>
				<path d="M257.7,165.2c-2.2-3.5-6.1-5.9-10.3-5.8c-4,0.1-7.8,2.4-9.9,5.8c0.9,0.3,1.9,0.5,2.8,0.8c-0.5-4.5-4.6-7.5-9-7.5
					c-5,0-9,3.8-11.7,7.6c0.9,0,1.7,0,2.6,0c-2.1-4.1-6.3-6.9-10.9-7.1c-4.7-0.2-9.3,2.5-11.6,6.6c0.9,0.1,1.8,0.2,2.7,0.4
					c-0.7-4.2-5.2-6.1-9-6.3c-4.9-0.2-9.8,2.3-13.2,5.6c-1.4,1.4,0.7,3.5,2.1,2.1c2.7-2.7,6.5-4.7,10.4-4.8c2.8-0.1,6.2,1,6.7,4.1
					c0.2,1.3,2.1,1.4,2.7,0.4c1.8-3.2,5.3-5.2,9-5.1c3.6,0.2,6.7,2.4,8.3,5.6c0.5,1.1,2,0.9,2.6,0c2-2.8,4.8-5.7,8.4-6.1
					c2.8-0.3,6.4,1.4,6.7,4.5c0.1,1.4,2,2.1,2.8,0.8c3.4-5.6,11.5-5.6,14.9,0C256.1,168.3,258.7,166.8,257.7,165.2L257.7,165.2z"/>
			</g>
		</g>
	</g>
	<g>
		<g>
			<path d="M103.4,140.9c-2.6-9.9-4.1-20.1-4.2-30.4c-0.1-10,1-20.1,4.4-29.6c2.9-8.1,7.5-15.8,13.7-21.7C124,52.9,132.4,49,141,46
				c4.5-1.5,9.1-2.9,13.7-4.1c4.9-1.3,10-2.4,15.1-2.7c10.3-0.7,20.6,1,30.6,3.5c4.7,1.2,9.4,2.6,13.8,4.8c3.9,2,7.4,4.5,10.6,7.5
				c6.6,6.1,11.8,13.8,15.7,21.9c8.3,17.1,8.4,36.9,5.4,55.3c-0.4,2.3-0.8,4.7-1.3,7c-0.4,1.9,2.5,2.7,2.9,0.8
				c3.8-19.1,5.2-39.6-1.6-58.1c-3.3-8.9-8.4-17.3-14.6-24.4c-6.2-7.2-13.9-12.5-22.9-15.6c-4.9-1.7-9.9-2.9-14.9-3.9
				c-5.3-1-10.6-1.8-16-2c-10.7-0.4-20.9,2.1-31.1,5.1c-9.1,2.7-18.2,6-25.9,11.6c-7.3,5.3-13,12.6-16.9,20.7
				c-8.9,18.6-8.8,40.7-4.8,60.6c0.5,2.6,1.1,5.2,1.8,7.7C101,143.6,103.9,142.8,103.4,140.9L103.4,140.9z"/>
		</g>
	</g>
	<g>
		<g>
			<path d="M108.8,88.4c31.4-3.3,63-4.7,94.6-4.2c8.9,0.1,17.8,0.4,26.8,0.9c1.9,0.1,1.9-2.9,0-3c-31.5-1.6-63.2-1.2-94.7,1
				c-8.9,0.6-17.8,1.4-26.7,2.3C106.9,85.6,106.9,88.6,108.8,88.4L108.8,88.4z"/>
		</g>
	</g>
	<g>
		<g>
			<path d="M107.5,87.8c1.6,7.4,7.6,13.4,14.8,15.6c4,1.2,8.1,1,12.1-0.2c2.3-0.7,4.5-1.6,6.6-2.6c2-1,4.2-1.9,5.8-3.6
				c3.3-3.3,3.7-8.2,3.9-12.5c0.1-1.9-2.9-1.9-3,0c-0.2,3.3-0.3,7-2.4,9.7c-1.2,1.5-2.9,2.4-4.6,3.2c-1.9,0.9-3.8,1.8-5.9,2.5
				c-3.5,1.2-7.1,1.7-10.7,0.8c-3.1-0.8-6-2.3-8.4-4.5c-2.7-2.5-4.6-5.7-5.4-9.3C110,85.1,107.1,85.9,107.5,87.8L107.5,87.8z"/>
		</g>
	</g>
	<g>
		<g>
			<path d="M187.8,83.7c-2,9.8,8.7,16,17,17.3c7.5,1.2,16.5-0.2,22-5.9c3.1-3.2,4.4-7.5,4-11.9c-0.2-1.9-3.2-1.9-3,0
				c0.3,3.2-0.3,6.4-2.3,8.9c-1.9,2.3-4.6,3.9-7.4,4.9c-7,2.4-15,1.7-21.3-2.1c-3.8-2.3-7.1-5.6-6.1-10.4
				C191.1,82.6,188.2,81.8,187.8,83.7L187.8,83.7z"/>
		</g>
	</g>
	<g>
		<g>
			<path d="M211.7,44.8c4.4-12.8,9.7-25.4,15.8-37.5c0.6-1.3-1.3-2.4-1.9-1.1c-6.2,12.3-11.5,25-16,38
				C209.1,45.6,211.3,46.2,211.7,44.8L211.7,44.8z"/>
		</g>
	</g>
	<g>
		<g>
			<path d="M227.2,8c0.3-0.4,1.7-0.4,2.2-0.5c0.7-0.1,1.5-0.2,2.2-0.3c1.5-0.2,3.1-0.4,4.7-0.6c3.1-0.4,6.2-0.7,9.3-1
				c3-0.3,6.1-0.6,9.1-0.8c1.6-0.1,3.1-0.3,4.7-0.4c0.8-0.1,1.6-0.1,2.5-0.2c0.6,0,1.6-0.3,2.2-0.1c-0.2-0.2-0.4-0.3-0.7-0.5
				c0.2,0.4,0.2,1.5,0.2,2c0.1,0.8,0.3,1.6,0.3,2.5c0,1.4,2.3,1.5,2.3,0c0-1.5-0.4-3.1-0.6-4.6c-0.3-2-2.2-1.6-3.8-1.5
				c-4.3,0.3-8.5,0.6-12.8,1c-4.3,0.4-8.5,0.8-12.7,1.3c-2.1,0.2-4.2,0.5-6.4,0.8c-1.7,0.2-3.6,0.1-4.7,1.6
				C224.4,8,226.3,9.1,227.2,8L227.2,8z"/>
		</g>
	</g>
	<g>
		<g>
			<path d="M231.2,13.2c11.2-1.1,22.5-1.9,33.7-2.9c1.4-0.1,1.4-2.4,0-2.3c-11.2,1.1-22.5,1.9-33.7,2.9
				C229.8,11.1,229.8,13.4,231.2,13.2L231.2,13.2z"/>
		</g>
	</g>
	<g>
		<g>
			<path d="M230.6,11.5c-3.4,5.2-5.2,11.3-7.2,17.1c-2.2,6.5-4.5,13-6.7,19.5c0.7-0.1,1.4-0.2,2.1-0.3c0,0.1,0,0.3-0.1,0.4
				c1.1-1-0.5-2.6-1.6-1.6c-0.7,0.6-0.8,1.5-0.3,2.3c0.5,0.8,1.7,0.7,2.1-0.3c2.2-6.3,4.4-12.7,6.5-19c2-5.8,3.7-11.8,7.1-17
				C233.3,11.5,231.4,10.3,230.6,11.5L230.6,11.5z"/>
		</g>
	</g>
	<g>
		<g>
			<path d="M133.9,47c-5.1-12.8-11-25.3-17.7-37.3c-0.7-1.3-2.6-0.1-1.9,1.1c6.6,11.9,12.4,24.2,17.4,36.8
				C132.2,48.9,134.4,48.4,133.9,47L133.9,47z"/>
		</g>
	</g>
	<g>
		<g>
			<path d="M115.4,9.1c-1-1.3-3-1.1-4.5-1.2c-2.1-0.2-4.3-0.3-6.4-0.5c-4.3-0.3-8.7-0.6-13-0.8c-4.3-0.2-8.5-0.4-12.8-0.5
				c-1.5,0-3.3-0.3-3.5,1.6c-0.2,1.5-0.4,3.1-0.4,4.6c0,1.4,2.3,1.5,2.3,0c0-0.7,0.1-1.4,0.2-2.1c0.1-0.6,0.3-1.3,0.2-1.9
				c0-0.2,0-0.3,0-0.5c-0.2,0.1-0.3,0.3-0.5,0.4c0,0,1.4,0,1.5,0c0.9,0,1.8,0,2.7,0.1c3.7,0.1,7.4,0.3,11.1,0.5
				c3.6,0.2,7.2,0.4,10.8,0.7c1.8,0.1,3.6,0.3,5.4,0.4c1,0.1,2,0.2,2.9,0.2c0.7,0.1,1.9-0.1,2.4,0.5
				C114.8,11.9,116.3,10.3,115.4,9.1L115.4,9.1z"/>
		</g>
	</g>
	<g>
		<g>
			<path d="M109.8,13.7c-11.3-0.6-22.6-0.9-33.8-1.5c-1.4-0.1-1.4,2.2,0,2.3c11.3,0.6,22.6,0.9,33.8,1.5
				C111.2,16,111.2,13.8,109.8,13.7L109.8,13.7z"/>
		</g>
	</g>
	<g>
		<g>
			<path d="M108.5,15.4c3.6,5,5.6,11,7.9,16.7c2.5,6.2,4.9,12.5,7.4,18.7c0.3,0.9,1.5,1.2,2.1,0.3c0.5-0.8,0.4-1.7-0.3-2.3
				c-1.1-0.9-2.7,0.6-1.6,1.6c0-0.1,0-0.3,0-0.4c0.7,0.1,1.4,0.2,2.1,0.3c-2.5-6.4-5-12.8-7.5-19.2c-2.3-5.7-4.3-11.7-7.9-16.8
				C109.6,13.1,107.6,14.2,108.5,15.4L108.5,15.4z"/>
		</g>
	</g>
	<g>
		<g>
			<g>
				<path d="M275.8,263c-1.1-7.1,2.9-13.6,8.1-18c2.7-2.3,5.6-4.2,8.6-6.1c3.1-2.1,6.3-4,9.6-5.9c6.4-3.7,13-7.2,19.8-10.2
					c2.8-1.3,6.7-2.9,9.1,0c2,2.4,2.4,6,2.3,9c-0.3,6.8-4.2,13.6-9.7,17.7c0.5,0.1,0.9,0.1,1.4,0.2c-0.3-0.3-0.6-0.7-1-1
					c-1-1.1-2.6,0.5-1.6,1.6c0.3,0.3,0.6,0.7,1,1c0.3,0.3,1,0.5,1.4,0.2c5.4-4,9.3-10.1,10.5-16.7c1-5.7-0.2-16.2-8.1-15.8
					c-3.8,0.2-7.4,2.4-10.7,4c-3.8,1.8-7.6,3.8-11.3,5.9c-7.2,4-14.5,8.3-21,13.4c-6.6,5.1-11.7,12.8-10.3,21.5
					C273.8,265.1,276,264.5,275.8,263L275.8,263z"/>
			</g>
		</g>
		<g>
			<g>
				<path d="M273.6,261c-0.3,2.9,0.7,6,3.1,7.9c0.7,0.5,1.6,0.4,1.9-0.5c0.6-1.7,2.3-7,5.1-5.6c0.6,0.3,1.5,0.1,1.7-0.7
					c0.8-3.3,3.9-6.1,7.2-3.7c0.6,0.5,1.4-0.1,1.7-0.7c0.9-2.6,4.1-7.1,7.2-4.3c0.6,0.5,1.7,0.4,1.9-0.5c0.1-0.3,0.2-0.6,0.2-0.9
					c0.4-1.4-1.8-2-2.2-0.6c-0.1,0.3-0.2,0.6-0.2,0.9c0.6-0.2,1.3-0.3,1.9-0.5c-1.9-1.6-4.4-1.9-6.6-0.6c-2.2,1.3-3.6,3.6-4.4,6
					c0.6-0.2,1.1-0.4,1.7-0.7c-4.4-3.2-9.4,0.4-10.5,5c0.6-0.2,1.1-0.4,1.7-0.7c-4.6-2.3-7.2,3.5-8.4,6.9c0.6-0.2,1.3-0.3,1.9-0.5
					c-1.9-1.5-2.6-3.9-2.4-6.3C276,259.5,273.8,259.5,273.6,261L273.6,261z"/>
			</g>
		</g>
		<g>
			<g>
				<path d="M303.7,251.3c1.1-2.5,3.9-4.3,6.4-2.6c0.6,0.4,1.5,0,1.7-0.7c0.6-3.4,3.6-7.1,7.4-5.2c0.7,0.4,1.8-0.1,1.7-1
					c-0.2-2.4,1.2-5.8,4.1-5c1.4,0.3,2-1.8,0.6-2.2c-4.3-1.1-7.3,3.3-7,7.2c0.6-0.3,1.1-0.6,1.7-1c-5-2.6-9.8,1.5-10.7,6.5
					c0.6-0.2,1.1-0.4,1.7-0.7c-3.5-2.4-8-0.2-9.5,3.4C301.2,251.5,303.1,252.7,303.7,251.3L303.7,251.3z"/>
			</g>
		</g>
	</g>
	<g>
		<g>
			<g>
				<path d="M74.1,273.8c1.3-7.7-2.6-15-8.3-20c-2.9-2.5-6.1-4.7-9.3-6.8c-3.6-2.4-7.2-4.6-11-6.8c-3.7-2.1-7.4-4.2-11.2-6.1
					c-3.5-1.8-7.2-3.9-11-4.9c-3.4-1-6.8-0.2-8.8,2.9c-1.8,2.8-2.3,6.5-2.1,9.8c0.4,7.6,4.7,14.8,10.7,19.3c0.4,0.3,1,0.2,1.4-0.2
					c0.3-0.3,0.6-0.7,1-1c1-1.1-0.6-2.6-1.6-1.6c-0.3,0.3-0.6,0.7-1,1c0.5-0.1,0.9-0.1,1.4-0.2c-4.8-3.6-8.3-9.3-9.3-15.2
					c-0.5-3.1-0.4-6.4,0.8-9.3c0.6-1.4,1.4-2.7,2.8-3.4c1.6-0.8,3.5-0.3,5.2,0.3c3.4,1.2,6.7,3,9.9,4.6c3.3,1.7,6.6,3.4,9.8,5.3
					c6.3,3.6,12.7,7.5,18.5,11.9c6.1,4.6,11.3,11.6,10,19.7C71.7,274.6,73.9,275.2,74.1,273.8L74.1,273.8z"/>
			</g>
		</g>
		<g>
			<g>
				<path d="M71.8,271.1c0.2,2.4-0.5,4.8-2.4,6.3c0.6,0.2,1.3,0.3,1.9,0.5c-1.2-3.4-3.8-9.2-8.4-6.9c0.6,0.2,1.1,0.4,1.7,0.7
					c-1-4.7-6-8.3-10.5-5.1c0.6,0.2,1.1,0.4,1.7,0.7c-0.8-2.3-2.1-4.7-4.3-6c-2.2-1.2-4.7-1-6.6,0.6c0.6,0.2,1.3,0.3,1.9,0.5
					c-0.1-0.3-0.2-0.6-0.2-0.9c-0.4-1.4-2.5-0.8-2.2,0.6c0.1,0.3,0.2,0.6,0.2,0.9c0.2,0.9,1.3,1,1.9,0.5c3.2-2.7,6.3,1.7,7.2,4.4
					c0.2,0.6,1,1.1,1.7,0.7c3.3-2.3,6.4,0.4,7.2,3.7c0.2,0.8,1,1,1.7,0.7c2.8-1.4,4.5,3.9,5.1,5.6c0.3,0.9,1.2,1,1.9,0.5
					c2.3-1.9,3.3-5,3.1-7.9C73.9,269.7,71.7,269.7,71.8,271.1L71.8,271.1z"/>
			</g>
		</g>
		<g>
			<g>
				<path d="M46.1,260.5c-1.5-3.7-5.9-6.2-9.6-3.7c0.6,0.2,1.1,0.4,1.7,0.7c-0.8-5-5.6-9.1-10.6-6.6c0.6,0.3,1.1,0.6,1.7,1
					c0.4-3.9-2.6-8.3-7-7.2c-1.4,0.3-0.8,2.5,0.6,2.2c2.9-0.7,4.3,2.7,4.1,5.1c-0.1,0.9,1,1.3,1.7,1c3.8-1.9,6.8,1.8,7.3,5.2
					c0.1,0.7,1.1,1.1,1.7,0.7c2.3-1.6,5.3-0.1,6.3,2.3C44.5,262.4,46.7,261.8,46.1,260.5L46.1,260.5z"/>
			</g>
		</g>
	</g>
	<g>
		<g>
			<g>
				<path d="M79.1,345.8c1.3-7.7-2.6-15-8.3-20c-2.9-2.5-6.1-4.7-9.3-6.8c-3.6-2.4-7.2-4.6-11-6.8c-3.7-2.1-7.4-4.2-11.2-6.1
					c-3.5-1.8-7.2-3.9-11-4.9c-3.4-1-6.8-0.2-8.8,2.9c-1.8,2.8-2.3,6.5-2.1,9.8c0.4,7.6,4.7,14.8,10.7,19.3c0.4,0.3,1,0.2,1.4-0.2
					c0.3-0.3,0.6-0.7,1-1c1-1.1-0.6-2.6-1.6-1.6c-0.3,0.3-0.6,0.7-1,1c0.5-0.1,0.9-0.1,1.4-0.2c-4.8-3.6-8.3-9.3-9.3-15.2
					c-0.5-3.1-0.4-6.4,0.8-9.3c0.6-1.4,1.4-2.7,2.8-3.4c1.6-0.8,3.5-0.3,5.2,0.3c3.4,1.2,6.7,3,9.9,4.6c3.3,1.7,6.6,3.4,9.8,5.3
					c6.3,3.6,12.7,7.5,18.5,11.9c6.1,4.6,11.3,11.6,10,19.7C76.7,346.6,78.9,347.2,79.1,345.8L79.1,345.8z"/>
			</g>
		</g>
		<g>
			<g>
				<path d="M76.8,343.1c0.2,2.4-0.5,4.8-2.4,6.3c0.6,0.2,1.3,0.3,1.9,0.5c-1.2-3.4-3.8-9.2-8.4-6.9c0.6,0.2,1.1,0.4,1.7,0.7
					c-1-4.7-6-8.3-10.5-5.1c0.6,0.2,1.1,0.4,1.7,0.7c-0.8-2.3-2.1-4.7-4.3-6c-2.2-1.2-4.7-1-6.6,0.6c0.6,0.2,1.3,0.3,1.9,0.5
					c-0.1-0.3-0.2-0.6-0.2-0.9c-0.4-1.4-2.5-0.8-2.2,0.6c0.1,0.3,0.2,0.6,0.2,0.9c0.2,0.9,1.3,1,1.9,0.5c3.2-2.7,6.3,1.7,7.2,4.4
					c0.2,0.6,1,1.1,1.7,0.7c3.3-2.3,6.4,0.4,7.2,3.7c0.2,0.8,1,1,1.7,0.7c2.8-1.4,4.5,3.9,5.1,5.6c0.3,0.9,1.2,1,1.9,0.5
					c2.3-1.9,3.3-5,3.1-7.9C78.9,341.7,76.7,341.7,76.8,343.1L76.8,343.1z"/>
			</g>
		</g>
		<g>
			<g>
				<path d="M51.1,332.5c-1.5-3.7-5.9-6.2-9.6-3.7c0.6,0.2,1.1,0.4,1.7,0.7c-0.8-5-5.6-9.1-10.6-6.6c0.6,0.3,1.1,0.6,1.7,1
					c0.4-3.9-2.6-8.3-7-7.2c-1.4,0.3-0.8,2.5,0.6,2.2c2.9-0.7,4.3,2.7,4.1,5.1c-0.1,0.9,1,1.3,1.7,1c3.8-1.9,6.8,1.8,7.3,5.2
					c0.1,0.7,1.1,1.1,1.7,0.7c2.3-1.6,5.3-0.1,6.3,2.3C49.5,334.4,51.7,333.8,51.1,332.5L51.1,332.5z"/>
			</g>
		</g>
	</g>
	<g>
		<g>
			<g>
				<path d="M275.8,339c-1.1-7.1,2.9-13.6,8.1-18c2.7-2.3,5.6-4.2,8.6-6.1c3.1-2.1,6.3-4,9.6-5.9c6.4-3.7,13-7.2,19.8-10.2
					c2.8-1.3,6.7-2.9,9.1,0c2,2.4,2.4,6,2.3,9c-0.3,6.8-4.2,13.6-9.7,17.7c0.5,0.1,0.9,0.1,1.4,0.2c-0.3-0.3-0.6-0.7-1-1
					c-1-1.1-2.6,0.5-1.6,1.6c0.3,0.3,0.6,0.7,1,1c0.3,0.3,1,0.5,1.4,0.2c5.4-4,9.3-10.1,10.5-16.7c1-5.7-0.2-16.2-8.1-15.8
					c-3.8,0.2-7.4,2.4-10.7,4c-3.8,1.8-7.6,3.8-11.3,5.9c-7.2,4-14.5,8.3-21,13.4c-6.6,5.1-11.7,12.8-10.3,21.5
					C273.8,341.1,276,340.5,275.8,339L275.8,339z"/>
			</g>
		</g>
		<g>
			<g>
				<path d="M273.6,337c-0.3,2.9,0.7,6,3.1,7.9c0.7,0.5,1.6,0.4,1.9-0.5c0.6-1.7,2.3-7,5.1-5.6c0.6,0.3,1.5,0.1,1.7-0.7
					c0.8-3.3,3.9-6.1,7.2-3.7c0.6,0.5,1.4-0.1,1.7-0.7c0.9-2.6,4.1-7.1,7.2-4.3c0.6,0.5,1.7,0.4,1.9-0.5c0.1-0.3,0.2-0.6,0.2-0.9
					c0.4-1.4-1.8-2-2.2-0.6c-0.1,0.3-0.2,0.6-0.2,0.9c0.6-0.2,1.3-0.3,1.9-0.5c-1.9-1.6-4.4-1.9-6.6-0.6c-2.2,1.3-3.6,3.6-4.4,6
					c0.6-0.2,1.1-0.4,1.7-0.7c-4.4-3.2-9.4,0.4-10.5,5c0.6-0.2,1.1-0.4,1.7-0.7c-4.6-2.3-7.2,3.5-8.4,6.9c0.6-0.2,1.3-0.3,1.9-0.5
					c-1.9-1.5-2.6-3.9-2.4-6.3C276,335.5,273.8,335.5,273.6,337L273.6,337z"/>
			</g>
		</g>
		<g>
			<g>
				<path d="M303.7,327.3c1.1-2.5,3.9-4.3,6.4-2.6c0.6,0.4,1.5,0,1.7-0.7c0.6-3.4,3.6-7.1,7.4-5.2c0.7,0.4,1.8-0.1,1.7-1
					c-0.2-2.4,1.2-5.8,4.1-5c1.4,0.3,2-1.8,0.6-2.2c-4.3-1.1-7.3,3.3-7,7.2c0.6-0.3,1.1-0.6,1.7-1c-5-2.6-9.8,1.5-10.7,6.5
					c0.6-0.2,1.1-0.4,1.7-0.7c-3.5-2.4-8-0.2-9.5,3.4C301.2,327.5,303.1,328.7,303.7,327.3L303.7,327.3z"/>
			</g>
		</g>
	</g>
	<g>
		<g>
			<path d="M15.3,187.2c40.8,0.8,81.5,1.6,122.3,1.6c40.5,0,81.1-0.8,121.6-3.3c22.8-1.4,45.6-3.2,68.3-5.7c1.9-0.2,1.9-3.2,0-3
				c-40.5,4.5-81.2,6.9-121.9,8.1c-40.6,1.2-81.1,1.1-121.7,0.5c-22.9-0.3-45.7-0.7-68.6-1.2C13.4,184.1,13.4,187.1,15.3,187.2
				L15.3,187.2z"/>
		</g>
	</g>
	<g>
		<g>
			<path d="M26.9,318.3c0.9,18.9,1.5,37.7,1.6,56.6c0,5.4,0,10.8,0,16.2c0,1.9,3,1.9,3,0c0.2-18.9-0.1-37.8-0.9-56.6
				c-0.2-5.4-0.4-10.8-0.7-16.2C29.8,316.4,26.8,316.4,26.9,318.3L26.9,318.3z"/>
		</g>
	</g>
	<g>
		<g>
			<path d="M22,246.1c1.5,18.7,3,37.5,4.1,56.2c0.1,1.9,3.1,1.9,3,0c-1.1-18.8-2.5-37.5-4.1-56.2C24.8,244.2,21.8,244.2,22,246.1
				L22,246.1z"/>
		</g>
	</g>
	<g>
		<g>
			<path d="M14.6,186c4.2,14.3,4.7,29.2,6,44c0.2,1.9,3.2,1.9,3,0c-1.3-15-1.9-30.2-6.1-44.8C16.9,183.4,14,184.2,14.6,186L14.6,186
				z"/>
		</g>
	</g>
	<g>
		<g>
			<path d="M320.9,312.4c0.1,20-0.7,40,0.5,60c0.2,2.8,0.4,5.5,0.6,8.3c0.1,1.2,0.4,2.2,1,3.2c0.5,0.9,1.2,1.7,1.6,2.7
				c0.7,1.8,3.6,1,2.9-0.8c-0.6-1.7-2.2-3.1-2.4-4.9c-0.4-2.4-0.4-4.8-0.5-7.2c-0.3-4.9-0.5-9.8-0.6-14.7c-0.2-9.8-0.1-19.6,0-29.4
				c0-5.7,0.1-11.4,0.1-17.1C323.9,310.4,320.9,310.4,320.9,312.4L320.9,312.4z"/>
		</g>
	</g>
	<g>
		<g>
			<path d="M322.1,235.7c-0.5,20-0.9,40-1.2,60c0,1.9,3,1.9,3,0c0.2-20,0.7-40,1.2-60C325.2,233.8,322.2,233.8,322.1,235.7
				L322.1,235.7z"/>
		</g>
	</g>
	<g>
		<g>
			<path d="M325.6,178.6c-2.6,13.8-2.7,27.9-3,42c0,1.9,3,1.9,3,0c0.3-13.8,0.3-27.6,2.9-41.2C328.9,177.5,326,176.7,325.6,178.6
				L325.6,178.6z"/>
		</g>
	</g>
	<g>
		<g>
			<path d="M30,392.6c15.1-1,30.3-1.9,45.5-2.6c18.3-0.9,36.6-1.7,54.9-2.2c18.9-0.6,37.9-0.8,56.8-0.8c21.7,0,43.4,0.1,65.2,0.2
				c21.8,0.1,43.5,0.2,65.3,0.3c2.8,0,5.5,0,8.3,0c1.9,0,1.9-3,0-3c-21.8-0.1-43.5-0.2-65.3-0.3c-21.8-0.1-43.7-0.2-65.5-0.3
				c-19.3,0-38.7,0.1-58,0.6c-18.3,0.5-36.7,1.2-55,2.1c-15.8,0.7-31.5,1.6-47.3,2.6c-1.6,0.1-3.2,0.2-4.9,0.3
				C28.1,389.8,28.1,392.8,30,392.6L30,392.6z"/>
		</g>
	</g>
	<g>
		<g>
			<path d="M51.3,185.2c0.4-5.9,1.3-11.8,2.6-17.6c1.3-5.4,2.7-11,5.2-16c2.4-4.9,6.2-8.7,10.3-12.3c4-3.5,8.1-7,12.5-10.1
				c4.9-3.5,10.1-6.7,15.7-9c1.8-0.7,1-3.6-0.8-2.9c-10.4,4.3-19.4,11.1-27.9,18.4c-4.3,3.7-8.6,7.6-11.5,12.6
				c-2.8,5-4.5,10.6-5.9,16.2c-1.7,6.8-2.8,13.7-3.3,20.7C48.1,187.2,51.1,187.2,51.3,185.2L51.3,185.2z"/>
		</g>
	</g>
	<g>
		<g>
			<path d="M33.5,185.3c2.7-13,8.2-25.2,15.9-35.9c7.7-10.8,17.7-20,29-26.9c6.4-3.9,13.2-6.9,20.3-9.2c1.8-0.6,1.1-3.5-0.8-2.9
				c-13.1,4.1-25.1,11-35.4,20c-10.2,9-18.7,20-24.5,32.2c-3.3,6.9-5.9,14.3-7.4,21.8C30.2,186.4,33.1,187.2,33.5,185.3L33.5,185.3z
				"/>
		</g>
	</g>
	<g>
		<g>
			<path d="M298.9,179.3c-0.4-6.2-1.3-12.3-2.6-18.4c-1.3-5.6-2.8-11.3-5.4-16.5c-2.5-5.2-6.5-9.4-10.8-13.2
				c-4.1-3.7-8.4-7.2-12.9-10.5c-5.2-3.8-10.7-7-16.6-9.5c-0.8-0.3-1.6,0.3-1.8,1c-0.2,0.9,0.3,1.5,1,1.8
				c10,4.2,18.6,10.9,26.7,17.9c4.1,3.5,8.1,7.2,10.8,11.9c2.7,4.8,4.3,10.3,5.6,15.7c1.6,6.5,2.6,13,3,19.7
				C296,181.2,299,181.2,298.9,179.3L298.9,179.3z"/>
		</g>
	</g>
	<g>
		<g>
			<path d="M316.6,178.6c-2.7-13.4-8.4-26.1-16.4-37.2c-7.9-11-18-20.5-29.7-27.6c-6.6-4-13.6-7.2-21-9.5c-1.8-0.6-2.6,2.3-0.8,2.9
				c12.6,4,24.2,10.7,34.1,19.5c9.9,8.8,18.1,19.6,23.8,31.6c3.2,6.7,5.6,13.8,7,21.1C314.1,181.3,317,180.5,316.6,178.6
				L316.6,178.6z"/>
		</g>
	</g>
	<g>
		<g>
			<path d="M52.1,390.4c5.1,13.8,18.8,21.1,32.1,25.2c17.8,5.4,36.5,7.7,54.9,9.4c18,1.6,36.2,2.5,54.3,1.5c18-0.9,36-3.7,53.1-9.5
				c15.4-5.3,30.1-13.4,41.6-25.2c1.4-1.5,2.8-3,4.1-4.6c1.2-1.5-0.9-3.6-2.1-2.1c-10.3,12.2-24,21.1-38.8,26.9
				c-16.3,6.4-33.7,9.6-51,11c-17.6,1.4-35.3,0.9-52.9-0.4c-18.3-1.4-36.7-3.4-54.6-7.8c-13.1-3.3-28.3-8.2-35.6-20.6
				c-0.9-1.5-1.6-3-2.2-4.6C54.3,387.8,51.4,388.6,52.1,390.4L52.1,390.4z"/>
		</g>
	</g>
	<g>
		<g>
			<path d="M67.1,407.4c-9.5,9.4-7.6,23.6-2.1,34.6c1.6,3.1,3.4,6.1,5.5,8.8c0.5,0.6,1.3,1,2.1,0.5c0.6-0.4,1-1.4,0.5-2.1
				c-6.6-8.5-12.2-20.7-8.9-31.6c0.9-3.1,2.7-5.9,5-8.2C70.6,408.1,68.5,406,67.1,407.4L67.1,407.4z"/>
		</g>
	</g>
	<g>
		<g>
			<path d="M84.6,414.4c-4.3,5.7-6.6,12.8-6.8,19.9c-0.1,3.6,0.3,7.2,1.2,10.6c1.1,3.9,2.9,7.4,4.9,10.8c1.5,2.6,2.6,5.5,3.9,8.2
				c0.8,1.7,3.4,0.2,2.6-1.5c-1.1-2.2-2-4.6-3.1-6.8c-1.6-3.3-3.6-6.3-4.8-9.8c-2.1-6.3-2.2-13.3-0.3-19.7c1.1-3.7,2.8-7.1,5.1-10.2
				C88.3,414.3,85.7,412.8,84.6,414.4L84.6,414.4z"/>
		</g>
	</g>
	<g>
		<g>
			<path d="M36,465.7c1.2-12.6,15.5-16.8,26.2-16.1c3.1,0.2,6.2,0.8,9,2c1.8,0.7,2.6-2.2,0.8-2.9c-5.9-2.3-12.5-2.7-18.7-1.6
				c-6.1,1-12.4,3.6-16.4,8.6c-2.3,2.9-3.6,6.4-4,10.1C32.8,467.6,35.8,467.6,36,465.7L36,465.7z"/>
		</g>
	</g>
	<g>
		<g>
			<path d="M36.5,465.7c0,0.5,0.1,0.5,0.3,0.2c0.1-0.1,0.1-0.1,0.2-0.2c0.3-0.2,0.8-0.4,1.1-0.5c0.8-0.3,1.7-0.6,2.5-0.8
				c1.7-0.4,3.5-0.6,5.3-0.5c2.5,0.1,6.3,0.8,6.8,3.7c0.2,1.2,2.2,1.5,2.7,0.4c1.2-2.6,3.6-4.6,6.5-5c3-0.4,6,1.1,7.7,3.5
				c0.7,1,1.9,1,2.6,0c3.2-4.6,10.6-5.3,14.6-1.5c1.4,1.3,3.5-0.8,2.1-2.1c-5.5-5.2-15-4.1-19.3,2.1c0.9,0,1.7,0,2.6,0
				c-2.3-3.3-6.3-5.4-10.4-5c-3.9,0.4-7.5,2.9-9.1,6.5c0.9,0.1,1.8,0.2,2.7,0.4c-0.8-5-7.3-6.1-11.5-5.9c-2.7,0.1-5.3,0.7-7.8,1.8
				c-1.8,0.8-4.1,3.3-2,5.1C35.8,469.1,37.9,467,36.5,465.7L36.5,465.7z"/>
		</g>
	</g>
	<g>
		<g>
			<path d="M261.8,410.1c4.7,3.9,7.2,9.2,7.4,15.3c0.1,6-1.7,11.9-4.4,17.1c-1.5,3-3.3,5.8-5.3,8.4c-1.2,1.5,0.9,3.6,2.1,2.1
				c7.5-9.6,13.8-23.9,8.9-36c-1.4-3.5-3.7-6.6-6.6-9C262.4,406.8,260.3,408.9,261.8,410.1L261.8,410.1z"/>
		</g>
	</g>
	<g>
		<g>
			<path d="M245.4,417.8c4,5.5,6.2,12,6.4,18.8c0.1,3.3-0.3,6.6-1.3,9.8c-1.1,3.7-3,7-4.8,10.4c-1.3,2.4-2.3,5-3.6,7.5
				c-0.9,1.7,1.7,3.2,2.6,1.5c1.1-2.3,2.1-4.8,3.3-7.1c1.8-3.5,3.9-6.8,5.1-10.6c2.2-6.8,2.2-14.3,0.2-21.1
				c-1.1-3.9-2.9-7.5-5.3-10.7C246.8,414.8,244.2,416.3,245.4,417.8L245.4,417.8z"/>
		</g>
	</g>
	<g>
		<g>
			<path d="M299.4,467.8c-1.3-14.2-16.4-19.9-28.9-19.2c-3.4,0.2-6.9,0.8-10.1,2.1c-1.8,0.7-1,3.6,0.8,2.9
				c5.2-2.1,11.2-2.5,16.7-1.7c5.5,0.9,11.2,3,15,7.3c2.1,2.4,3.3,5.4,3.6,8.6C296.6,469.7,299.6,469.7,299.4,467.8L299.4,467.8z"/>
		</g>
	</g>
	<g>
		<g>
			<path d="M298,469.9c2-1.7,0-4.2-1.8-5c-2.5-1.2-5.2-1.8-8-1.9c-4.1-0.2-10.6,0.9-11.5,5.9c0.9-0.1,1.8-0.2,2.7-0.4
				c-1.6-3.6-5.2-6.1-9.1-6.5c-4.1-0.4-8,1.6-10.4,5c0.9,0,1.7,0,2.6,0c-4.3-6.2-13.8-7.3-19.3-2.1c-1.4,1.3,0.7,3.4,2.1,2.1
				c4-3.8,11.4-3.1,14.6,1.5c0.7,1,1.9,1,2.6,0c1.7-2.4,4.8-3.9,7.7-3.5c2.9,0.4,5.3,2.4,6.5,5c0.5,1.1,2.5,0.9,2.7-0.4
				c0.5-3,4.4-3.6,6.8-3.7c1.8-0.1,3.5,0.1,5.3,0.5c0.8,0.2,1.6,0.4,2.3,0.7c0.4,0.2,0.8,0.3,1.2,0.5c0.1,0.1,0.2,0.1,0.3,0.3
				c0.2,0.3,0.3,0.3,0.3-0.2C294.4,469,296.6,471.1,298,469.9L298,469.9z"/>
		</g>
	</g>
	<g>
		<g>
			<path d="M68.1,215.7c3.3,0.6,6.7,1.2,10,1.8c0.5,0.1,0.7-0.6,0.2-0.7c-3.3-0.6-6.7-1.2-10-1.8C67.8,214.9,67.6,215.6,68.1,215.7
				L68.1,215.7z"/>
		</g>
	</g>
	<g>
		<g>
			<path d="M277,211.6c4.3,0,8.6,0,13,0c0.5,0,0.5-0.8,0-0.8c-4.3,0-8.6,0-13,0C276.5,210.8,276.5,211.6,277,211.6L277,211.6z"/>
		</g>
	</g>
	<g>
		<g>
			<path d="M279.9,290.8c2.9,0,5.8,0,8.6,0c0.5,0,0.5-0.8,0-0.8c-2.9,0-5.8,0-8.6,0C279.4,290,279.4,290.8,279.9,290.8L279.9,290.8z
				"/>
		</g>
	</g>
	<g>
		<g>
			<path d="M58.1,371.4c3.8,0,7.7,0,11.5,0c0.5,0,0.5-0.8,0-0.8c-3.8,0-7.7,0-11.5,0C57.6,370.7,57.6,371.4,58.1,371.4L58.1,371.4z"
				/>
		</g>
	</g>
	<g>
		<g>
			<path d="M149.9,85.1c2.1,11.4-5.7,23.1-17.2,25.3c-0.5,0.1-0.3,0.8,0.2,0.7c11.9-2.3,19.8-14.4,17.7-26.3
				C150.6,84.4,149.8,84.6,149.9,85.1L149.9,85.1z"/>
		</g>
	</g>
	<g>
		<g>
			<path d="M187.8,85.6c-1.2,6.8,1.3,14,6.5,18.5c5.3,4.5,13.1,5.8,19.6,3.4c0.4-0.2,0.3-0.9-0.2-0.7c-6.3,2.3-13.7,1.2-18.9-3.2
				c-5-4.3-7.5-11.2-6.3-17.7C188.6,85.4,187.9,85.2,187.8,85.6L187.8,85.6z"/>
		</g>
	</g>
	<g>
		<g>
			<path d="M121.7,279.3c2.2,1.4,5.1,1.7,7.5,0.8c0.5-0.2,0.3-0.9-0.2-0.7c-2.3,0.8-4.9,0.6-6.9-0.7
				C121.6,278.4,121.3,279.1,121.7,279.3L121.7,279.3z"/>
		</g>
	</g>
	<g>
		<g>
			<path d="M251.1,363.7c2.9,0.1,5.9-0.2,8.8-0.9c0.5-0.1,0.3-0.8-0.2-0.7c-2.8,0.7-5.7,1-8.6,0.9
				C250.6,363,250.6,363.7,251.1,363.7L251.1,363.7z"/>
		</g>
	</g>
	<g>
		<g>
			<path d="M148.9,361.4c2.2-0.5,4.4-0.7,6.6-0.5c0.5,0,0.5-0.7,0-0.8c-2.3-0.1-4.6,0.1-6.8,0.6
				C148.3,360.8,148.5,361.5,148.9,361.4L148.9,361.4z"/>
		</g>
	</g>
	<g>
		<g>
			<path d="M172.3,198.7c3.7-0.2,7.4-0.4,11-0.6c0.5,0,0.5-0.8,0-0.8c-3.7,0.2-7.4,0.4-11,0.6C171.9,198,171.9,198.8,172.3,198.7
				L172.3,198.7z"/>
		</g>
	</g>
	<g>
		<g>
			<path d="M124.3,306.6c0.5,0,0.5-0.8,0-0.8C123.8,305.9,123.8,306.6,124.3,306.6L124.3,306.6z"/>
		</g>
	</g>
	<g>
		<g>
			<path d="M170.2,119.8c0.2,1.2,0.5,2.4,0.7,3.6c0,0.2,0.3,0.3,0.5,0.3c0.2-0.1,0.3-0.3,0.3-0.5c-0.2-1.2-0.5-2.4-0.7-3.6
				c0-0.2-0.3-0.3-0.5-0.3C170.2,119.4,170.1,119.6,170.2,119.8L170.2,119.8z"/>
		</g>
	</g>
	<g>
		<g>
			<path d="M175.7,119.9c0.3,1.4,0.5,2.9,0.8,4.3c0,0.2,0.3,0.3,0.5,0.3c0.2-0.1,0.3-0.3,0.3-0.5c-0.3-1.4-0.5-2.9-0.8-4.3
				c0-0.2-0.3-0.3-0.5-0.3C175.7,119.5,175.6,119.7,175.7,119.9L175.7,119.9z"/>
		</g>
	</g>
	<g>
		<g>
			<path d="M115.7,139.2c-3.6,4.3-6.8,9-9.5,14c-0.2,0.4,0.4,0.8,0.6,0.4c2.7-4.9,5.8-9.5,9.3-13.8
				C116.5,139.3,116,138.8,115.7,139.2L115.7,139.2z"/>
		</g>
	</g>
	<g>
		<g>
			<path d="M128.6,139.2c-1.1,4.8-2.3,9.5-3.4,14.3c-0.1,0.5,0.6,0.7,0.7,0.2c1.1-4.8,2.3-9.5,3.4-14.3
				C129.4,138.9,128.7,138.7,128.6,139.2L128.6,139.2z"/>
		</g>
	</g>
	<g>
		<g>
			<path d="M141.2,139.3c1.1,4.8,2.1,9.6,3.2,14.3c0.1,0.5,0.8,0.3,0.7-0.2c-1.1-4.8-2.1-9.6-3.2-14.3
				C141.8,138.6,141.1,138.8,141.2,139.3L141.2,139.3z"/>
		</g>
	</g>
	<g>
		<g>
			<path d="M196.1,141.8c-3,3.8-5,8.3-5.9,13.1c-0.1,0.5,0.6,0.7,0.7,0.2c0.8-4.7,2.8-9.1,5.7-12.8
				C196.9,142,196.4,141.4,196.1,141.8L196.1,141.8z"/>
		</g>
	</g>
	<g>
		<g>
			<path d="M213.2,143.5c0,4.8,0,9.6,0,14.4c0,0.5,0.8,0.5,0.8,0c0-4.8,0-9.6,0-14.4C214,143,213.2,143,213.2,143.5L213.2,143.5z"/>
		</g>
	</g>
	<g>
		<g>
			<path d="M227.2,141.1c3,4.7,6,9.4,9,14.2c0.3,0.4,0.9,0,0.6-0.4c-3-4.7-6-9.4-9-14.2C227.6,140.3,227,140.7,227.2,141.1
				L227.2,141.1z"/>
		</g>
	</g>
	<g>
		<g>
			<path d="M134.4,64.7c5.3,0,10.6,0,15.8,0c0.5,0,0.5-0.8,0-0.8c-5.3,0-10.6,0-15.8,0C133.9,64,133.9,64.7,134.4,64.7L134.4,64.7z"
				/>
		</g>
	</g>
	<g>
		<g>
			<path d="M190.6,63.5c4.8-0.6,9.6-1.2,14.4-1.8c0.5-0.1,0.5-0.8,0-0.8c-4.8,0.6-9.6,1.2-14.4,1.8
				C190.1,62.8,190.1,63.6,190.6,63.5L190.6,63.5z"/>
		</g>
	</g>
	<g>
		<g>
			<path d="M265.2,150c4.4,1.3,8.7,2.6,13.1,3.9c0.5,0.1,0.7-0.6,0.2-0.7c-4.4-1.3-8.7-2.6-13.1-3.9
				C265,149.2,264.8,149.9,265.2,150L265.2,150z"/>
		</g>
	</g>
	<g>
		<g>
			<path d="M268.3,174.1c3.4,0,6.7,0,10.1,0c0.5,0,0.5-0.8,0-0.8c-3.4,0-6.7,0-10.1,0C267.8,173.4,267.8,174.1,268.3,174.1
				L268.3,174.1z"/>
		</g>
	</g>
	<g>
		<g>
			<path d="M137.3,177c3.4,0,6.7,0,10.1,0c0.5,0,0.5-0.8,0-0.8c-3.4,0-6.7,0-10.1,0C136.8,176.3,136.8,177,137.3,177L137.3,177z"/>
		</g>
	</g>
	<g>
		<g>
			<path d="M68.1,175.4c2.9,0.5,5.7,1,8.6,1.5c0.5,0.1,0.7-0.6,0.2-0.7c-2.9-0.5-5.7-1-8.6-1.5C67.8,174.5,67.6,175.3,68.1,175.4
				L68.1,175.4z"/>
		</g>
	</g>
	<g>
		<g>
			<path d="M122.9,397.3c3.8,0,7.7,0,11.5,0c0.5,0,0.5-0.8,0-0.8c-3.8,0-7.7,0-11.5,0C122.4,396.6,122.4,397.3,122.9,397.3
				L122.9,397.3z"/>
		</g>
	</g>
	<g>
		<g>
			<path d="M220.8,395.9c5.3,0.6,10.5,1.1,15.8,1.7c0.5,0.1,0.5-0.7,0-0.8c-5.3-0.6-10.5-1.1-15.8-1.7
				C220.3,395.1,220.3,395.8,220.8,395.9L220.8,395.9z"/>
		</g>
	</g>
	<g>
		<g>
			<path d="M171.9,394.5c2.9,0,5.8,0,8.6,0c0.5,0,0.5-0.8,0-0.8c-2.9,0-5.8,0-8.6,0C171.4,393.7,171.4,394.5,171.9,394.5
				L171.9,394.5z"/>
		</g>
	</g>
	<g>
		<g>
			<path d="M189.1,414.6c3.8,0,7.7,0,11.5,0c0.5,0,0.5-0.8,0-0.8c-3.8,0-7.7,0-11.5,0C188.6,413.9,188.6,414.6,189.1,414.6
				L189.1,414.6z"/>
		</g>
	</g>
</g>
</svg>
